<svg version="1.1" viewBox="0.0 0.0 600.0 371.0" fill="none" stroke="none" stroke-linecap="square" stroke-miterlimit="10" width="600" height="371" xmlns:xlink="http://www.w3.org/1999/xlink" xmlns="http://www.w3.org/2000/svg"><path fill="#ffffff" d="M0 0L600.0 0L600.0 371.0L0 371.0L0 0Z" fill-rule="nonzero"/><path stroke="#333333" stroke-width="1.0" stroke-linecap="butt" d="M95.5 51.5L95.5 289.5" fill-rule="nonzero"/><path stroke="#cccccc" stroke-width="1.0" stroke-linecap="butt" d="M215.5 51.5L215.5 289.5" fill-rule="nonzero"/><path stroke="#cccccc" stroke-width="1.0" stroke-linecap="butt" d="M335.5 51.5L335.5 289.5" fill-rule="nonzero"/><path stroke="#cccccc" stroke-width="1.0" stroke-linecap="butt" d="M454.5 51.5L454.5 289.5" fill-rule="nonzero"/><path stroke="#cccccc" stroke-width="1.0" stroke-linecap="butt" d="M574.5 51.5L574.5 289.5" fill-rule="nonzero"/><path stroke="#333333" stroke-width="1.0" stroke-linecap="butt" d="M88.5 289.5L581.5 289.5" fill-rule="nonzero"/><path stroke="#cccccc" stroke-width="1.0" stroke-linecap="butt" d="M88.5 230.5L581.5 230.5" fill-rule="nonzero"/><path stroke="#cccccc" stroke-width="1.0" stroke-linecap="butt" d="M88.5 170.5L581.5 170.5" fill-rule="nonzero"/><path stroke="#cccccc" stroke-width="1.0" stroke-linecap="butt" d="M88.5 111.5L581.5 111.5" fill-rule="nonzero"/><path stroke="#cccccc" stroke-width="1.0" stroke-linecap="butt" d="M88.5 51.5L581.5 51.5" fill-rule="nonzero"/><clipPath id="id_0"><path d="M88.55 51.916668L581.45 51.916668L581.45 289.45L88.55 289.45L88.55 51.916668Z" clip-rule="nonzero"/></clipPath><path stroke="#0000ff" stroke-width="2.0" stroke-linecap="butt" stroke-opacity="0.4" clip-path="url(#id_0)" d="M0 298.19733L581.45 58.40672" fill-rule="nonzero"/><path fill="#980000" clip-path="url(#id_0)" d="M99.85667 258.3792C99.85667 260.8645 97.84195 262.8792 95.35667 262.8792C92.87138 262.8792 90.85667 260.8645 90.85667 258.3792C90.85667 255.89394 92.87138 253.87923 95.35667 253.87923C97.84195 253.87923 99.85667 255.89394 99.85667 258.3792Z" fill-rule="nonzero"/><path fill="#980000" clip-path="url(#id_0)" d="M109.4424 258.3792C109.4424 260.8645 107.42768 262.8792 104.9424 262.8792C102.45712 262.8792 100.4424 260.8645 100.4424 258.3792C100.4424 255.89394 102.45712 253.87923 104.9424 253.87923C107.42768 253.87923 109.4424 255.89394 109.4424 258.3792Z" fill-rule="nonzero"/><path fill="#980000" clip-path="url(#id_0)" d="M119.02814 258.3792C119.02814 260.8645 117.01341 262.8792 114.52814 262.8792C112.042854 262.8792 110.02814 260.8645 110.02814 258.3792C110.02814 255.89394 112.042854 253.87923 114.52814 253.87923C117.01341 253.87923 119.02814 255.89394 119.02814 258.3792Z" fill-rule="nonzero"/><path fill="#980000" clip-path="url(#id_0)" d="M128.61386 258.181C128.61386 260.6663 126.59915 262.681 124.11387 262.681C121.628586 262.681 119.61387 260.6663 119.61387 258.181C119.61387 255.69572 121.628586 253.68102 124.11387 253.68102C126.59915 253.68102 128.61386 255.69572 128.61386 258.181Z" fill-rule="nonzero"/><path fill="#980000" clip-path="url(#id_0)" d="M138.1996 251.27412C138.1996 253.75941 136.18488 255.77412 133.6996 255.77412C131.21432 255.77412 129.1996 253.75941 129.1996 251.27412C129.1996 248.78885 131.21432 246.77412 133.6996 246.77412C136.18488 246.77412 138.1996 248.78885 138.1996 251.27412Z" fill-rule="nonzero"/><path fill="#980000" clip-path="url(#id_0)" d="M147.78534 248.2375C147.78534 250.72278 145.77061 252.7375 143.28534 252.7375C140.80005 252.7375 138.78534 250.72278 138.78534 248.2375C138.78534 245.75221 140.80005 243.7375 143.28534 243.7375C145.77061 243.7375 147.78534 245.75221 147.78534 248.2375Z" fill-rule="nonzero"/><path fill="#980000" clip-path="url(#id_0)" d="M157.37106 237.42184C157.37106 239.90714 155.35635 241.92184 152.87106 241.92184C150.38579 241.92184 148.37106 239.90714 148.37106 237.42184C148.37106 234.93657 150.38579 232.92184 152.87106 232.92184C155.35635 232.92184 157.37106 234.93657 157.37106 237.42184Z" fill-rule="nonzero"/><path fill="#980000" clip-path="url(#id_0)" d="M166.9568 233.4134C166.9568 235.8987 164.94208 237.9134 162.4568 237.9134C159.97153 237.9134 157.9568 235.8987 157.9568 233.4134C157.9568 230.92813 159.97153 228.9134 162.4568 228.9134C164.94208 228.9134 166.9568 230.92813 166.9568 233.4134Z" fill-rule="nonzero"/><path fill="#980000" clip-path="url(#id_0)" d="M176.54254 231.20815C176.54254 233.69344 174.52782 235.70815 172.04254 235.70815C169.55725 235.70815 167.54254 233.69344 167.54254 231.20815C167.54254 228.72287 169.55725 226.70815 172.04254 226.70815C174.52782 226.70815 176.54254 228.72287 176.54254 231.20815Z" fill-rule="nonzero"/><path fill="#980000" clip-path="url(#id_0)" d="M186.12827 223.97733C186.12827 226.46262 184.11356 228.47733 181.62827 228.47733C179.14299 228.47733 177.12827 226.46262 177.12827 223.97733C177.12827 221.49205 179.14299 219.47733 181.62827 219.47733C184.11356 219.47733 186.12827 221.49205 186.12827 223.97733Z" fill-rule="nonzero"/><path fill="#980000" clip-path="url(#id_0)" d="M195.714 223.97733C195.714 226.46262 193.69928 228.47733 191.214 228.47733C188.72871 228.47733 186.714 226.46262 186.714 223.97733C186.714 221.49205 188.72871 219.47733 191.214 219.47733C193.69928 219.47733 195.714 221.49205 195.714 223.97733Z" fill-rule="nonzero"/><path fill="#980000" clip-path="url(#id_0)" d="M205.29973 217.47707C205.29973 219.96234 203.28502 221.97707 200.79973 221.97707C198.31445 221.97707 196.29973 219.96234 196.29973 217.47707C196.29973 214.99179 198.31445 212.97707 200.79973 212.97707C203.28502 212.97707 205.29973 214.99179 205.29973 217.47707Z" fill-rule="nonzero"/><path fill="#980000" clip-path="url(#id_0)" d="M214.88547 209.95628C214.88547 212.44157 212.87074 214.45628 210.38547 214.45628C207.90019 214.45628 205.88547 212.44157 205.88547 209.95628C205.88547 207.47101 207.90019 205.45628 210.38547 205.45628C212.87074 205.45628 214.88547 207.47101 214.88547 209.95628Z" fill-rule="nonzero"/><path fill="#980000" clip-path="url(#id_0)" d="M224.4712 205.92746C224.4712 208.41275 222.45648 210.42746 219.9712 210.42746C217.48592 210.42746 215.4712 208.41275 215.4712 205.92746C215.4712 203.44218 217.48592 201.42746 219.9712 201.42746C222.45648 201.42746 224.4712 203.44218 224.4712 205.92746Z" fill-rule="nonzero"/><path fill="#980000" clip-path="url(#id_0)" d="M234.05693 205.92746C234.05693 208.41275 232.04222 210.42746 229.55693 210.42746C227.07166 210.42746 225.05693 208.41275 225.05693 205.92746C225.05693 203.44218 227.07166 201.42746 229.55693 201.42746C232.04222 201.42746 234.05693 203.44218 234.05693 205.92746Z" fill-rule="nonzero"/><path fill="#980000" clip-path="url(#id_0)" d="M243.64267 195.61697C243.64267 198.10226 241.62794 200.11697 239.14267 200.11697C236.65738 200.11697 234.64267 198.10226 234.64267 195.61697C234.64267 193.1317 236.65738 191.11697 239.14267 191.11697C241.62794 191.11697 243.64267 193.1317 243.64267 195.61697Z" fill-rule="nonzero"/><path fill="#980000" clip-path="url(#id_0)" d="M253.2284 195.61697C253.2284 198.10226 251.21368 200.11697 248.7284 200.11697C246.24312 200.11697 244.2284 198.10226 244.2284 195.61697C244.2284 193.1317 246.24312 191.11697 248.7284 191.11697C251.21368 191.11697 253.2284 193.1317 253.2284 195.61697Z" fill-rule="nonzero"/><path fill="#980000" clip-path="url(#id_0)" d="M262.81415 195.61697C262.81415 198.10226 260.7994 200.11697 258.31415 200.11697C255.82886 200.11697 253.81413 198.10226 253.81413 195.61697C253.81413 193.1317 255.82886 191.11697 258.31415 191.11697C260.7994 191.11697 262.81415 193.1317 262.81415 195.61697Z" fill-rule="nonzero"/><path fill="#980000" clip-path="url(#id_0)" d="M272.39987 195.61697C272.39987 198.10226 270.38516 200.11697 267.89987 200.11697C265.41458 200.11697 263.39987 198.10226 263.39987 195.61697C263.39987 193.1317 265.41458 191.11697 267.89987 191.11697C270.38516 191.11697 272.39987 193.1317 272.39987 195.61697Z" fill-rule="nonzero"/><path fill="#980000" clip-path="url(#id_0)" d="M281.9856 188.2797C281.9856 190.76497 279.9709 192.7797 277.4856 192.7797C275.0003 192.7797 272.9856 190.76497 272.9856 188.2797C272.9856 185.7944 275.0003 183.7797 277.4856 183.7797C279.9709 183.7797 281.9856 185.7944 281.9856 188.2797Z" fill-rule="nonzero"/><path fill="#980000" clip-path="url(#id_0)" d="M291.57132 180.28433C291.57132 182.7696 289.5566 184.78433 287.07132 184.78433C284.58606 184.78433 282.57132 182.7696 282.57132 180.28433C282.57132 177.79904 284.58606 175.78433 287.07132 175.78433C289.5566 175.78433 291.57132 177.79904 291.57132 180.28433Z" fill-rule="nonzero"/><path fill="#980000" clip-path="url(#id_0)" d="M301.15707 170.97963C301.15707 173.46492 299.14233 175.47963 296.65707 175.47963C294.17178 175.47963 292.15707 173.46492 292.15707 170.97963C292.15707 168.49435 294.17178 166.47963 296.65707 166.47963C299.14233 166.47963 301.15707 168.49435 301.15707 170.97963Z" fill-rule="nonzero"/><path fill="#980000" clip-path="url(#id_0)" d="M310.7428 158.88069C310.7428 161.36598 308.7281 163.38069 306.2428 163.38069C303.7575 163.38069 301.7428 161.36598 301.7428 158.88069C301.7428 156.39542 303.7575 154.38069 306.2428 154.38069C308.7281 154.38069 310.7428 156.39542 310.7428 158.88069Z" fill-rule="nonzero"/><path fill="#980000" clip-path="url(#id_0)" d="M320.32852 158.88069C320.32852 161.36598 318.3138 163.38069 315.82852 163.38069C313.34326 163.38069 311.32852 161.36598 311.32852 158.88069C311.32852 156.39542 313.34326 154.38069 315.82852 154.38069C318.3138 154.38069 320.32852 156.39542 320.32852 158.88069Z" fill-rule="nonzero"/><path fill="#980000" clip-path="url(#id_0)" d="M329.91428 149.81386C329.91428 152.29913 327.89954 154.31386 325.41428 154.31386C322.929 154.31386 320.91428 152.29913 320.91428 149.81386C320.91428 147.32857 322.929 145.31386 325.41428 145.31386C327.89954 145.31386 329.91428 147.32857 329.91428 149.81386Z" fill-rule="nonzero"/><path fill="#980000" clip-path="url(#id_0)" d="M339.5 142.59549C339.5 145.08078 337.4853 147.09549 335.0 147.09549C332.5147 147.09549 330.5 145.08078 330.5 142.59549C330.5 140.11021 332.5147 138.09549 335.0 138.09549C337.4853 138.09549 339.5 140.11021 339.5 142.59549Z" fill-rule="nonzero"/><path fill="#980000" clip-path="url(#id_0)" d="M349.08572 142.59549C349.08572 145.08078 347.071 147.09549 344.58572 147.09549C342.10046 147.09549 340.08572 145.08078 340.08572 142.59549C340.08572 140.11021 342.10046 138.09549 344.58572 138.09549C347.071 138.09549 349.08572 140.11021 349.08572 142.59549Z" fill-rule="nonzero"/><path fill="#980000" clip-path="url(#id_0)" d="M358.67148 142.59549C358.67148 145.08078 356.65674 147.09549 354.17148 147.09549C351.6862 147.09549 349.67148 145.08078 349.67148 142.59549C349.67148 140.11021 351.6862 138.09549 354.17148 138.09549C356.65674 138.09549 358.67148 140.11021 358.67148 142.59549Z" fill-rule="nonzero"/><path fill="#980000" clip-path="url(#id_0)" d="M368.2572 142.59549C368.2572 145.08078 366.2425 147.09549 363.7572 147.09549C361.2719 147.09549 359.2572 145.08078 359.2572 142.59549C359.2572 140.11021 361.2719 138.09549 363.7572 138.09549C366.2425 138.09549 368.2572 140.11021 368.2572 142.59549Z" fill-rule="nonzero"/><path fill="#980000" clip-path="url(#id_0)" d="M377.84293 142.59549C377.84293 145.08078 375.82822 147.09549 373.34293 147.09549C370.85767 147.09549 368.84293 145.08078 368.84293 142.59549C368.84293 140.11021 370.85767 138.09549 373.34293 138.09549C375.82822 138.09549 377.84293 140.11021 377.84293 142.59549Z" fill-rule="nonzero"/><path fill="#980000" clip-path="url(#id_0)" d="M387.42868 136.59813C387.42868 139.0834 385.41394 141.09813 382.92868 141.09813C380.4434 141.09813 378.42868 139.0834 378.42868 136.59813C378.42868 134.11285 380.4434 132.09813 382.92868 132.09813C385.41394 132.09813 387.42868 134.11285 387.42868 136.59813Z" fill-rule="nonzero"/><path fill="#980000" clip-path="url(#id_0)" d="M397.0144 130.1896C397.0144 132.6749 394.9997 134.6896 392.5144 134.6896C390.0291 134.6896 388.0144 132.6749 388.0144 130.1896C388.0144 127.70433 390.0291 125.68961 392.5144 125.68961C394.9997 125.68961 397.0144 127.70433 397.0144 130.1896Z" fill-rule="nonzero"/><path fill="#980000" clip-path="url(#id_0)" d="M406.60013 130.1896C406.60013 132.6749 404.58542 134.6896 402.10013 134.6896C399.61484 134.6896 397.60013 132.6749 397.60013 130.1896C397.60013 127.70433 399.61484 125.68961 402.10013 125.68961C404.58542 125.68961 406.60013 127.70433 406.60013 130.1896Z" fill-rule="nonzero"/><path fill="#980000" clip-path="url(#id_0)" d="M416.18585 130.1896C416.18585 132.6749 414.17114 134.6896 411.68585 134.6896C409.2006 134.6896 407.18585 132.6749 407.18585 130.1896C407.18585 127.70433 409.2006 125.68961 411.68585 125.68961C414.17114 125.68961 416.18585 127.70433 416.18585 130.1896Z" fill-rule="nonzero"/><path fill="#980000" clip-path="url(#id_0)" d="M425.7716 128.70244C425.7716 131.18773 423.75687 133.20244 421.2716 133.20244C418.78632 133.20244 416.7716 131.18773 416.7716 128.70244C416.7716 126.21716 418.78632 124.202446 421.2716 124.202446C423.75687 124.202446 425.7716 126.21716 425.7716 128.70244Z" fill-rule="nonzero"/><path fill="#980000" clip-path="url(#id_0)" d="M435.35733 101.74997C435.35733 104.23525 433.34262 106.24997 430.85733 106.24997C428.37204 106.24997 426.35733 104.23525 426.35733 101.74997C426.35733 99.264694 428.37204 97.24997 430.85733 97.24997C433.34262 97.24997 435.35733 99.264694 435.35733 101.74997Z" fill-rule="nonzero"/><path fill="#980000" clip-path="url(#id_0)" d="M444.94305 101.74997C444.94305 104.23525 442.92834 106.24997 440.44305 106.24997C437.9578 106.24997 435.94305 104.23525 435.94305 101.74997C435.94305 99.264694 437.9578 97.24997 440.44305 97.24997C442.92834 97.24997 444.94305 99.264694 444.94305 101.74997Z" fill-rule="nonzero"/><path fill="#980000" clip-path="url(#id_0)" d="M454.5288 101.74997C454.5288 104.23525 452.51407 106.24997 450.0288 106.24997C447.54352 106.24997 445.5288 104.23525 445.5288 101.74997C445.5288 99.264694 447.54352 97.24997 450.0288 97.24997C452.51407 97.24997 454.5288 99.264694 454.5288 101.74997Z" fill-rule="nonzero"/><path fill="#980000" clip-path="url(#id_0)" d="M464.11453 101.74997C464.11453 104.23525 462.09982 106.24997 459.61453 106.24997C457.12924 106.24997 455.11453 104.23525 455.11453 101.74997C455.11453 99.264694 457.12924 97.24997 459.61453 97.24997C462.09982 97.24997 464.11453 99.264694 464.11453 101.74997Z" fill-rule="nonzero"/><path fill="#980000" clip-path="url(#id_0)" d="M473.70026 101.74997C473.70026 104.23525 471.68555 106.24997 469.20026 106.24997C466.715 106.24997 464.70026 104.23525 464.70026 101.74997C464.70026 99.264694 466.715 97.24997 469.20026 97.24997C471.68555 97.24997 473.70026 99.264694 473.70026 101.74997Z" fill-rule="nonzero"/><path fill="#980000" clip-path="url(#id_0)" d="M483.286 101.600464C483.286 104.08575 481.27127 106.100464 478.786 106.100464C476.30072 106.100464 474.286 104.08575 474.286 101.600464C474.286 99.11518 476.30072 97.100464 478.786 97.100464C481.27127 97.100464 483.286 99.11518 483.286 101.600464Z" fill-rule="nonzero"/><path fill="#980000" clip-path="url(#id_0)" d="M492.87173 101.500786C492.87173 103.98607 490.85703 106.000786 488.37173 106.000786C485.88644 106.000786 483.87173 103.98607 483.87173 101.500786C483.87173 99.01551 485.88644 97.000786 488.37173 97.000786C490.85703 97.000786 492.87173 99.01551 492.87173 101.500786Z" fill-rule="nonzero"/><path fill="#980000" clip-path="url(#id_0)" d="M502.45746 92.43848C502.45746 94.92376 500.44275 96.93848 497.95746 96.93848C495.4722 96.93848 493.45746 94.92376 493.45746 92.43848C493.45746 89.9532 495.4722 87.93848 497.95746 87.93848C500.44275 87.93848 502.45746 89.9532 502.45746 92.43848Z" fill-rule="nonzero"/><path fill="#980000" clip-path="url(#id_0)" d="M512.0432 92.43848C512.0432 94.92376 510.02847 96.93848 507.5432 96.93848C505.05792 96.93848 503.0432 94.92376 503.0432 92.43848C503.0432 89.9532 505.05792 87.93848 507.5432 87.93848C510.02847 87.93848 512.0432 89.9532 512.0432 92.43848Z" fill-rule="nonzero"/><path fill="#980000" clip-path="url(#id_0)" d="M521.6289 92.43848C521.6289 94.92376 519.6142 96.93848 517.1289 96.93848C514.6437 96.93848 512.6289 94.92376 512.6289 92.43848C512.6289 89.9532 514.6437 87.93848 517.1289 87.93848C519.6142 87.93848 521.6289 89.9532 521.6289 92.43848Z" fill-rule="nonzero"/><path fill="#980000" clip-path="url(#id_0)" d="M531.21466 91.84724C531.21466 94.33252 529.19995 96.34724 526.71466 96.34724C524.2294 96.34724 522.21466 94.33252 522.21466 91.84724C522.21466 89.36195 524.2294 87.34724 526.71466 87.34724C529.19995 87.34724 531.21466 89.36195 531.21466 91.84724Z" fill-rule="nonzero"/><path fill="#980000" clip-path="url(#id_0)" d="M540.8004 91.84724C540.8004 94.33252 538.7857 96.34724 536.3004 96.34724C533.8151 96.34724 531.8004 94.33252 531.8004 91.84724C531.8004 89.36195 533.8151 87.34724 536.3004 87.34724C538.7857 87.34724 540.8004 89.36195 540.8004 91.84724Z" fill-rule="nonzero"/><path fill="#980000" clip-path="url(#id_0)" d="M550.3861 82.8812C550.3861 85.366486 548.3714 87.3812 545.8861 87.3812C543.4009 87.3812 541.3861 85.366486 541.3861 82.8812C541.3861 80.39592 543.4009 78.3812 545.8861 78.3812C548.3714 78.3812 550.3861 80.39592 550.3861 82.8812Z" fill-rule="nonzero"/><path fill="#980000" clip-path="url(#id_0)" d="M559.97186 79.3111C559.97186 81.79638 557.95715 83.8111 555.47186 83.8111C552.9866 83.8111 550.97186 81.79638 550.97186 79.3111C550.97186 76.82581 552.9866 74.8111 555.47186 74.8111C557.95715 74.8111 559.97186 76.82581 559.97186 79.3111Z" fill-rule="nonzero"/><path fill="#980000" clip-path="url(#id_0)" d="M569.5576 74.672905C569.5576 77.15819 567.5429 79.172905 565.0576 79.172905C562.5723 79.172905 560.5576 77.15819 560.5576 74.672905C560.5576 72.18763 562.5723 70.172905 565.0576 70.172905C567.5429 70.172905 569.5576 72.18763 569.5576 74.672905Z" fill-rule="nonzero"/><path fill="#980000" clip-path="url(#id_0)" d="M579.1433 71.91491C579.1433 74.40019 577.1286 76.41491 574.6433 76.41491C572.1581 76.41491 570.1433 74.40019 570.1433 71.91491C570.1433 69.429634 572.1581 67.41491 574.6433 67.41491C577.1286 67.41491 579.1433 69.429634 579.1433 71.91491Z" fill-rule="nonzero"/><path fill="#000000" d="M297.09375 340.15314L299.14062 340.15314L299.14062 341.3719Q299.53125 340.7469 300.20312 340.35626Q300.89062 339.96564 301.71875 339.96564Q303.17188 339.96564 304.17188 341.10626Q305.1875 342.23126 305.1875 344.2469Q305.1875 346.325 304.17188 347.48126Q303.15625 348.6375 301.70312 348.6375Q301.01562 348.6375 300.45312 348.3719Q299.90625 348.09064 299.28125 347.41876L299.28125 351.60626L297.09375 351.60626L297.09375 340.15314ZM299.26562 344.15314Q299.26562 345.5594 299.8125 346.23126Q300.375 346.8875 301.17188 346.8875Q301.9375 346.8875 302.4375 346.27814Q302.95312 345.66876 302.95312 344.2625Q302.95312 342.96564 302.42188 342.34064Q301.90625 341.7 301.125 341.7Q300.32812 341.7 299.79688 342.325Q299.26562 342.9344 299.26562 344.15314ZM306.64062 344.1844Q306.64062 343.09064 307.17188 342.075Q307.71875 341.04376 308.70312 340.5125Q309.70312 339.96564 310.92188 339.96564Q312.79688 339.96564 314.0 341.1844Q315.20312 342.40314 315.20312 344.27814Q315.20312 346.15314 313.98438 347.40314Q312.78125 348.6375 310.9375 348.6375Q309.79688 348.6375 308.75 348.1219Q307.71875 347.60626 307.17188 346.60626Q306.64062 345.60626 306.64062 344.1844ZM308.89062 344.29376Q308.89062 345.52814 309.46875 346.1844Q310.0625 346.84064 310.92188 346.84064Q311.78125 346.84064 312.35938 346.1844Q312.95312 345.52814 312.95312 344.27814Q312.95312 343.0594 312.35938 342.40314Q311.78125 341.7469 310.92188 341.7469Q310.0625 341.7469 309.46875 342.40314Q308.89062 343.0594 308.89062 344.29376ZM324.76562 348.45L322.71875 348.45L322.71875 347.23126Q322.21875 347.9344 321.51562 348.29376Q320.82812 348.6375 320.125 348.6375Q318.70312 348.6375 317.67188 347.48126Q316.65625 346.325 316.65625 344.2625Q316.65625 342.15314 317.64062 341.0594Q318.64062 339.96564 320.15625 339.96564Q321.54688 339.96564 322.5625 341.1219L322.5625 336.9969L324.76562 336.9969L324.76562 348.45ZM318.90625 344.1219Q318.90625 345.45 319.26562 346.04376Q319.79688 346.90314 320.75 346.90314Q321.51562 346.90314 322.04688 346.2625Q322.57812 345.60626 322.57812 344.325Q322.57812 342.90314 322.0625 342.27814Q321.54688 341.6375 320.73438 341.6375Q319.95312 341.6375 319.42188 342.2625Q318.90625 342.8875 318.90625 344.1219ZM338.39062 342.60626L336.21875 342.9969Q336.10938 342.34064 335.71875 342.0125Q335.34375 341.6844 334.71875 341.6844Q333.90625 341.6844 333.40625 342.2625Q332.92188 342.825 332.92188 344.15314Q332.92188 345.6219 333.42188 346.23126Q333.92188 346.84064 334.75 346.84064Q335.375 346.84064 335.76562 346.4969Q336.17188 346.1375 336.34375 345.2625L338.5 345.6375Q338.15625 347.1219 337.20312 347.8875Q336.25 348.6375 334.65625 348.6375Q332.82812 348.6375 331.75 347.4969Q330.67188 346.34064 330.67188 344.3094Q330.67188 342.2469 331.75 341.10626Q332.84375 339.96564 334.6875 339.96564Q336.20312 339.96564 337.09375 340.6219Q338.0 341.2625 338.39062 342.60626ZM339.64062 344.1844Q339.64062 343.09064 340.17188 342.075Q340.71875 341.04376 341.70312 340.5125Q342.70312 339.96564 343.92188 339.96564Q345.79688 339.96564 347.0 341.1844Q348.20312 342.40314 348.20312 344.27814Q348.20312 346.15314 346.98438 347.40314Q345.78125 348.6375 343.9375 348.6375Q342.79688 348.6375 341.75 348.1219Q340.71875 347.60626 340.17188 346.60626Q339.64062 345.60626 339.64062 344.1844ZM341.89062 344.29376Q341.89062 345.52814 342.46875 346.1844Q343.0625 346.84064 343.92188 346.84064Q344.78125 346.84064 345.35938 346.1844Q345.95312 345.52814 345.95312 344.27814Q345.95312 343.0594 345.35938 342.40314Q344.78125 341.7469 343.92188 341.7469Q343.0625 341.7469 342.46875 342.40314Q341.89062 343.0594 341.89062 344.29376ZM355.60938 348.45L355.60938 347.2Q355.15625 347.8719 354.42188 348.2625Q353.6875 348.6375 352.85938 348.6375Q352.03125 348.6375 351.35938 348.27814Q350.70312 347.90314 350.40625 347.2469Q350.10938 346.575 350.10938 345.40314L350.10938 340.15314L352.29688 340.15314L352.29688 343.96564Q352.29688 345.71564 352.42188 346.10626Q352.54688 346.4969 352.85938 346.73126Q353.1875 346.96564 353.67188 346.96564Q354.23438 346.96564 354.67188 346.65314Q355.125 346.34064 355.28125 345.8875Q355.45312 345.4344 355.45312 343.65314L355.45312 340.15314L357.65625 340.15314L357.65625 348.45L355.60938 348.45ZM367.70312 348.45L365.5 348.45L365.5 344.21564Q365.5 342.8719 365.35938 342.48126Q365.21875 342.075 364.90625 341.85626Q364.59375 341.6375 364.14062 341.6375Q363.57812 341.6375 363.125 341.95Q362.67188 342.2625 362.5 342.77814Q362.32812 343.29376 362.32812 344.6844L362.32812 348.45L360.14062 348.45L360.14062 340.15314L362.17188 340.15314L362.17188 341.3719Q363.26562 339.96564 364.90625 339.96564Q365.64062 339.96564 366.23438 340.23126Q366.84375 340.48126 367.14062 340.8875Q367.45312 341.29376 367.57812 341.8094Q367.70312 342.325 367.70312 343.29376L367.70312 348.45ZM373.95312 340.15314L373.95312 341.90314L372.45312 341.90314L372.45312 345.2469Q372.45312 346.2625 372.5 346.4344Q372.54688 346.59064 372.6875 346.7Q372.84375 346.8094 373.0625 346.8094Q373.375 346.8094 373.95312 346.60626L374.14062 348.3094Q373.375 348.6375 372.40625 348.6375Q371.8125 348.6375 371.32812 348.4344Q370.85938 348.23126 370.625 347.91876Q370.40625 347.60626 370.32812 347.0594Q370.25 346.6844 370.25 345.5125L370.25 341.90314L369.25 341.90314L369.25 340.15314L370.25 340.15314L370.25 338.4969L372.45312 337.21564L372.45312 340.15314L373.95312 340.15314Z" fill-rule="nonzero"/><path fill="#000000" d="M29.331263 184.68333L27.409388 184.68333L27.409388 179.69896L31.971888 179.69896Q32.67501 180.43333 33.221886 181.80833Q33.753136 183.18333 33.753136 184.60521Q33.753136 186.40208 33.003136 187.74583Q32.23751 189.07396 30.831263 189.74583Q29.425013 190.41771 27.784388 190.41771Q25.987513 190.41771 24.596888 189.66771Q23.206263 188.91771 22.471888 187.46458Q21.893763 186.37083 21.893763 184.73021Q21.893763 182.58958 22.800013 181.40208Q23.690638 180.19896 25.268763 179.85521L25.690638 182.15208Q24.846888 182.38646 24.362513 183.05833Q23.878138 183.73021 23.878138 184.73021Q23.878138 186.24583 24.846888 187.13646Q25.800013 188.02708 27.690638 188.02708Q29.721888 188.02708 30.753138 187.12083Q31.768763 186.21458 31.768763 184.74583Q31.768763 184.02708 31.487513 183.29271Q31.190638 182.55833 30.784388 182.04271L29.331263 182.04271L29.331263 184.68333ZM24.128138 178.02708L22.096888 178.02708L22.096888 175.83958L24.128138 175.83958L24.128138 178.02708ZM33.55001 178.02708L25.253138 178.02708L25.253138 175.83958L33.55001 175.83958L33.55001 178.02708ZM22.096888 174.01146L22.096888 169.43333Q22.096888 168.07396 22.206263 167.40208Q22.315638 166.73021 22.675013 166.21458Q23.034388 165.68333 23.643763 165.33958Q24.237513 164.98021 24.971888 164.98021Q25.784388 164.98021 26.456263 165.41771Q27.128138 165.83958 27.456263 166.58958Q27.768763 165.54271 28.503138 164.98021Q29.237513 164.41771 30.221888 164.41771Q31.003138 164.41771 31.753138 164.77708Q32.48751 165.13646 32.92501 165.77708Q33.36251 166.40208 33.471886 167.32396Q33.534386 167.90208 33.55001 170.10521L33.55001 174.01146L22.096888 174.01146ZM24.003138 171.69896L26.643763 171.69896L26.643763 170.18333Q26.643763 168.82396 26.612513 168.49583Q26.534388 167.90208 26.206263 167.57396Q25.862513 167.23021 25.300013 167.23021Q24.768763 167.23021 24.440638 167.52708Q24.112513 167.80833 24.034388 168.38646Q24.003138 168.73021 24.003138 170.37083L24.003138 171.69896ZM28.550013 171.69896L31.612513 171.69896L31.612513 169.55833Q31.612513 168.30833 31.550013 167.96458Q31.456263 167.44896 31.096888 167.13646Q30.721888 166.80833 30.112513 166.80833Q29.596888 166.80833 29.237513 167.05833Q28.878138 167.30833 28.721888 167.77708Q28.550013 168.24583 28.550013 169.82396L28.550013 171.69896Z" fill-rule="nonzero"/><path fill="#000000" d="M66.05 289.21564Q66.05 287.6844 66.3625 286.7625Q66.675 285.825 67.28438 285.325Q67.90938 284.825 68.84688 284.825Q69.53438 284.825 70.05 285.10626Q70.58125 285.3875 70.925 285.91876Q71.26875 286.4344 71.45625 287.1844Q71.64375 287.9344 71.64375 289.21564Q71.64375 290.73126 71.33125 291.65314Q71.03438 292.575 70.40938 293.09064Q69.8 293.59064 68.84688 293.59064Q67.6125 293.59064 66.89375 292.7Q66.05 291.6375 66.05 289.21564ZM67.12813 289.21564Q67.12813 291.325 67.62813 292.02814Q68.12813 292.73126 68.84688 292.73126Q69.58125 292.73126 70.06563 292.02814Q70.56563 291.325 70.56563 289.21564Q70.56563 287.09064 70.06563 286.40314Q69.58125 285.7 68.83125 285.7Q68.1125 285.7 67.675 286.3094Q67.12813 287.09064 67.12813 289.21564ZM73.64375 293.45L73.64375 292.2469L74.84688 292.2469L74.84688 293.45L73.64375 293.45ZM76.05 289.21564Q76.05 287.6844 76.3625 286.7625Q76.675 285.825 77.28438 285.325Q77.90938 284.825 78.84688 284.825Q79.53438 284.825 80.05 285.10626Q80.58125 285.3875 80.925 285.91876Q81.26875 286.4344 81.45625 287.1844Q81.64375 287.9344 81.64375 289.21564Q81.64375 290.73126 81.33125 291.65314Q81.03438 292.575 80.40938 293.09064Q79.8 293.59064 78.84688 293.59064Q77.6125 293.59064 76.89375 292.7Q76.05 291.6375 76.05 289.21564ZM77.12813 289.21564Q77.12813 291.325 77.62813 292.02814Q78.12813 292.73126 78.84688 292.73126Q79.58125 292.73126 80.06563 292.02814Q80.56563 291.325 80.56563 289.21564Q80.56563 287.09064 80.06563 286.40314Q79.58125 285.7 78.83125 285.7Q78.1125 285.7 77.675 286.3094Q77.12813 287.09064 77.12813 289.21564Z" fill-rule="nonzero"/><path fill="#000000" d="M66.05 229.83229Q66.05 228.30104 66.3625 227.37917Q66.675 226.44167 67.28438 225.94167Q67.90938 225.44167 68.84688 225.44167Q69.53438 225.44167 70.05 225.72292Q70.58125 226.00417 70.925 226.53542Q71.26875 227.05104 71.45625 227.80104Q71.64375 228.55104 71.64375 229.83229Q71.64375 231.34792 71.33125 232.26979Q71.03438 233.19167 70.40938 233.70729Q69.8 234.20729 68.84688 234.20729Q67.6125 234.20729 66.89375 233.31667Q66.05 232.25417 66.05 229.83229ZM67.12813 229.83229Q67.12813 231.94167 67.62813 232.64479Q68.12813 233.34792 68.84688 233.34792Q69.58125 233.34792 70.06563 232.64479Q70.56563 231.94167 70.56563 229.83229Q70.56563 227.70729 70.06563 227.01979Q69.58125 226.31667 68.83125 226.31667Q68.1125 226.31667 67.675 226.92604Q67.12813 227.70729 67.12813 229.83229ZM73.64375 234.06667L73.64375 232.86354L74.84688 232.86354L74.84688 234.06667L73.64375 234.06667ZM81.59688 233.05104L81.59688 234.06667L75.90938 234.06667Q75.90938 233.69167 76.03438 233.33229Q76.25313 232.75417 76.72188 232.19167Q77.20625 231.62917 78.1125 230.89479Q79.51875 229.73854 80.00313 229.06667Q80.50313 228.39479 80.50313 227.80104Q80.50313 227.17604 80.05 226.75417Q79.59688 226.31667 78.87813 226.31667Q78.1125 226.31667 77.65938 226.76979Q77.20625 227.22292 77.19063 228.03542L76.1125 227.92604Q76.22188 226.70729 76.94063 226.08229Q77.675 225.44167 78.90938 225.44167Q80.14375 225.44167 80.8625 226.12917Q81.58125 226.81667 81.58125 227.83229Q81.58125 228.34792 81.3625 228.84792Q81.15938 229.33229 80.65938 229.89479Q80.175 230.44167 79.05 231.39479Q78.09688 232.19167 77.81563 232.48854Q77.55 232.76979 77.37813 233.05104L81.59688 233.05104Z" fill-rule="nonzero"/><path fill="#000000" d="M66.05 170.44896Q66.05 168.91771 66.3625 167.99583Q66.675 167.05833 67.28438 166.55833Q67.90938 166.05833 68.84688 166.05833Q69.53438 166.05833 70.05 166.33958Q70.58125 166.62083 70.925 167.15208Q71.26875 167.66771 71.45625 168.41771Q71.64375 169.16771 71.64375 170.44896Q71.64375 171.96458 71.33125 172.88646Q71.03438 173.80833 70.40938 174.32396Q69.8 174.82396 68.84688 174.82396Q67.6125 174.82396 66.89375 173.93333Q66.05 172.87083 66.05 170.44896ZM67.12813 170.44896Q67.12813 172.55833 67.62813 173.26146Q68.12813 173.96458 68.84688 173.96458Q69.58125 173.96458 70.06563 173.26146Q70.56563 172.55833 70.56563 170.44896Q70.56563 168.32396 70.06563 167.63646Q69.58125 166.93333 68.83125 166.93333Q68.1125 166.93333 67.675 167.54271Q67.12813 168.32396 67.12813 170.44896ZM73.64375 174.68333L73.64375 173.48021L74.84688 173.48021L74.84688 174.68333L73.64375 174.68333ZM79.425 174.68333L79.425 172.62083L75.70625 172.62083L75.70625 171.65208L79.62813 166.08958L80.4875 166.08958L80.4875 171.65208L81.64375 171.65208L81.64375 172.62083L80.4875 172.62083L80.4875 174.68333L79.425 174.68333ZM79.425 171.65208L79.425 167.79271L76.7375 171.65208L79.425 171.65208Z" fill-rule="nonzero"/><path fill="#000000" d="M66.05 111.06563Q66.05 109.53438 66.3625 108.6125Q66.675 107.675 67.28438 107.175Q67.90938 106.675 68.84688 106.675Q69.53438 106.675 70.05 106.95625Q70.58125 107.2375 70.925 107.76875Q71.26875 108.28438 71.45625 109.03438Q71.64375 109.78438 71.64375 111.06563Q71.64375 112.58125 71.33125 113.50313Q71.03438 114.425 70.40938 114.94063Q69.8 115.44063 68.84688 115.44063Q67.6125 115.44063 66.89375 114.55Q66.05 113.4875 66.05 111.06563ZM67.12813 111.06563Q67.12813 113.175 67.62813 113.87813Q68.12813 114.58125 68.84688 114.58125Q69.58125 114.58125 70.06563 113.87813Q70.56563 113.175 70.56563 111.06563Q70.56563 108.94063 70.06563 108.25313Q69.58125 107.55 68.83125 107.55Q68.1125 107.55 67.675 108.15938Q67.12813 108.94063 67.12813 111.06563ZM73.64375 115.3L73.64375 114.09688L74.84688 114.09688L74.84688 115.3L73.64375 115.3ZM81.51875 108.81563L80.47188 108.89375Q80.33125 108.26875 80.08125 107.9875Q79.64375 107.53438 79.01875 107.53438Q78.51875 107.53438 78.12813 107.81563Q77.64375 108.19063 77.34688 108.89375Q77.06563 109.58125 77.05 110.8625Q77.425 110.28438 77.97188 110.00313Q78.53438 109.72188 79.14375 109.72188Q80.19063 109.72188 80.925 110.50313Q81.675 111.28438 81.675 112.50313Q81.675 113.31563 81.31563 114.01875Q80.97188 114.70625 80.3625 115.08125Q79.75313 115.44063 78.9875 115.44063Q77.65938 115.44063 76.83125 114.47188Q76.00313 113.50313 76.00313 111.28438Q76.00313 108.78438 76.925 107.65938Q77.72188 106.675 79.08125 106.675Q80.09688 106.675 80.7375 107.25313Q81.39375 107.81563 81.51875 108.81563ZM77.22188 112.51875Q77.22188 113.06563 77.44063 113.56563Q77.675 114.05 78.08125 114.31563Q78.50313 114.58125 78.97188 114.58125Q79.62813 114.58125 80.1125 114.05Q80.59688 113.50313 80.59688 112.58125Q80.59688 111.69063 80.1125 111.175Q79.64375 110.65938 78.925 110.65938Q78.20625 110.65938 77.70625 111.175Q77.22188 111.69063 77.22188 112.51875Z" fill-rule="nonzero"/><path fill="#000000" d="M66.05 51.682293Q66.05 50.151043 66.3625 49.229168Q66.675 48.291668 67.28438 47.791668Q67.90938 47.291668 68.84688 47.291668Q69.53438 47.291668 70.05 47.572918Q70.58125 47.854168 70.925 48.385418Q71.26875 48.901043 71.45625 49.651043Q71.64375 50.401043 71.64375 51.682293Q71.64375 53.197918 71.33125 54.119793Q71.03438 55.041668 70.40938 55.557293Q69.8 56.057293 68.84688 56.057293Q67.6125 56.057293 66.89375 55.166668Q66.05 54.104168 66.05 51.682293ZM67.12813 51.682293Q67.12813 53.791668 67.62813 54.494793Q68.12813 55.197918 68.84688 55.197918Q69.58125 55.197918 70.06563 54.494793Q70.56563 53.791668 70.56563 51.682293Q70.56563 49.557293 70.06563 48.869793Q69.58125 48.166668 68.83125 48.166668Q68.1125 48.166668 67.675 48.776043Q67.12813 49.557293 67.12813 51.682293ZM73.64375 55.916668L73.64375 54.713543L74.84688 54.713543L74.84688 55.916668L73.64375 55.916668ZM77.675 51.260418Q77.01875 51.010418 76.69063 50.572918Q76.37813 50.119793 76.37813 49.510418Q76.37813 48.572918 77.05 47.932293Q77.7375 47.291668 78.84688 47.291668Q79.97188 47.291668 80.65938 47.947918Q81.34688 48.604168 81.34688 49.541668Q81.34688 50.135418 81.03438 50.572918Q80.72188 51.010418 80.08125 51.260418Q80.87813 51.510418 81.28438 52.088543Q81.69063 52.666668 81.69063 53.463543Q81.69063 54.557293 80.90938 55.307293Q80.14375 56.057293 78.8625 56.057293Q77.59688 56.057293 76.81563 55.307293Q76.03438 54.557293 76.03438 53.432293Q76.03438 52.588543 76.45625 52.026043Q76.89375 51.463543 77.675 51.260418ZM77.45625 49.463543Q77.45625 50.072918 77.84688 50.463543Q78.25313 50.854168 78.87813 50.854168Q79.4875 50.854168 79.87813 50.479168Q80.26875 50.088543 80.26875 49.526043Q80.26875 48.947918 79.8625 48.557293Q79.45625 48.151043 78.8625 48.151043Q78.25313 48.151043 77.84688 48.541668Q77.45625 48.932293 77.45625 49.463543ZM77.12813 53.432293Q77.12813 53.885418 77.33125 54.307293Q77.55 54.729168 77.97188 54.963543Q78.39375 55.197918 78.87813 55.197918Q79.62813 55.197918 80.1125 54.713543Q80.6125 54.229168 80.6125 53.479168Q80.6125 52.713543 80.1125 52.213543Q79.6125 51.713543 78.84688 51.713543Q78.09688 51.713543 77.6125 52.213543Q77.12813 52.697918 77.12813 53.432293Z" fill-rule="nonzero"/><path fill="#000000" d="M92.35667 302.21564Q92.35667 300.6844 92.66917 299.7625Q92.98167 298.825 93.59104 298.325Q94.21604 297.825 95.15354 297.825Q95.84104 297.825 96.35667 298.10626Q96.88792 298.3875 97.23167 298.91876Q97.57542 299.4344 97.76292 300.1844Q97.95042 300.9344 97.95042 302.21564Q97.95042 303.73126 97.63792 304.65314Q97.34104 305.575 96.71604 306.09064Q96.10667 306.59064 95.15354 306.59064Q93.91917 306.59064 93.20042 305.7Q92.35667 304.6375 92.35667 302.21564ZM93.43479 302.21564Q93.43479 304.325 93.93479 305.02814Q94.43479 305.73126 95.15354 305.73126Q95.88792 305.73126 96.37229 305.02814Q96.87229 304.325 96.87229 302.21564Q96.87229 300.09064 96.37229 299.40314Q95.88792 298.7 95.13792 298.7Q94.41917 298.7 93.98167 299.3094Q93.43479 300.09064 93.43479 302.21564Z" fill-rule="nonzero"/><path fill="#000000" d="M210.7252 305.4344L210.7252 306.45L205.0377 306.45Q205.0377 306.075 205.1627 305.71564Q205.38145 305.1375 205.8502 304.575Q206.33458 304.0125 207.24083 303.27814Q208.64708 302.1219 209.13145 301.45Q209.63145 300.77814 209.63145 300.1844Q209.63145 299.5594 209.17833 299.1375Q208.7252 298.7 208.00645 298.7Q207.24083 298.7 206.7877 299.15314Q206.33458 299.60626 206.31895 300.41876L205.24083 300.3094Q205.3502 299.09064 206.06895 298.46564Q206.80333 297.825 208.0377 297.825Q209.27208 297.825 209.99083 298.5125Q210.70958 299.2 210.70958 300.21564Q210.70958 300.73126 210.49083 301.23126Q210.2877 301.71564 209.7877 302.27814Q209.30333 302.825 208.17833 303.77814Q207.2252 304.575 206.94395 304.8719Q206.67833 305.15314 206.50645 305.4344L210.7252 305.4344ZM212.17833 304.2L213.2877 304.10626Q213.4127 304.91876 213.8502 305.325Q214.30333 305.73126 214.94395 305.73126Q215.69395 305.73126 216.2252 305.15314Q216.75645 304.575 216.75645 303.6375Q216.75645 302.73126 216.24083 302.21564Q215.74083 301.6844 214.9127 301.6844Q214.4127 301.6844 213.99083 301.91876Q213.58458 302.15314 213.3502 302.5125L212.36583 302.3875L213.19395 297.98126L217.4752 297.98126L217.4752 298.98126L214.0377 298.98126L213.58458 301.29376Q214.3502 300.7469 215.19395 300.7469Q216.31895 300.7469 217.08458 301.52814Q217.86583 302.3094 217.86583 303.54376Q217.86583 304.7 217.19395 305.5594Q216.36583 306.59064 214.94395 306.59064Q213.77208 306.59064 213.02208 305.9344Q212.2877 305.27814 212.17833 304.2ZM219.17833 302.21564Q219.17833 300.6844 219.49083 299.7625Q219.80333 298.825 220.4127 298.325Q221.0377 297.825 221.9752 297.825Q222.6627 297.825 223.17833 298.10626Q223.70958 298.3875 224.05333 298.91876Q224.39708 299.4344 224.58458 300.1844Q224.77208 300.9344 224.77208 302.21564Q224.77208 303.73126 224.45958 304.65314Q224.1627 305.575 223.5377 306.09064Q222.92833 306.59064 221.9752 306.59064Q220.74083 306.59064 220.02208 305.7Q219.17833 304.6375 219.17833 302.21564ZM220.25645 302.21564Q220.25645 304.325 220.75645 305.02814Q221.25645 305.73126 221.9752 305.73126Q222.70958 305.73126 223.19395 305.02814Q223.69395 304.325 223.69395 302.21564Q223.69395 300.09064 223.19395 299.40314Q222.70958 298.7 221.95958 298.7Q221.24083 298.7 220.80333 299.3094Q220.25645 300.09064 220.25645 302.21564Z" fill-rule="nonzero"/><path fill="#000000" d="M325.0 304.2L326.10938 304.10626Q326.23438 304.91876 326.67188 305.325Q327.125 305.73126 327.76562 305.73126Q328.51562 305.73126 329.04688 305.15314Q329.57812 304.575 329.57812 303.6375Q329.57812 302.73126 329.0625 302.21564Q328.5625 301.6844 327.73438 301.6844Q327.23438 301.6844 326.8125 301.91876Q326.40625 302.15314 326.17188 302.5125L325.1875 302.3875L326.01562 297.98126L330.29688 297.98126L330.29688 298.98126L326.85938 298.98126L326.40625 301.29376Q327.17188 300.7469 328.01562 300.7469Q329.14062 300.7469 329.90625 301.52814Q330.6875 302.3094 330.6875 303.54376Q330.6875 304.7 330.01562 305.5594Q329.1875 306.59064 327.76562 306.59064Q326.59375 306.59064 325.84375 305.9344Q325.10938 305.27814 325.0 304.2ZM332.0 302.21564Q332.0 300.6844 332.3125 299.7625Q332.625 298.825 333.23438 298.325Q333.85938 297.825 334.79688 297.825Q335.48438 297.825 336.0 298.10626Q336.53125 298.3875 336.875 298.91876Q337.21875 299.4344 337.40625 300.1844Q337.59375 300.9344 337.59375 302.21564Q337.59375 303.73126 337.28125 304.65314Q336.98438 305.575 336.35938 306.09064Q335.75 306.59064 334.79688 306.59064Q333.5625 306.59064 332.84375 305.7Q332.0 304.6375 332.0 302.21564ZM333.07812 302.21564Q333.07812 304.325 333.57812 305.02814Q334.07812 305.73126 334.79688 305.73126Q335.53125 305.73126 336.01562 305.02814Q336.51562 304.325 336.51562 302.21564Q336.51562 300.09064 336.01562 299.40314Q335.53125 298.7 334.78125 298.7Q334.0625 298.7 333.625 299.3094Q333.07812 300.09064 333.07812 302.21564ZM339.0 302.21564Q339.0 300.6844 339.3125 299.7625Q339.625 298.825 340.23438 298.325Q340.85938 297.825 341.79688 297.825Q342.48438 297.825 343.0 298.10626Q343.53125 298.3875 343.875 298.91876Q344.21875 299.4344 344.40625 300.1844Q344.59375 300.9344 344.59375 302.21564Q344.59375 303.73126 344.28125 304.65314Q343.98438 305.575 343.35938 306.09064Q342.75 306.59064 341.79688 306.59064Q340.5625 306.59064 339.84375 305.7Q339.0 304.6375 339.0 302.21564ZM340.07812 302.21564Q340.07812 304.325 340.57812 305.02814Q341.07812 305.73126 341.79688 305.73126Q342.53125 305.73126 343.01562 305.02814Q343.51562 304.325 343.51562 302.21564Q343.51562 300.09064 343.01562 299.40314Q342.53125 298.7 341.78125 298.7Q341.0625 298.7 340.625 299.3094Q340.07812 300.09064 340.07812 302.21564Z" fill-rule="nonzero"/><path fill="#000000" d="M444.88416 298.98126L444.88416 297.96564L450.44666 297.96564L450.44666 298.79376Q449.63416 299.66876 448.82166 301.1219Q448.02478 302.5594 447.58728 304.09064Q447.25916 305.16876 447.18103 306.45L446.08728 306.45Q446.1029 305.4344 446.4779 303.9969Q446.86853 302.5594 447.57166 301.23126Q448.2904 299.90314 449.1029 298.98126L444.88416 298.98126ZM451.82166 304.2L452.93103 304.10626Q453.05603 304.91876 453.49353 305.325Q453.94666 305.73126 454.58728 305.73126Q455.33728 305.73126 455.86853 305.15314Q456.39978 304.575 456.39978 303.6375Q456.39978 302.73126 455.88416 302.21564Q455.38416 301.6844 454.55603 301.6844Q454.05603 301.6844 453.63416 301.91876Q453.2279 302.15314 452.99353 302.5125L452.00916 302.3875L452.83728 297.98126L457.11853 297.98126L457.11853 298.98126L453.68103 298.98126L453.2279 301.29376Q453.99353 300.7469 454.83728 300.7469Q455.96228 300.7469 456.7279 301.52814Q457.50916 302.3094 457.50916 303.54376Q457.50916 304.7 456.83728 305.5594Q456.00916 306.59064 454.58728 306.59064Q453.4154 306.59064 452.6654 305.9344Q451.93103 305.27814 451.82166 304.2ZM458.82166 302.21564Q458.82166 300.6844 459.13416 299.7625Q459.44666 298.825 460.05603 298.325Q460.68103 297.825 461.61853 297.825Q462.30603 297.825 462.82166 298.10626Q463.3529 298.3875 463.69666 298.91876Q464.0404 299.4344 464.2279 300.1844Q464.4154 300.9344 464.4154 302.21564Q464.4154 303.73126 464.1029 304.65314Q463.80603 305.575 463.18103 306.09064Q462.57166 306.59064 461.61853 306.59064Q460.38416 306.59064 459.6654 305.7Q458.82166 304.6375 458.82166 302.21564ZM459.89978 302.21564Q459.89978 304.325 460.39978 305.02814Q460.89978 305.73126 461.61853 305.73126Q462.3529 305.73126 462.83728 305.02814Q463.33728 304.325 463.33728 302.21564Q463.33728 300.09064 462.83728 299.40314Q462.3529 298.7 461.6029 298.7Q460.88416 298.7 460.44666 299.3094Q459.89978 300.09064 459.89978 302.21564Z" fill-rule="nonzero"/><path fill="#000000" d="M565.11206 306.45L564.0652 306.45L564.0652 299.73126Q563.67456 300.09064 563.04956 300.46564Q562.4402 300.825 561.9558 300.9969L561.9558 299.98126Q562.8308 299.5594 563.48706 298.98126Q564.15894 298.3875 564.4402 297.825L565.11206 297.825L565.11206 306.45ZM568.1433 302.21564Q568.1433 300.6844 568.4558 299.7625Q568.7683 298.825 569.3777 298.325Q570.0027 297.825 570.9402 297.825Q571.6277 297.825 572.1433 298.10626Q572.67456 298.3875 573.0183 298.91876Q573.36206 299.4344 573.54956 300.1844Q573.73706 300.9344 573.73706 302.21564Q573.73706 303.73126 573.42456 304.65314Q573.1277 305.575 572.5027 306.09064Q571.8933 306.59064 570.9402 306.59064Q569.7058 306.59064 568.98706 305.7Q568.1433 304.6375 568.1433 302.21564ZM569.22144 302.21564Q569.22144 304.325 569.72144 305.02814Q570.22144 305.73126 570.9402 305.73126Q571.67456 305.73126 572.15894 305.02814Q572.65894 304.325 572.65894 302.21564Q572.65894 300.09064 572.15894 299.40314Q571.67456 298.7 570.92456 298.7Q570.2058 298.7 569.7683 299.3094Q569.22144 300.09064 569.22144 302.21564ZM575.1433 302.21564Q575.1433 300.6844 575.4558 299.7625Q575.7683 298.825 576.3777 298.325Q577.0027 297.825 577.9402 297.825Q578.6277 297.825 579.1433 298.10626Q579.67456 298.3875 580.0183 298.91876Q580.36206 299.4344 580.54956 300.1844Q580.73706 300.9344 580.73706 302.21564Q580.73706 303.73126 580.42456 304.65314Q580.1277 305.575 579.5027 306.09064Q578.8933 306.59064 577.9402 306.59064Q576.7058 306.59064 575.98706 305.7Q575.1433 304.6375 575.1433 302.21564ZM576.22144 302.21564Q576.22144 304.325 576.72144 305.02814Q577.22144 305.73126 577.9402 305.73126Q578.67456 305.73126 579.15894 305.02814Q579.65894 304.325 579.65894 302.21564Q579.65894 300.09064 579.15894 299.40314Q578.67456 298.7 577.92456 298.7Q577.2058 298.7 576.7683 299.3094Q576.22144 300.09064 576.22144 302.21564ZM582.1433 302.21564Q582.1433 300.6844 582.4558 299.7625Q582.7683 298.825 583.3777 298.325Q584.0027 297.825 584.9402 297.825Q585.6277 297.825 586.1433 298.10626Q586.67456 298.3875 587.0183 298.91876Q587.36206 299.4344 587.54956 300.1844Q587.73706 300.9344 587.73706 302.21564Q587.73706 303.73126 587.42456 304.65314Q587.1277 305.575 586.5027 306.09064Q585.8933 306.59064 584.9402 306.59064Q583.7058 306.59064 582.98706 305.7Q582.1433 304.6375 582.1433 302.21564ZM583.22144 302.21564Q583.22144 304.325 583.72144 305.02814Q584.22144 305.73126 584.9402 305.73126Q585.67456 305.73126 586.15894 305.02814Q586.65894 304.325 586.65894 302.21564Q586.65894 300.09064 586.15894 299.40314Q585.67456 298.7 584.92456 298.7Q584.2058 298.7 583.7683 299.3094Q583.22144 300.09064 583.22144 302.21564Z" fill-rule="nonzero"/><path fill="#980000" d="M169.5 25.55C169.5 28.863708 166.8137 31.55 163.5 31.55C160.1863 31.55 157.5 28.863708 157.5 25.55C157.5 22.236292 160.1863 19.55 163.5 19.55C166.8137 19.55 169.5 22.236292 169.5 25.55Z" fill-rule="nonzero"/><path fill="#1a1a1a" d="M182.54688 27.55L183.64062 27.675Q183.39062 28.628124 182.6875 29.159374Q181.98438 29.690624 180.90625 29.690624Q179.54688 29.690624 178.73438 28.846874Q177.9375 28.003124 177.9375 26.4875Q177.9375 24.925 178.75 24.065624Q179.5625 23.190624 180.84375 23.190624Q182.09375 23.190624 182.875 24.034374Q183.67188 24.878124 183.67188 26.425Q183.67188 26.51875 183.67188 26.70625L179.03125 26.70625Q179.09375 27.7375 179.60938 28.284374Q180.125 28.815624 180.90625 28.815624Q181.48438 28.815624 181.89062 28.51875Q182.3125 28.20625 182.54688 27.55ZM179.09375 25.846874L182.5625 25.846874Q182.5 25.05 182.17188 24.659374Q181.65625 24.05 180.85938 24.05Q180.125 24.05 179.625 24.534374Q179.14062 25.01875 179.09375 25.846874ZM187.59375 28.6125L187.75 29.534374Q187.29688 29.628124 186.95312 29.628124Q186.375 29.628124 186.0625 29.45625Q185.75 29.26875 185.60938 28.971874Q185.48438 28.675 185.48438 27.721874L185.48438 24.14375L184.71875 24.14375L184.71875 23.33125L185.48438 23.33125L185.48438 21.784374L186.53125 21.159374L186.53125 23.33125L187.59375 23.33125L187.59375 24.14375L186.53125 24.14375L186.53125 27.784374Q186.53125 28.2375 186.57812 28.3625Q186.64062 28.4875 186.76562 28.565624Q186.89062 28.64375 187.125 28.64375Q187.3125 28.64375 187.59375 28.6125ZM192.35938 27.26875L193.39062 27.409374Q193.21875 28.471874 192.51562 29.08125Q191.8125 29.690624 190.79688 29.690624Q189.51562 29.690624 188.73438 28.8625Q187.96875 28.01875 187.96875 26.45625Q187.96875 25.45625 188.29688 24.70625Q188.64062 23.940624 189.3125 23.565624Q190.0 23.190624 190.8125 23.190624Q191.8125 23.190624 192.45312 23.70625Q193.10938 24.20625 193.29688 25.159374L192.26562 25.315624Q192.125 24.690624 191.75 24.378124Q191.375 24.05 190.84375 24.05Q190.04688 24.05 189.54688 24.628124Q189.04688 25.190624 189.04688 26.425Q189.04688 27.690624 189.53125 28.253124Q190.01562 28.815624 190.78125 28.815624Q191.40625 28.815624 191.8125 28.440624Q192.23438 28.065624 192.35938 27.26875ZM198.32812 29.55L198.32812 28.76875Q197.73438 29.690624 196.59375 29.690624Q195.84375 29.690624 195.21875 29.284374Q194.59375 28.8625 194.25 28.128124Q193.90625 27.39375 193.90625 26.440624Q193.90625 25.51875 194.21875 24.753124Q194.53125 23.9875 195.15625 23.596874Q195.78125 23.190624 196.54688 23.190624Q197.10938 23.190624 197.54688 23.425Q197.98438 23.659374 198.26562 24.034374L198.26562 20.95625L199.3125 20.95625L199.3125 29.55L198.32812 29.55ZM195.0 26.440624Q195.0 27.64375 195.5 28.2375Q196.0 28.815624 196.6875 28.815624Q197.375 28.815624 197.85938 28.253124Q198.34375 27.690624 198.34375 26.534374Q198.34375 25.253124 197.84375 24.659374Q197.35938 24.065624 196.64062 24.065624Q195.9375 24.065624 195.46875 24.64375Q195.0 25.20625 195.0 26.440624ZM208.32812 29.55L208.32812 28.76875Q207.73438 29.690624 206.59375 29.690624Q205.84375 29.690624 205.21875 29.284374Q204.59375 28.8625 204.25 28.128124Q203.90625 27.39375 203.90625 26.440624Q203.90625 25.51875 204.21875 24.753124Q204.53125 23.9875 205.15625 23.596874Q205.78125 23.190624 206.54688 23.190624Q207.10938 23.190624 207.54688 23.425Q207.98438 23.659374 208.26562 24.034374L208.26562 20.95625L209.3125 20.95625L209.3125 29.55L208.32812 29.55ZM205.0 26.440624Q205.0 27.64375 205.5 28.2375Q206.0 28.815624 206.6875 28.815624Q207.375 28.815624 207.85938 28.253124Q208.34375 27.690624 208.34375 26.534374Q208.34375 25.253124 207.84375 24.659374Q207.35938 24.065624 206.64062 24.065624Q205.9375 24.065624 205.46875 24.64375Q205.0 25.20625 205.0 26.440624ZM212.26562 29.55L211.28125 29.55L211.28125 20.95625L212.34375 20.95625L212.34375 24.01875Q213.01562 23.190624 214.04688 23.190624Q214.625 23.190624 215.125 23.425Q215.64062 23.64375 215.96875 24.065624Q216.3125 24.4875 216.5 25.08125Q216.6875 25.675 216.6875 26.346874Q216.6875 27.940624 215.89062 28.815624Q215.09375 29.690624 214.0 29.690624Q212.89062 29.690624 212.26562 28.76875L212.26562 29.55ZM212.25 26.39375Q212.25 27.503124 212.5625 28.003124Q213.0625 28.815624 213.90625 28.815624Q214.59375 28.815624 215.09375 28.221874Q215.60938 27.628124 215.60938 26.425Q215.60938 25.20625 215.125 24.628124Q214.64062 24.05 213.95312 24.05Q213.26562 24.05 212.75 24.659374Q212.25 25.253124 212.25 26.39375ZM220.875 27.690624L221.90625 27.534374Q222.0 28.159374 222.39062 28.4875Q222.79688 28.815624 223.53125 28.815624Q224.25 28.815624 224.59375 28.534374Q224.95312 28.2375 224.95312 27.83125Q224.95312 27.471874 224.64062 27.26875Q224.42188 27.128124 223.5625 26.909374Q222.40625 26.6125 221.95312 26.409374Q221.51562 26.190624 221.28125 25.815624Q221.04688 25.440624 221.04688 24.971874Q221.04688 24.565624 221.23438 24.20625Q221.42188 23.846874 221.75 23.6125Q222.0 23.440624 222.42188 23.315624Q222.84375 23.190624 223.34375 23.190624Q224.0625 23.190624 224.60938 23.409374Q225.17188 23.6125 225.4375 23.971874Q225.70312 24.33125 225.79688 24.925L224.76562 25.065624Q224.70312 24.596874 224.35938 24.33125Q224.03125 24.05 223.40625 24.05Q222.6875 24.05 222.375 24.3Q222.0625 24.534374 222.0625 24.8625Q222.0625 25.065624 222.1875 25.221874Q222.32812 25.39375 222.59375 25.503124Q222.75 25.565624 223.53125 25.76875Q224.65625 26.08125 225.09375 26.26875Q225.53125 26.45625 225.78125 26.815624Q226.03125 27.175 226.03125 27.721874Q226.03125 28.253124 225.71875 28.721874Q225.42188 29.175 224.84375 29.440624Q224.26562 29.690624 223.53125 29.690624Q222.3125 29.690624 221.67188 29.190624Q221.04688 28.675 220.875 27.690624ZM228.29688 22.175L228.29688 20.95625L229.35938 20.95625L229.35938 22.175L228.29688 22.175ZM228.29688 29.55L228.29688 23.33125L229.35938 23.33125L229.35938 29.55L228.29688 29.55ZM230.73438 29.55L230.73438 28.690624L234.70312 24.14375Q234.01562 24.175 233.5 24.175L230.96875 24.175L230.96875 23.33125L236.0625 23.33125L236.0625 24.01875L232.6875 27.971874L232.03125 28.690624Q232.75 28.64375 233.35938 28.64375L236.25 28.64375L236.25 29.55L230.73438 29.55ZM240.54688 27.55L241.64062 27.675Q241.39062 28.628124 240.6875 29.159374Q239.98438 29.690624 238.90625 29.690624Q237.54688 29.690624 236.73438 28.846874Q235.9375 28.003124 235.9375 26.4875Q235.9375 24.925 236.75 24.065624Q237.5625 23.190624 238.84375 23.190624Q240.09375 23.190624 240.875 24.034374Q241.67188 24.878124 241.67188 26.425Q241.67188 26.51875 241.67188 26.70625L237.03125 26.70625Q237.09375 27.7375 237.60938 28.284374Q238.125 28.815624 238.90625 28.815624Q239.48438 28.815624 239.89062 28.51875Q240.3125 28.20625 240.54688 27.55ZM237.09375 25.846874L240.5625 25.846874Q240.5 25.05 240.17188 24.659374Q239.65625 24.05 238.85938 24.05Q238.125 24.05 237.625 24.534374Q237.14062 25.01875 237.09375 25.846874Z" fill-rule="nonzero"/><path stroke="#0000ff" stroke-width="4.0" stroke-linecap="butt" stroke-opacity="0.4" d="M258.5 25.55L270.5 25.55" fill-rule="nonzero"/><path fill="#1a1a1a" d="M284.46875 23.065624L283.42188 23.14375Q283.28125 22.51875 283.03125 22.2375Q282.59375 21.784374 281.96875 21.784374Q281.46875 21.784374 281.07812 22.065624Q280.59375 22.440624 280.29688 23.14375Q280.01562 23.83125 280.0 25.1125Q280.375 24.534374 280.92188 24.253124Q281.48438 23.971874 282.09375 23.971874Q283.14062 23.971874 283.875 24.753124Q284.625 25.534374 284.625 26.753124Q284.625 27.565624 284.26562 28.26875Q283.92188 28.95625 283.3125 29.33125Q282.70312 29.690624 281.9375 29.690624Q280.60938 29.690624 279.78125 28.721874Q278.95312 27.753124 278.95312 25.534374Q278.95312 23.034374 279.875 21.909374Q280.67188 20.925 282.03125 20.925Q283.04688 20.925 283.6875 21.503124Q284.34375 22.065624 284.46875 23.065624ZM280.17188 26.76875Q280.17188 27.315624 280.39062 27.815624Q280.625 28.3 281.03125 28.565624Q281.45312 28.83125 281.92188 28.83125Q282.57812 28.83125 283.0625 28.3Q283.54688 27.753124 283.54688 26.83125Q283.54688 25.940624 283.0625 25.425Q282.59375 24.909374 281.875 24.909374Q281.15625 24.909374 280.65625 25.425Q280.17188 25.940624 280.17188 26.76875ZM286.59375 29.55L286.59375 28.346874L287.79688 28.346874L287.79688 29.55L286.59375 29.55ZM294.46875 23.065624L293.42188 23.14375Q293.28125 22.51875 293.03125 22.2375Q292.59375 21.784374 291.96875 21.784374Q291.46875 21.784374 291.07812 22.065624Q290.59375 22.440624 290.29688 23.14375Q290.01562 23.83125 290.0 25.1125Q290.375 24.534374 290.92188 24.253124Q291.48438 23.971874 292.09375 23.971874Q293.14062 23.971874 293.875 24.753124Q294.625 25.534374 294.625 26.753124Q294.625 27.565624 294.26562 28.26875Q293.92188 28.95625 293.3125 29.33125Q292.70312 29.690624 291.9375 29.690624Q290.60938 29.690624 289.78125 28.721874Q288.95312 27.753124 288.95312 25.534374Q288.95312 23.034374 289.875 21.909374Q290.67188 20.925 292.03125 20.925Q293.04688 20.925 293.6875 21.503124Q294.34375 22.065624 294.46875 23.065624ZM290.17188 26.76875Q290.17188 27.315624 290.39062 27.815624Q290.625 28.3 291.03125 28.565624Q291.45312 28.83125 291.92188 28.83125Q292.57812 28.83125 293.0625 28.3Q293.54688 27.753124 293.54688 26.83125Q293.54688 25.940624 293.0625 25.425Q292.59375 24.909374 291.875 24.909374Q291.15625 24.909374 290.65625 25.425Q290.17188 25.940624 290.17188 26.76875ZM301.46875 23.065624L300.42188 23.14375Q300.28125 22.51875 300.03125 22.2375Q299.59375 21.784374 298.96875 21.784374Q298.46875 21.784374 298.07812 22.065624Q297.59375 22.440624 297.29688 23.14375Q297.01562 23.83125 297.0 25.1125Q297.375 24.534374 297.92188 24.253124Q298.48438 23.971874 299.09375 23.971874Q300.14062 23.971874 300.875 24.753124Q301.625 25.534374 301.625 26.753124Q301.625 27.565624 301.26562 28.26875Q300.92188 28.95625 300.3125 29.33125Q299.70312 29.690624 298.9375 29.690624Q297.60938 29.690624 296.78125 28.721874Q295.95312 27.753124 295.95312 25.534374Q295.95312 23.034374 296.875 21.909374Q297.67188 20.925 299.03125 20.925Q300.04688 20.925 300.6875 21.503124Q301.34375 22.065624 301.46875 23.065624ZM297.17188 26.76875Q297.17188 27.315624 297.39062 27.815624Q297.625 28.3 298.03125 28.565624Q298.45312 28.83125 298.92188 28.83125Q299.57812 28.83125 300.0625 28.3Q300.54688 27.753124 300.54688 26.83125Q300.54688 25.940624 300.0625 25.425Q299.59375 24.909374 298.875 24.909374Q298.15625 24.909374 297.65625 25.425Q297.17188 25.940624 297.17188 26.76875ZM303.45312 29.55L303.45312 20.95625L309.65625 20.95625L309.65625 21.971874L304.59375 21.971874L304.59375 24.596874L309.34375 24.596874L309.34375 25.6125L304.59375 25.6125L304.59375 28.534374L309.85938 28.534374L309.85938 29.55L303.45312 29.55ZM310.875 26.971874L310.875 25.909374L314.125 25.909374L314.125 26.971874L310.875 26.971874ZM315.0 25.315624Q315.0 23.784374 315.3125 22.8625Q315.625 21.925 316.23438 21.425Q316.85938 20.925 317.79688 20.925Q318.48438 20.925 319.0 21.20625Q319.53125 21.4875 319.875 22.01875Q320.21875 22.534374 320.40625 23.284374Q320.59375 24.034374 320.59375 25.315624Q320.59375 26.83125 320.28125 27.753124Q319.98438 28.675 319.35938 29.190624Q318.75 29.690624 317.79688 29.690624Q316.5625 29.690624 315.84375 28.8Q315.0 27.7375 315.0 25.315624ZM316.07812 25.315624Q316.07812 27.425 316.57812 28.128124Q317.07812 28.83125 317.79688 28.83125Q318.53125 28.83125 319.01562 28.128124Q319.51562 27.425 319.51562 25.315624Q319.51562 23.190624 319.01562 22.503124Q318.53125 21.8 317.78125 21.8Q317.0625 21.8 316.625 22.409374Q316.07812 23.190624 316.07812 25.315624ZM325.375 29.55L325.375 27.4875L321.65625 27.4875L321.65625 26.51875L325.57812 20.95625L326.4375 20.95625L326.4375 26.51875L327.59375 26.51875L327.59375 27.4875L326.4375 27.4875L326.4375 29.55L325.375 29.55ZM325.375 26.51875L325.375 22.659374L322.6875 26.51875L325.375 26.51875ZM328.875 22.534374L329.14062 21.70625Q330.07812 22.034374 330.5 22.26875Q330.39062 21.20625 330.375 20.815624L331.23438 20.815624Q331.21875 21.39375 331.09375 22.26875Q331.70312 21.95625 332.48438 21.70625L332.75 22.534374Q332.0 22.784374 331.29688 22.8625Q331.64062 23.175 332.29688 23.971874L331.59375 24.471874Q331.25 24.003124 330.79688 23.20625Q330.35938 24.034374 330.03125 24.471874L329.34375 23.971874Q330.01562 23.128124 330.3125 22.8625Q329.5625 22.721874 328.875 22.534374ZM333.59375 29.55L335.85938 26.315624L333.76562 23.33125L335.07812 23.33125L336.03125 24.784374Q336.29688 25.20625 336.46875 25.4875Q336.71875 25.096874 336.9375 24.8L337.98438 23.33125L339.25 23.33125L337.09375 26.253124L339.40625 29.55L338.125 29.55L336.84375 27.6125L336.5 27.096874L334.85938 29.55L333.59375 29.55ZM344.5 28.159374L344.5 25.8L342.17188 25.8L342.17188 24.815624L344.5 24.815624L344.5 22.4875L345.5 22.4875L345.5 24.815624L347.84375 24.815624L347.84375 25.8L345.5 25.8L345.5 28.159374L344.5 28.159374ZM352.0 25.315624Q352.0 23.784374 352.3125 22.8625Q352.625 21.925 353.23438 21.425Q353.85938 20.925 354.79688 20.925Q355.48438 20.925 356.0 21.20625Q356.53125 21.4875 356.875 22.01875Q357.21875 22.534374 357.40625 23.284374Q357.59375 24.034374 357.59375 25.315624Q357.59375 26.83125 357.28125 27.753124Q356.98438 28.675 356.35938 29.190624Q355.75 29.690624 354.79688 29.690624Q353.5625 29.690624 352.84375 28.8Q352.0 27.7375 352.0 25.315624ZM353.07812 25.315624Q353.07812 27.425 353.57812 28.128124Q354.07812 28.83125 354.79688 28.83125Q355.53125 28.83125 356.01562 28.128124Q356.51562 27.425 356.51562 25.315624Q356.51562 23.190624 356.01562 22.503124Q355.53125 21.8 354.78125 21.8Q354.0625 21.8 353.625 22.409374Q353.07812 23.190624 353.07812 25.315624ZM359.59375 29.55L359.59375 28.346874L360.79688 28.346874L360.79688 29.55L359.59375 29.55ZM365.96875 29.55L364.92188 29.55L364.92188 22.83125Q364.53125 23.190624 363.90625 23.565624Q363.29688 23.925 362.8125 24.096874L362.8125 23.08125Q363.6875 22.659374 364.34375 22.08125Q365.01562 21.4875 365.29688 20.925L365.96875 20.925L365.96875 29.55ZM369.0 25.315624Q369.0 23.784374 369.3125 22.8625Q369.625 21.925 370.23438 21.425Q370.85938 20.925 371.79688 20.925Q372.48438 20.925 373.0 21.20625Q373.53125 21.4875 373.875 22.01875Q374.21875 22.534374 374.40625 23.284374Q374.59375 24.034374 374.59375 25.315624Q374.59375 26.83125 374.28125 27.753124Q373.98438 28.675 373.35938 29.190624Q372.75 29.690624 371.79688 29.690624Q370.5625 29.690624 369.84375 28.8Q369.0 27.7375 369.0 25.315624ZM370.07812 25.315624Q370.07812 27.425 370.57812 28.128124Q371.07812 28.83125 371.79688 28.83125Q372.53125 28.83125 373.01562 28.128124Q373.51562 27.425 373.51562 25.315624Q373.51562 23.190624 373.01562 22.503124Q372.53125 21.8 371.78125 21.8Q371.0625 21.8 370.625 22.409374Q370.07812 23.190624 370.07812 25.315624ZM376.0 27.284374L377.0625 27.14375Q377.23438 28.034374 377.67188 28.440624Q378.10938 28.83125 378.73438 28.83125Q379.48438 28.83125 380.0 28.315624Q380.51562 27.8 380.51562 27.034374Q380.51562 26.315624 380.03125 25.846874Q379.5625 25.3625 378.82812 25.3625Q378.53125 25.3625 378.07812 25.4875L378.20312 24.55Q378.3125 24.565624 378.375 24.565624Q379.04688 24.565624 379.57812 24.221874Q380.125 23.8625 380.125 23.128124Q380.125 22.55 379.73438 22.175Q379.34375 21.784374 378.71875 21.784374Q378.10938 21.784374 377.6875 22.175Q377.28125 22.565624 377.17188 23.33125L376.10938 23.14375Q376.29688 22.096874 376.98438 21.51875Q377.67188 20.925 378.6875 20.925Q379.39062 20.925 379.98438 21.2375Q380.57812 21.534374 380.89062 22.05Q381.20312 22.565624 381.20312 23.159374Q381.20312 23.70625 380.90625 24.175Q380.60938 24.628124 380.03125 24.89375Q380.78125 25.065624 381.20312 25.628124Q381.625 26.175 381.625 27.01875Q381.625 28.14375 380.79688 28.925Q379.98438 29.70625 378.73438 29.70625Q377.60938 29.70625 376.85938 29.034374Q376.10938 28.346874 376.0 27.284374ZM386.4375 29.55L386.4375 20.95625L390.25 20.95625Q391.40625 20.95625 392.0 21.190624Q392.59375 21.425 392.95312 22.01875Q393.3125 22.596874 393.3125 23.3Q393.3125 24.221874 392.71875 24.846874Q392.125 25.471874 390.89062 25.64375Q391.34375 25.8625 391.57812 26.065624Q392.07812 26.51875 392.51562 27.20625L394.01562 29.55L392.57812 29.55L391.45312 27.76875Q390.95312 26.9875 390.625 26.58125Q390.3125 26.175 390.04688 26.01875Q389.79688 25.846874 389.53125 25.76875Q389.34375 25.7375 388.90625 25.7375L387.57812 25.7375L387.57812 29.55L386.4375 29.55ZM387.57812 24.753124L390.03125 24.753124Q390.79688 24.753124 391.23438 24.596874Q391.6875 24.425 391.90625 24.08125Q392.14062 23.721874 392.14062 23.3Q392.14062 22.690624 391.6875 22.3Q391.25 21.909374 390.29688 21.909374L387.57812 21.909374L387.57812 24.753124ZM394.64062 25.253124Q394.6875 24.925 394.92188 24.58125Q395.29688 24.08125 396.14062 23.471874Q396.98438 22.8625 397.14062 22.675Q397.35938 22.440624 397.35938 22.190624Q397.35938 21.909374 397.14062 21.7375Q396.9375 21.55 396.54688 21.55Q396.15625 21.55 395.96875 21.690624Q395.78125 21.815624 395.65625 22.20625L394.76562 22.1125Q394.9375 21.471874 395.35938 21.159374Q395.78125 20.846874 396.5625 20.846874Q397.45312 20.846874 397.85938 21.20625Q398.28125 21.55 398.28125 22.05Q398.28125 22.534374 397.92188 22.971874Q397.67188 23.3 396.73438 23.971874Q396.23438 24.33125 396.03125 24.55L398.29688 24.55L398.29688 25.253124L394.64062 25.253124ZM407.84375 24.503124L402.17188 24.503124L402.17188 23.51875L407.84375 23.51875L407.84375 24.503124ZM407.84375 27.1125L402.17188 27.1125L402.17188 26.128124L407.84375 26.128124L407.84375 27.1125ZM412.0 25.315624Q412.0 23.784374 412.3125 22.8625Q412.625 21.925 413.23438 21.425Q413.85938 20.925 414.79688 20.925Q415.48438 20.925 416.0 21.20625Q416.53125 21.4875 416.875 22.01875Q417.21875 22.534374 417.40625 23.284374Q417.59375 24.034374 417.59375 25.315624Q417.59375 26.83125 417.28125 27.753124Q416.98438 28.675 416.35938 29.190624Q415.75 29.690624 414.79688 29.690624Q413.5625 29.690624 412.84375 28.8Q412.0 27.7375 412.0 25.315624ZM413.07812 25.315624Q413.07812 27.425 413.57812 28.128124Q414.07812 28.83125 414.79688 28.83125Q415.53125 28.83125 416.01562 28.128124Q416.51562 27.425 416.51562 25.315624Q416.51562 23.190624 416.01562 22.503124Q415.53125 21.8 414.78125 21.8Q414.0625 21.8 413.625 22.409374Q413.07812 23.190624 413.07812 25.315624ZM419.59375 29.55L419.59375 28.346874L420.79688 28.346874L420.79688 29.55L419.59375 29.55ZM422.15625 27.565624L423.17188 27.471874Q423.29688 28.190624 423.65625 28.51875Q424.03125 28.83125 424.59375 28.83125Q425.07812 28.83125 425.4375 28.6125Q425.8125 28.378124 426.04688 28.01875Q426.28125 27.64375 426.4375 27.01875Q426.59375 26.378124 426.59375 25.721874Q426.59375 25.64375 426.59375 25.503124Q426.28125 26.003124 425.73438 26.33125Q425.1875 26.64375 424.54688 26.64375Q423.46875 26.64375 422.73438 25.878124Q422.0 25.096874 422.0 23.83125Q422.0 22.51875 422.76562 21.721874Q423.54688 20.925 424.70312 20.925Q425.53125 20.925 426.21875 21.378124Q426.92188 21.83125 427.28125 22.675Q427.64062 23.503124 427.64062 25.08125Q427.64062 26.721874 427.28125 27.70625Q426.9375 28.675 426.21875 29.190624Q425.51562 29.690624 424.57812 29.690624Q423.5625 29.690624 422.92188 29.14375Q422.28125 28.58125 422.15625 27.565624ZM426.46875 23.76875Q426.46875 22.8625 425.98438 22.33125Q425.51562 21.8 424.82812 21.8Q424.125 21.8 423.59375 22.378124Q423.07812 22.940624 423.07812 23.8625Q423.07812 24.675 423.57812 25.190624Q424.07812 25.70625 424.79688 25.70625Q425.53125 25.70625 426.0 25.190624Q426.46875 24.675 426.46875 23.76875ZM430.625 24.89375Q429.96875 24.64375 429.64062 24.20625Q429.32812 23.753124 429.32812 23.14375Q429.32812 22.20625 430.0 21.565624Q430.6875 20.925 431.79688 20.925Q432.92188 20.925 433.60938 21.58125Q434.29688 22.2375 434.29688 23.175Q434.29688 23.76875 433.98438 24.20625Q433.67188 24.64375 433.03125 24.89375Q433.82812 25.14375 434.23438 25.721874Q434.64062 26.3 434.64062 27.096874Q434.64062 28.190624 433.85938 28.940624Q433.09375 29.690624 431.8125 29.690624Q430.54688 29.690624 429.76562 28.940624Q428.98438 28.190624 428.98438 27.065624Q428.98438 26.221874 429.40625 25.659374Q429.84375 25.096874 430.625 24.89375ZM430.40625 23.096874Q430.40625 23.70625 430.79688 24.096874Q431.20312 24.4875 431.82812 24.4875Q432.4375 24.4875 432.82812 24.1125Q433.21875 23.721874 433.21875 23.159374Q433.21875 22.58125 432.8125 22.190624Q432.40625 21.784374 431.8125 21.784374Q431.20312 21.784374 430.79688 22.175Q430.40625 22.565624 430.40625 23.096874ZM430.07812 27.065624Q430.07812 27.51875 430.28125 27.940624Q430.5 28.3625 430.92188 28.596874Q431.34375 28.83125 431.82812 28.83125Q432.57812 28.83125 433.0625 28.346874Q433.5625 27.8625 433.5625 27.1125Q433.5625 26.346874 433.0625 25.846874Q432.5625 25.346874 431.79688 25.346874Q431.04688 25.346874 430.5625 25.846874Q430.07812 26.33125 430.07812 27.065624ZM439.96875 29.55L438.92188 29.55L438.92188 22.83125Q438.53125 23.190624 437.90625 23.565624Q437.29688 23.925 436.8125 24.096874L436.8125 23.08125Q437.6875 22.659374 438.34375 22.08125Q439.01562 21.4875 439.29688 20.925L439.96875 20.925L439.96875 29.55Z" fill-rule="nonzero"/></svg>