<svg version="1.1" viewBox="0.0 0.0 600.0 371.0" fill="none" stroke="none" stroke-linecap="square" stroke-miterlimit="10" width="600" height="371" xmlns:xlink="http://www.w3.org/1999/xlink" xmlns="http://www.w3.org/2000/svg"><path fill="#ffffff" d="M0 0L600.0 0L600.0 371.0L0 371.0L0 0Z" fill-rule="nonzero"/><path stroke="#cccccc" stroke-width="1.0" stroke-linecap="butt" d="M198.5 51.5L198.5 289.5" fill-rule="nonzero"/><path stroke="#cccccc" stroke-width="1.0" stroke-linecap="butt" d="M312.5 51.5L312.5 289.5" fill-rule="nonzero"/><path stroke="#cccccc" stroke-width="1.0" stroke-linecap="butt" d="M427.5 51.5L427.5 289.5" fill-rule="nonzero"/><path stroke="#cccccc" stroke-width="1.0" stroke-linecap="butt" d="M541.5 51.5L541.5 289.5" fill-rule="nonzero"/><path stroke="#333333" stroke-width="1.0" stroke-linecap="butt" d="M88.5 289.5L581.5 289.5" fill-rule="nonzero"/><path stroke="#cccccc" stroke-width="1.0" stroke-linecap="butt" d="M88.5 230.5L581.5 230.5" fill-rule="nonzero"/><path stroke="#cccccc" stroke-width="1.0" stroke-linecap="butt" d="M88.5 170.5L581.5 170.5" fill-rule="nonzero"/><path stroke="#cccccc" stroke-width="1.0" stroke-linecap="butt" d="M88.5 111.5L581.5 111.5" fill-rule="nonzero"/><path stroke="#cccccc" stroke-width="1.0" stroke-linecap="butt" d="M88.5 51.5L581.5 51.5" fill-rule="nonzero"/><clipPath id="id_0"><path d="M88.55 51.916668L581.45 51.916668L581.45 289.45L88.55 289.45L88.55 51.916668Z" clip-rule="nonzero"/></clipPath><path stroke="#000000" stroke-width="2.0" stroke-linecap="butt" stroke-opacity="0.4" clip-path="url(#id_0)" d="M0 273.91864L581.45 71.99016" fill-rule="nonzero"/><path fill="#00ff00" clip-path="url(#id_0)" d="M99.85667 252.77002C99.85667 255.25531 97.84195 257.27002 95.35667 257.27002C92.87138 257.27002 90.85667 255.25531 90.85667 252.77002C90.85667 250.28474 92.87138 248.27002 95.35667 248.27002C97.84195 248.27002 99.85667 250.28474 99.85667 252.77002Z" fill-rule="nonzero"/><path fill="#00ff00" clip-path="url(#id_0)" d="M105.79309 246.89905C105.79309 249.38434 103.77837 251.39905 101.29309 251.39905C98.80781 251.39905 96.79309 249.38434 96.79309 246.89905C96.79309 244.41377 98.80781 242.39905 101.29309 242.39905C103.77837 242.39905 105.79309 244.41377 105.79309 246.89905Z" fill-rule="nonzero"/><path fill="#00ff00" clip-path="url(#id_0)" d="M119.35698 247.11392C119.35698 249.5992 117.34226 251.61392 114.85698 251.61392C112.371704 251.61392 110.35698 249.5992 110.35698 247.11392C110.35698 244.62865 112.371704 242.61392 114.85698 242.61392C117.34226 242.61392 119.35698 244.62865 119.35698 247.11392Z" fill-rule="nonzero"/><path fill="#00ff00" clip-path="url(#id_0)" d="M125.32498 247.3804C125.32498 249.86569 123.310265 251.8804 120.82498 251.8804C118.33971 251.8804 116.32498 249.86569 116.32498 247.3804C116.32498 244.89513 118.33971 242.8804 120.82498 242.8804C123.310265 242.8804 125.32498 244.89513 125.32498 247.3804Z" fill-rule="nonzero"/><path fill="#00ff00" clip-path="url(#id_0)" d="M136.12718 235.70601C136.12718 238.19128 134.11246 240.20601 131.62718 240.20601C129.14189 240.20601 127.127174 238.19128 127.127174 235.70601C127.127174 233.22072 129.14189 231.20601 131.62718 231.20601C134.11246 231.20601 136.12718 233.22072 136.12718 235.70601Z" fill-rule="nonzero"/><path fill="#00ff00" clip-path="url(#id_0)" d="M142.8811 231.73058C142.8811 234.21585 140.86638 236.23058 138.3811 236.23058C135.89581 236.23058 133.8811 234.21585 133.8811 231.73058C133.8811 229.24529 135.89581 227.23058 138.3811 227.23058C140.86638 227.23058 142.8811 229.24529 142.8811 231.73058Z" fill-rule="nonzero"/><path fill="#00ff00" clip-path="url(#id_0)" d="M172.91212 222.84505C172.91212 225.33034 170.8974 227.34505 168.41212 227.34505C165.92683 227.34505 163.91212 225.33034 163.91212 222.84505C163.91212 220.35977 165.92683 218.34505 168.41212 218.34505C170.8974 218.34505 172.91212 220.35977 172.91212 222.84505Z" fill-rule="nonzero"/><path fill="#00ff00" clip-path="url(#id_0)" d="M162.66917 212.06093C162.66917 214.54622 160.65446 216.56093 158.16917 216.56093C155.6839 216.56093 153.66917 214.54622 153.66917 212.06093C153.66917 209.57565 155.6839 207.56093 158.16917 207.56093C160.65446 207.56093 162.66917 209.57565 162.66917 212.06093Z" fill-rule="nonzero"/><path fill="#00ff00" clip-path="url(#id_0)" d="M221.70999 229.22112C221.70999 231.7064 219.69527 233.72112 217.20999 233.72112C214.7247 233.72112 212.70999 231.7064 212.70999 229.22112C212.70999 226.73584 214.7247 224.72112 217.20999 224.72112C219.69527 224.72112 221.70999 226.73584 221.70999 229.22112Z" fill-rule="nonzero"/><path fill="#00ff00" clip-path="url(#id_0)" d="M180.7153 213.26309C180.7153 215.74838 178.70058 217.76309 176.2153 217.76309C173.73001 217.76309 171.7153 215.74838 171.7153 213.26309C171.7153 210.77782 173.73001 208.76309 176.2153 208.76309C178.70058 208.76309 180.7153 210.77782 180.7153 213.26309Z" fill-rule="nonzero"/><path fill="#00ff00" clip-path="url(#id_0)" d="M171.0963 201.12744C171.0963 203.61273 169.08159 205.62744 166.5963 205.62744C164.11102 205.62744 162.0963 203.61273 162.0963 201.12744C162.0963 198.64217 164.11102 196.62744 166.5963 196.62744C169.08159 196.62744 171.0963 198.64217 171.0963 201.12744Z" fill-rule="nonzero"/><path fill="#00ff00" clip-path="url(#id_0)" d="M202.15111 191.31067C202.15111 193.79594 200.1364 195.81067 197.65111 195.81067C195.16583 195.81067 193.15111 193.79594 193.15111 191.31067C193.15111 188.82538 195.16583 186.81067 197.65111 186.81067C200.1364 186.81067 202.15111 188.82538 202.15111 191.31067Z" fill-rule="nonzero"/><path fill="#00ff00" clip-path="url(#id_0)" d="M239.62245 197.8045C239.62245 200.28978 237.60773 202.3045 235.12245 202.3045C232.63716 202.3045 230.62245 200.28978 230.62245 197.8045C230.62245 195.31923 232.63716 193.3045 235.12245 193.3045C237.60773 193.3045 239.62245 195.31923 239.62245 197.8045Z" fill-rule="nonzero"/><path fill="#00ff00" clip-path="url(#id_0)" d="M262.5646 181.43764C262.5646 183.92291 260.5499 185.93764 258.0646 185.93764C255.57933 185.93764 253.5646 183.92291 253.5646 181.43764C253.5646 178.95236 255.57933 176.93764 258.0646 176.93764C260.5499 176.93764 262.5646 178.95236 262.5646 181.43764Z" fill-rule="nonzero"/><path fill="#00ff00" clip-path="url(#id_0)" d="M225.30597 210.86276C225.30597 213.34804 223.29124 215.36276 220.80597 215.36276C218.32068 215.36276 216.30597 213.34804 216.30597 210.86276C216.30597 208.37747 218.32068 206.36276 220.80597 206.36276C223.29124 206.36276 225.30597 208.37747 225.30597 210.86276Z" fill-rule="nonzero"/><path fill="#00ff00" clip-path="url(#id_0)" d="M235.98949 188.08508C235.98949 190.57037 233.97478 192.58508 231.48949 192.58508C229.00421 192.58508 226.98949 190.57037 226.98949 188.08508C226.98949 185.59981 229.00421 183.58508 231.48949 183.58508C233.97478 183.58508 235.98949 185.59981 235.98949 188.08508Z" fill-rule="nonzero"/><path fill="#00ff00" clip-path="url(#id_0)" d="M245.76639 189.83232C245.76639 192.3176 243.75166 194.33232 241.26639 194.33232C238.7811 194.33232 236.76639 192.3176 236.76639 189.83232C236.76639 187.34705 238.7811 185.33232 241.26639 185.33232C243.75166 185.33232 245.76639 187.34705 245.76639 189.83232Z" fill-rule="nonzero"/><path fill="#00ff00" clip-path="url(#id_0)" d="M271.8296 167.92407C271.8296 170.40936 269.81488 172.42407 267.3296 172.42407C264.84433 172.42407 262.8296 170.40936 262.8296 167.92407C262.8296 165.4388 264.84433 163.42407 267.3296 163.42407C269.81488 163.42407 271.8296 165.4388 271.8296 167.92407Z" fill-rule="nonzero"/><path fill="#00ff00" clip-path="url(#id_0)" d="M294.5133 185.74907C294.5133 188.23434 292.4986 190.24907 290.0133 190.24907C287.52805 190.24907 285.5133 188.23434 285.5133 185.74907C285.5133 183.26378 287.52805 181.24907 290.0133 181.24907C292.4986 181.24907 294.5133 183.26378 294.5133 185.74907Z" fill-rule="nonzero"/><path fill="#00ff00" clip-path="url(#id_0)" d="M306.66122 150.79222C306.66122 153.2775 304.64648 155.29222 302.16122 155.29222C299.67593 155.29222 297.66122 153.2775 297.66122 150.79222C297.66122 148.30695 299.67593 146.29222 302.16122 146.29222C304.64648 146.29222 306.66122 148.30695 306.66122 150.79222Z" fill-rule="nonzero"/><path fill="#00ff00" clip-path="url(#id_0)" d="M285.4979 158.74776C285.4979 161.23303 283.4832 163.24776 280.9979 163.24776C278.5126 163.24776 276.4979 161.23303 276.4979 158.74776C276.4979 156.26247 278.5126 154.24776 280.9979 154.24776C283.4832 154.24776 285.4979 156.26247 285.4979 158.74776Z" fill-rule="nonzero"/><path fill="#00ff00" clip-path="url(#id_0)" d="M311.96603 151.49242C311.96603 153.97769 309.95132 155.99242 307.46603 155.99242C304.98077 155.99242 302.96603 153.97769 302.96603 151.49242C302.96603 149.00714 304.98077 146.99242 307.46603 146.99242C309.95132 146.99242 311.96603 149.00714 311.96603 151.49242Z" fill-rule="nonzero"/><path fill="#00ff00" clip-path="url(#id_0)" d="M317.39822 158.67624C317.39822 161.16151 315.38348 163.17624 312.89822 163.17624C310.41293 163.17624 308.39822 161.16151 308.39822 158.67624C308.39822 156.19096 310.41293 154.17624 312.89822 154.17624C315.38348 154.17624 317.39822 156.19096 317.39822 158.67624Z" fill-rule="nonzero"/><path fill="#00ff00" clip-path="url(#id_0)" d="M321.18265 147.45792C321.18265 149.94319 319.16794 151.95792 316.68265 151.95792C314.1974 151.95792 312.18265 149.94319 312.18265 147.45792C312.18265 144.97263 314.1974 142.95792 316.68265 142.95792C319.16794 142.95792 321.18265 144.97263 321.18265 147.45792Z" fill-rule="nonzero"/><path fill="#00ff00" clip-path="url(#id_0)" d="M383.85 131.49379C383.85 133.97906 381.8353 135.99379 379.35 135.99379C376.86472 135.99379 374.85 133.97906 374.85 131.49379C374.85 129.0085 376.86472 126.99378 379.35 126.99378C381.8353 126.99378 383.85 129.0085 383.85 131.49379Z" fill-rule="nonzero"/><path fill="#00ff00" clip-path="url(#id_0)" d="M417.23508 140.5151C417.23508 143.00038 415.22034 145.0151 412.73508 145.0151C410.2498 145.0151 408.23508 143.00038 408.23508 140.5151C408.23508 138.02982 410.2498 136.0151 412.73508 136.0151C415.22034 136.0151 417.23508 138.02982 417.23508 140.5151Z" fill-rule="nonzero"/><path fill="#00ff00" clip-path="url(#id_0)" d="M403.01923 121.47977C403.01923 123.96505 401.00452 125.97977 398.51923 125.97977C396.03394 125.97977 394.01923 123.96505 394.01923 121.47977C394.01923 118.994484 396.03394 116.97977 398.51923 116.97977C401.00452 116.97977 403.01923 118.994484 403.01923 121.47977Z" fill-rule="nonzero"/><path fill="#00ff00" clip-path="url(#id_0)" d="M410.26212 113.8053C410.26212 116.29057 408.2474 118.3053 405.76212 118.3053C403.27686 118.3053 401.26212 116.29057 401.26212 113.8053C401.26212 111.320015 403.27686 109.3053 405.76212 109.3053C408.2474 109.3053 410.26212 111.320015 410.26212 113.8053Z" fill-rule="nonzero"/><path fill="#00ff00" clip-path="url(#id_0)" d="M419.87604 106.825226C419.87604 109.31051 417.8613 111.325226 415.37604 111.325226C412.89075 111.325226 410.87604 109.31051 410.87604 106.825226C410.87604 104.33994 412.89075 102.325226 415.37604 102.325226C417.8613 102.325226 419.87604 104.33994 419.87604 106.825226Z" fill-rule="nonzero"/><path fill="#00ff00" clip-path="url(#id_0)" d="M464.09232 125.68081C464.09232 128.16609 462.0776 130.18082 459.59232 130.18082C457.10706 130.18082 455.09232 128.16609 455.09232 125.68081C455.09232 123.19553 457.10706 121.18081 459.59232 121.18081C462.0776 121.18081 464.09232 123.19553 464.09232 125.68081Z" fill-rule="nonzero"/><path fill="#00ff00" clip-path="url(#id_0)" d="M455.86893 137.55255C455.86893 140.03784 453.85422 142.05255 451.36893 142.05255C448.88367 142.05255 446.86893 140.03784 446.86893 137.55255C446.86893 135.06728 448.88367 133.05255 451.36893 133.05255C453.85422 133.05255 455.86893 135.06728 455.86893 137.55255Z" fill-rule="nonzero"/><path fill="#00ff00" clip-path="url(#id_0)" d="M445.95453 108.298096C445.95453 110.78338 443.93982 112.798096 441.45453 112.798096C438.96924 112.798096 436.95453 110.78338 436.95453 108.298096C436.95453 105.81281 438.96924 103.798096 441.45453 103.798096C443.93982 103.798096 445.95453 105.81281 445.95453 108.298096Z" fill-rule="nonzero"/><path fill="#00ff00" clip-path="url(#id_0)" d="M503.48004 90.42574C503.48004 92.911026 501.4653 94.92574 498.98004 94.92574C496.49475 94.92574 494.48004 92.911026 494.48004 90.42574C494.48004 87.94046 496.49475 85.92574 498.98004 85.92574C501.4653 85.92574 503.48004 87.94046 503.48004 90.42574Z" fill-rule="nonzero"/><path fill="#00ff00" clip-path="url(#id_0)" d="M459.34268 105.29445C459.34268 107.77973 457.32797 109.79445 454.84268 109.79445C452.3574 109.79445 450.34268 107.77973 450.34268 105.29445C450.34268 102.809166 452.3574 100.79445 454.84268 100.79445C457.32797 100.79445 459.34268 102.809166 459.34268 105.29445Z" fill-rule="nonzero"/><path fill="#00ff00" clip-path="url(#id_0)" d="M496.204 81.07131C496.204 83.556595 494.1893 85.57131 491.704 85.57131C489.21875 85.57131 487.204 83.556595 487.204 81.07131C487.204 78.58603 489.21875 76.57131 491.704 76.57131C494.1893 76.57131 496.204 78.58603 496.204 81.07131Z" fill-rule="nonzero"/><path fill="#00ff00" clip-path="url(#id_0)" d="M512.0217 109.097046C512.0217 111.58232 510.00705 113.597046 507.52176 113.597046C505.03647 113.597046 503.02176 111.58232 503.02176 109.097046C503.02176 106.61176 505.03647 104.597046 507.52176 104.597046C510.00705 104.597046 512.0217 106.61176 512.0217 109.097046Z" fill-rule="nonzero"/><path fill="#00ff00" clip-path="url(#id_0)" d="M479.19696 83.42804C479.19696 85.91332 477.18225 87.92804 474.69696 87.92804C472.2117 87.92804 470.19696 85.91332 470.19696 83.42804C470.19696 80.94276 472.2117 78.92804 474.69696 78.92804C477.18225 78.92804 479.19696 80.94276 479.19696 83.42804Z" fill-rule="nonzero"/><path fill="#00ff00" clip-path="url(#id_0)" d="M488.82104 108.027214C488.82104 110.5125 486.80634 112.527214 484.32104 112.527214C481.8358 112.527214 479.82104 110.5125 479.82104 108.027214C479.82104 105.54193 481.8358 103.527214 484.32104 103.527214C486.80634 103.527214 488.82104 105.54193 488.82104 108.027214Z" fill-rule="nonzero"/><path fill="#00ff00" clip-path="url(#id_0)" d="M499.51224 81.07005C499.51224 83.555336 497.4975 85.57005 495.01224 85.57005C492.52695 85.57005 490.51224 83.555336 490.51224 81.07005C490.51224 78.58477 492.52695 76.57005 495.01224 76.57005C497.4975 76.57005 499.51224 78.58477 499.51224 81.07005Z" fill-rule="nonzero"/><path fill="#00ff00" clip-path="url(#id_0)" d="M522.03296 109.732506C522.03296 112.21779 520.01825 114.232506 517.53296 114.232506C515.04767 114.232506 513.03296 112.21779 513.03296 109.732506C513.03296 107.24722 515.04767 105.232506 517.53296 105.232506C520.01825 105.232506 522.03296 107.24722 522.03296 109.732506Z" fill-rule="nonzero"/><path fill="#00ff00" clip-path="url(#id_0)" d="M550.4723 104.02288C550.4723 106.50816 548.4575 108.52288 545.9723 108.52288C543.487 108.52288 541.4723 106.50816 541.4723 104.02288C541.4723 101.5376 543.487 99.52288 545.9723 99.52288C548.4575 99.52288 550.4723 101.5376 550.4723 104.02288Z" fill-rule="nonzero"/><path fill="#00ff00" clip-path="url(#id_0)" d="M525.4583 91.05265C525.4583 93.53793 523.4436 95.55265 520.9583 95.55265C518.473 95.55265 516.4583 93.53793 516.4583 91.05265C516.4583 88.56737 518.473 86.55265 520.9583 86.55265C523.4436 86.55265 525.4583 88.56737 525.4583 91.05265Z" fill-rule="nonzero"/><path fill="#00ff00" clip-path="url(#id_0)" d="M533.82684 74.30097C533.82684 76.786255 531.81213 78.80097 529.32684 78.80097C526.84155 78.80097 524.82684 76.786255 524.82684 74.30097C524.82684 71.8157 526.84155 69.80097 529.32684 69.80097C531.81213 69.80097 533.82684 71.8157 533.82684 74.30097Z" fill-rule="nonzero"/><path fill="#00ff00" clip-path="url(#id_0)" d="M542.6232 111.609474C542.6232 114.09475 540.6085 116.109474 538.1232 116.109474C535.63794 116.109474 533.6232 114.09475 533.6232 111.609474C533.6232 109.12419 535.63794 107.109474 538.1232 107.109474C540.6085 107.109474 542.6232 109.12419 542.6232 111.609474Z" fill-rule="nonzero"/><path fill="#00ff00" clip-path="url(#id_0)" d="M536.8778 98.333336C536.8778 100.81862 534.8631 102.833336 532.3778 102.833336C529.8925 102.833336 527.8778 100.81862 527.8778 98.333336C527.8778 95.84805 529.8925 93.833336 532.3778 93.833336C534.8631 93.833336 536.8778 95.84805 536.8778 98.333336Z" fill-rule="nonzero"/><path fill="#00ff00" clip-path="url(#id_0)" d="M545.2082 98.036385C545.2082 100.52167 543.1935 102.536385 540.7082 102.536385C538.2229 102.536385 536.2082 100.52167 536.2082 98.036385C536.2082 95.5511 538.2229 93.536385 540.7082 93.536385C543.1935 93.536385 545.2082 95.5511 545.2082 98.036385Z" fill-rule="nonzero"/><path fill="#00ff00" clip-path="url(#id_0)" d="M545.5163 108.736336C545.5163 111.22162 543.5016 113.236336 541.0163 113.236336C538.53107 113.236336 536.5163 111.22162 536.5163 108.736336C536.5163 106.25105 538.53107 104.236336 541.0163 104.236336C543.5016 104.236336 545.5163 106.25105 545.5163 108.736336Z" fill-rule="nonzero"/><path fill="#00ff00" clip-path="url(#id_0)" d="M578.392 100.39651C578.392 102.88179 576.3773 104.89651 573.892 104.89651C571.40674 104.89651 569.392 102.88179 569.392 100.39651C569.392 97.91123 571.40674 95.89651 573.892 95.89651C576.3773 95.89651 578.392 97.91123 578.392 100.39651Z" fill-rule="nonzero"/><path fill="#00ff00" clip-path="url(#id_0)" d="M554.31525 87.44313C554.31525 89.92841 552.30054 91.94313 549.81525 91.94313C547.33 91.94313 545.31525 89.92841 545.31525 87.44313C545.31525 84.95785 547.33 82.94313 549.81525 82.94313C552.30054 82.94313 554.31525 84.95785 554.31525 87.44313Z" fill-rule="nonzero"/><path fill="#00ff00" clip-path="url(#id_0)" d="M566.7611 79.85269C566.7611 82.33797 564.7464 84.35269 562.2611 84.35269C559.7759 84.35269 557.7611 82.33797 557.7611 79.85269C557.7611 77.36741 559.7759 75.35269 562.2611 75.35269C564.7464 75.35269 566.7611 77.36741 566.7611 79.85269Z" fill-rule="nonzero"/><path fill="#00ff00" clip-path="url(#id_0)" d="M579.1433 69.74296C579.1433 72.22824 577.1286 74.24296 574.6433 74.24296C572.1581 74.24296 570.1433 72.22824 570.1433 69.74296C570.1433 67.25768 572.1581 65.24296 574.6433 65.24296C577.1286 65.24296 579.1433 67.25768 579.1433 69.74296Z" fill-rule="nonzero"/><path fill="#000000" d="M328.39062 346.9969Q329.23438 347.60626 330.23438 347.96564L329.39062 349.60626Q328.85938 349.45 328.35938 349.16876Q328.25 349.1219 326.82812 348.15314Q325.70312 348.65314 324.32812 348.65314Q321.6875 348.65314 320.1875 347.09064Q318.70312 345.52814 318.70312 342.71564Q318.70312 339.91876 320.20312 338.35626Q321.70312 336.79376 324.26562 336.79376Q326.8125 336.79376 328.29688 338.35626Q329.79688 339.91876 329.79688 342.71564Q329.79688 344.2 329.39062 345.325Q329.07812 346.1844 328.39062 346.9969ZM326.53125 345.6844Q326.96875 345.16876 327.1875 344.4344Q327.42188 343.6844 327.42188 342.71564Q327.42188 340.73126 326.54688 339.7625Q325.67188 338.77814 324.25 338.77814Q322.84375 338.77814 321.95312 339.7625Q321.07812 340.7469 321.07812 342.71564Q321.07812 344.73126 321.95312 345.73126Q322.84375 346.71564 324.1875 346.71564Q324.6875 346.71564 325.125 346.5594Q324.42188 346.09064 323.70312 345.84064L324.34375 344.5125Q325.48438 344.90314 326.53125 345.6844ZM331.17188 348.45L331.17188 336.9969L334.875 336.9969Q336.98438 336.9969 337.625 337.16876Q338.60938 337.41876 339.26562 338.29376Q339.9375 339.15314 339.9375 340.5125Q339.9375 341.575 339.54688 342.29376Q339.17188 343.0125 338.57812 343.41876Q338.0 343.825 337.39062 343.96564Q336.5625 344.1219 334.98438 344.1219L333.48438 344.1219L333.48438 348.45L331.17188 348.45ZM333.48438 338.9344L333.48438 342.1844L334.75 342.1844Q336.10938 342.1844 336.5625 342.0125Q337.03125 341.825 337.29688 341.45Q337.5625 341.0594 337.5625 340.54376Q337.5625 339.91876 337.1875 339.5125Q336.82812 339.10626 336.26562 339.0125Q335.84375 338.9344 334.59375 338.9344L333.48438 338.9344ZM341.57812 344.71564L343.82812 344.4969Q344.03125 345.6375 344.65625 346.16876Q345.28125 346.7 346.32812 346.7Q347.45312 346.7 348.01562 346.23126Q348.57812 345.7469 348.57812 345.1219Q348.57812 344.71564 348.34375 344.4344Q348.10938 344.1375 347.51562 343.9344Q347.10938 343.79376 345.65625 343.4344Q343.79688 342.96564 343.04688 342.29376Q342.0 341.35626 342.0 339.9969Q342.0 339.1219 342.48438 338.35626Q342.98438 337.59064 343.92188 337.2Q344.85938 336.79376 346.17188 336.79376Q348.32812 336.79376 349.42188 337.7469Q350.51562 338.6844 350.5625 340.2625L348.25 340.3719Q348.10938 339.48126 347.60938 339.10626Q347.125 338.71564 346.15625 338.71564Q345.14062 338.71564 344.57812 339.1219Q344.20312 339.3875 344.20312 339.84064Q344.20312 340.2469 344.54688 340.52814Q344.98438 340.90314 346.67188 341.3094Q348.35938 341.7 349.17188 342.1219Q349.98438 342.54376 350.4375 343.29376Q350.89062 344.02814 350.89062 345.10626Q350.89062 346.09064 350.34375 346.95Q349.79688 347.8094 348.79688 348.23126Q347.79688 348.65314 346.3125 348.65314Q344.14062 348.65314 342.96875 347.65314Q341.8125 346.6375 341.57812 344.71564Z" fill-rule="nonzero"/><path fill="#000000" d="M33.55001 200.24583L25.253138 203.58958L25.253138 201.29271L29.487513 199.73021L30.893763 199.27708Q30.362513 199.08958 30.190638 199.04271Q29.831263 198.93333 29.487513 198.80833L25.253138 197.23021L25.253138 194.98021L33.55001 198.27708L33.55001 200.24583ZM29.331263 186.18333L30.050013 183.94896Q31.925013 184.46458 32.846886 185.66771Q33.753136 186.85521 33.753136 188.69896Q33.753136 190.98021 32.190636 192.44896Q30.628138 193.91771 27.925013 193.91771Q25.065638 193.91771 23.487513 192.44896Q21.893763 190.96458 21.893763 188.55833Q21.893763 186.46458 23.143763 185.15208Q23.878138 184.37083 25.253138 183.98021L25.800013 186.26146Q24.909388 186.46458 24.393763 187.12083Q23.878138 187.76146 23.878138 188.68333Q23.878138 189.94896 24.800013 190.74583Q25.706263 191.54271 27.753138 191.54271Q29.925013 191.54271 30.846888 190.76146Q31.768763 189.98021 31.768763 188.73021Q31.768763 187.80833 31.190638 187.15208Q30.596888 186.48021 29.331263 186.18333ZM33.55001 181.51146L22.096888 181.51146L22.096888 177.80833Q22.096888 175.69896 22.268763 175.05833Q22.518763 174.07396 23.393763 173.41771Q24.253138 172.74583 25.612513 172.74583Q26.675013 172.74583 27.393763 173.13646Q28.112513 173.51146 28.518763 174.10521Q28.925013 174.68333 29.065638 175.29271Q29.221888 176.12083 29.221888 177.69896L29.221888 179.19896L33.55001 179.19896L33.55001 181.51146ZM24.034388 179.19896L27.284388 179.19896L27.284388 177.93333Q27.284388 176.57396 27.112513 176.12083Q26.925013 175.65208 26.550013 175.38646Q26.159388 175.12083 25.643763 175.12083Q25.018763 175.12083 24.612513 175.49583Q24.206263 175.85521 24.112513 176.41771Q24.034388 176.83958 24.034388 178.08958L24.034388 179.19896ZM22.096888 170.52708L22.096888 168.21458L28.300013 168.21458Q29.768763 168.21458 30.206263 168.13646Q30.909388 167.98021 31.346888 167.43333Q31.768763 166.87083 31.768763 165.90208Q31.768763 164.91771 31.362513 164.41771Q30.956263 163.91771 30.378138 163.82396Q29.784388 163.71458 28.425013 163.71458L22.096888 163.71458L22.096888 161.40208L28.112513 161.40208Q30.175013 161.40208 31.034388 161.58958Q31.878138 161.77708 32.471886 162.27708Q33.05001 162.77708 33.409386 163.62083Q33.753136 164.46458 33.753136 165.82396Q33.753136 167.46458 33.378136 168.32396Q32.98751 169.16771 32.378136 169.66771Q31.768763 170.15208 31.112513 170.30833Q30.128138 170.52708 28.206263 170.52708L22.096888 170.52708ZM31.175013 159.30833L30.846888 157.10521Q31.487513 156.96458 31.815638 156.54271Q32.14376 156.10521 32.14376 155.32396Q32.14376 154.48021 31.831263 154.04271Q31.612513 153.76146 31.253138 153.76146Q31.003138 153.76146 30.831263 153.91771Q30.675013 154.07396 30.550013 154.65208Q29.956263 157.30833 29.471888 158.01146Q28.800013 158.99583 27.612513 158.99583Q26.534388 158.99583 25.800013 158.15208Q25.065638 157.29271 25.065638 155.51146Q25.065638 153.80833 25.628138 152.98021Q26.175013 152.15208 27.253138 151.83958L27.643763 153.90208Q27.159388 154.04271 26.909388 154.41771Q26.643763 154.77708 26.643763 155.46458Q26.643763 156.33958 26.878138 156.71458Q27.050013 156.96458 27.331263 156.96458Q27.565638 156.96458 27.721888 156.74583Q27.940638 156.44896 28.346888 154.69896Q28.737513 152.93333 29.315638 152.24583Q29.909388 151.55833 30.956263 151.55833Q32.096886 151.55833 32.92501 152.51146Q33.73751 153.46458 33.73751 155.32396Q33.73751 157.02708 33.05001 158.01146Q32.36251 158.99583 31.175013 159.30833Z" fill-rule="nonzero"/><path fill="#000000" d="M76.05 289.21564Q76.05 287.6844 76.3625 286.7625Q76.675 285.825 77.28438 285.325Q77.90938 284.825 78.84688 284.825Q79.53438 284.825 80.05 285.10626Q80.58125 285.3875 80.925 285.91876Q81.26875 286.4344 81.45625 287.1844Q81.64375 287.9344 81.64375 289.21564Q81.64375 290.73126 81.33125 291.65314Q81.03438 292.575 80.40938 293.09064Q79.8 293.59064 78.84688 293.59064Q77.6125 293.59064 76.89375 292.7Q76.05 291.6375 76.05 289.21564ZM77.12813 289.21564Q77.12813 291.325 77.62813 292.02814Q78.12813 292.73126 78.84688 292.73126Q79.58125 292.73126 80.06563 292.02814Q80.56563 291.325 80.56563 289.21564Q80.56563 287.09064 80.06563 286.40314Q79.58125 285.7 78.83125 285.7Q78.1125 285.7 77.675 286.3094Q77.12813 287.09064 77.12813 289.21564Z" fill-rule="nonzero"/><path fill="#000000" d="M76.05 231.81667L77.15938 231.72292Q77.28438 232.53542 77.72188 232.94167Q78.175 233.34792 78.81563 233.34792Q79.56563 233.34792 80.09688 232.76979Q80.62813 232.19167 80.62813 231.25417Q80.62813 230.34792 80.1125 229.83229Q79.6125 229.30104 78.78438 229.30104Q78.28438 229.30104 77.8625 229.53542Q77.45625 229.76979 77.22188 230.12917L76.2375 230.00417L77.06563 225.59792L81.34688 225.59792L81.34688 226.59792L77.90938 226.59792L77.45625 228.91042Q78.22188 228.36354 79.06563 228.36354Q80.19063 228.36354 80.95625 229.14479Q81.7375 229.92604 81.7375 231.16042Q81.7375 232.31667 81.06563 233.17604Q80.2375 234.20729 78.81563 234.20729Q77.64375 234.20729 76.89375 233.55104Q76.15938 232.89479 76.05 231.81667Z" fill-rule="nonzero"/><path fill="#000000" d="M73.01875 174.68333L71.97188 174.68333L71.97188 167.96458Q71.58125 168.32396 70.95625 168.69896Q70.34688 169.05833 69.8625 169.23021L69.8625 168.21458Q70.7375 167.79271 71.39375 167.21458Q72.06563 166.62083 72.34688 166.05833L73.01875 166.05833L73.01875 174.68333ZM76.05 170.44896Q76.05 168.91771 76.3625 167.99583Q76.675 167.05833 77.28438 166.55833Q77.90938 166.05833 78.84688 166.05833Q79.53438 166.05833 80.05 166.33958Q80.58125 166.62083 80.925 167.15208Q81.26875 167.66771 81.45625 168.41771Q81.64375 169.16771 81.64375 170.44896Q81.64375 171.96458 81.33125 172.88646Q81.03438 173.80833 80.40938 174.32396Q79.8 174.82396 78.84688 174.82396Q77.6125 174.82396 76.89375 173.93333Q76.05 172.87083 76.05 170.44896ZM77.12813 170.44896Q77.12813 172.55833 77.62813 173.26146Q78.12813 173.96458 78.84688 173.96458Q79.58125 173.96458 80.06563 173.26146Q80.56563 172.55833 80.56563 170.44896Q80.56563 168.32396 80.06563 167.63646Q79.58125 166.93333 78.83125 166.93333Q78.1125 166.93333 77.675 167.54271Q77.12813 168.32396 77.12813 170.44896Z" fill-rule="nonzero"/><path fill="#000000" d="M73.01875 115.3L71.97188 115.3L71.97188 108.58125Q71.58125 108.94063 70.95625 109.31563Q70.34688 109.675 69.8625 109.84688L69.8625 108.83125Q70.7375 108.40938 71.39375 107.83125Q72.06563 107.2375 72.34688 106.675L73.01875 106.675L73.01875 115.3ZM76.05 113.05L77.15938 112.95625Q77.28438 113.76875 77.72188 114.175Q78.175 114.58125 78.81563 114.58125Q79.56563 114.58125 80.09688 114.00313Q80.62813 113.425 80.62813 112.4875Q80.62813 111.58125 80.1125 111.06563Q79.6125 110.53438 78.78438 110.53438Q78.28438 110.53438 77.8625 110.76875Q77.45625 111.00313 77.22188 111.3625L76.2375 111.2375L77.06563 106.83125L81.34688 106.83125L81.34688 107.83125L77.90938 107.83125L77.45625 110.14375Q78.22188 109.59688 79.06563 109.59688Q80.19063 109.59688 80.95625 110.37813Q81.7375 111.15938 81.7375 112.39375Q81.7375 113.55 81.06563 114.40938Q80.2375 115.44063 78.81563 115.44063Q77.64375 115.44063 76.89375 114.78438Q76.15938 114.12813 76.05 113.05Z" fill-rule="nonzero"/><path fill="#000000" d="M74.59688 54.901043L74.59688 55.916668L68.90938 55.916668Q68.90938 55.541668 69.03438 55.182293Q69.25313 54.604168 69.72188 54.041668Q70.20625 53.479168 71.1125 52.744793Q72.51875 51.588543 73.00313 50.916668Q73.50313 50.244793 73.50313 49.651043Q73.50313 49.026043 73.05 48.604168Q72.59688 48.166668 71.87813 48.166668Q71.1125 48.166668 70.65938 48.619793Q70.20625 49.072918 70.19063 49.885418L69.1125 49.776043Q69.22188 48.557293 69.94063 47.932293Q70.675 47.291668 71.90938 47.291668Q73.14375 47.291668 73.8625 47.979168Q74.58125 48.666668 74.58125 49.682293Q74.58125 50.197918 74.3625 50.697918Q74.15938 51.182293 73.65938 51.744793Q73.175 52.291668 72.05 53.244793Q71.09688 54.041668 70.81563 54.338543Q70.55 54.619793 70.37813 54.901043L74.59688 54.901043ZM76.05 51.682293Q76.05 50.151043 76.3625 49.229168Q76.675 48.291668 77.28438 47.791668Q77.90938 47.291668 78.84688 47.291668Q79.53438 47.291668 80.05 47.572918Q80.58125 47.854168 80.925 48.385418Q81.26875 48.901043 81.45625 49.651043Q81.64375 50.401043 81.64375 51.682293Q81.64375 53.197918 81.33125 54.119793Q81.03438 55.041668 80.40938 55.557293Q79.8 56.057293 78.84688 56.057293Q77.6125 56.057293 76.89375 55.166668Q76.05 54.104168 76.05 51.682293ZM77.12813 51.682293Q77.12813 53.791668 77.62813 54.494793Q78.12813 55.197918 78.84688 55.197918Q79.58125 55.197918 80.06563 54.494793Q80.56563 53.791668 80.56563 51.682293Q80.56563 49.557293 80.06563 48.869793Q79.58125 48.166668 78.83125 48.166668Q78.1125 48.166668 77.675 48.776043Q77.12813 49.557293 77.12813 51.682293Z" fill-rule="nonzero"/><path fill="#000000" d="M188.07132 304.2L189.1807 304.10626Q189.3057 304.91876 189.7432 305.325Q190.19632 305.73126 190.83694 305.73126Q191.58694 305.73126 192.1182 305.15314Q192.64944 304.575 192.64944 303.6375Q192.64944 302.73126 192.13382 302.21564Q191.63382 301.6844 190.8057 301.6844Q190.3057 301.6844 189.88382 301.91876Q189.47757 302.15314 189.2432 302.5125L188.25882 302.3875L189.08694 297.98126L193.3682 297.98126L193.3682 298.98126L189.9307 298.98126L189.47757 301.29376Q190.2432 300.7469 191.08694 300.7469Q192.21194 300.7469 192.97757 301.52814Q193.75882 302.3094 193.75882 303.54376Q193.75882 304.7 193.08694 305.5594Q192.25882 306.59064 190.83694 306.59064Q189.66507 306.59064 188.91507 305.9344Q188.1807 305.27814 188.07132 304.2ZM195.07132 302.21564Q195.07132 300.6844 195.38382 299.7625Q195.69632 298.825 196.3057 298.325Q196.9307 297.825 197.8682 297.825Q198.5557 297.825 199.07132 298.10626Q199.60257 298.3875 199.94632 298.91876Q200.29007 299.4344 200.47757 300.1844Q200.66507 300.9344 200.66507 302.21564Q200.66507 303.73126 200.35257 304.65314Q200.0557 305.575 199.4307 306.09064Q198.82132 306.59064 197.8682 306.59064Q196.63382 306.59064 195.91507 305.7Q195.07132 304.6375 195.07132 302.21564ZM196.14944 302.21564Q196.14944 304.325 196.64944 305.02814Q197.14944 305.73126 197.8682 305.73126Q198.60257 305.73126 199.08694 305.02814Q199.58694 304.325 199.58694 302.21564Q199.58694 300.09064 199.08694 299.40314Q198.60257 298.7 197.85257 298.7Q197.13382 298.7 196.69632 299.3094Q196.14944 300.09064 196.14944 302.21564ZM202.07132 302.21564Q202.07132 300.6844 202.38382 299.7625Q202.69632 298.825 203.3057 298.325Q203.9307 297.825 204.8682 297.825Q205.5557 297.825 206.07132 298.10626Q206.60257 298.3875 206.94632 298.91876Q207.29007 299.4344 207.47757 300.1844Q207.66507 300.9344 207.66507 302.21564Q207.66507 303.73126 207.35257 304.65314Q207.0557 305.575 206.4307 306.09064Q205.82132 306.59064 204.8682 306.59064Q203.63382 306.59064 202.91507 305.7Q202.07132 304.6375 202.07132 302.21564ZM203.14944 302.21564Q203.14944 304.325 203.64944 305.02814Q204.14944 305.73126 204.8682 305.73126Q205.60257 305.73126 206.08694 305.02814Q206.58694 304.325 206.58694 302.21564Q206.58694 300.09064 206.08694 299.40314Q205.60257 298.7 204.85257 298.7Q204.13382 298.7 203.69632 299.3094Q203.14944 300.09064 203.14944 302.21564Z" fill-rule="nonzero"/><path fill="#000000" d="M303.14285 306.45L302.09598 306.45L302.09598 299.73126Q301.70535 300.09064 301.08035 300.46564Q300.47098 300.825 299.9866 300.9969L299.9866 299.98126Q300.8616 299.5594 301.51785 298.98126Q302.18973 298.3875 302.47098 297.825L303.14285 297.825L303.14285 306.45ZM306.1741 302.21564Q306.1741 300.6844 306.4866 299.7625Q306.7991 298.825 307.40848 298.325Q308.03348 297.825 308.97098 297.825Q309.65848 297.825 310.1741 298.10626Q310.70535 298.3875 311.0491 298.91876Q311.39285 299.4344 311.58035 300.1844Q311.76785 300.9344 311.76785 302.21564Q311.76785 303.73126 311.45535 304.65314Q311.15848 305.575 310.53348 306.09064Q309.9241 306.59064 308.97098 306.59064Q307.7366 306.59064 307.01785 305.7Q306.1741 304.6375 306.1741 302.21564ZM307.25223 302.21564Q307.25223 304.325 307.75223 305.02814Q308.25223 305.73126 308.97098 305.73126Q309.70535 305.73126 310.18973 305.02814Q310.68973 304.325 310.68973 302.21564Q310.68973 300.09064 310.18973 299.40314Q309.70535 298.7 308.95535 298.7Q308.2366 298.7 307.7991 299.3094Q307.25223 300.09064 307.25223 302.21564ZM313.1741 302.21564Q313.1741 300.6844 313.4866 299.7625Q313.7991 298.825 314.40848 298.325Q315.03348 297.825 315.97098 297.825Q316.65848 297.825 317.1741 298.10626Q317.70535 298.3875 318.0491 298.91876Q318.39285 299.4344 318.58035 300.1844Q318.76785 300.9344 318.76785 302.21564Q318.76785 303.73126 318.45535 304.65314Q318.15848 305.575 317.53348 306.09064Q316.9241 306.59064 315.97098 306.59064Q314.7366 306.59064 314.01785 305.7Q313.1741 304.6375 313.1741 302.21564ZM314.25223 302.21564Q314.25223 304.325 314.75223 305.02814Q315.25223 305.73126 315.97098 305.73126Q316.70535 305.73126 317.18973 305.02814Q317.68973 304.325 317.68973 302.21564Q317.68973 300.09064 317.18973 299.40314Q316.70535 298.7 315.95535 298.7Q315.2366 298.7 314.7991 299.3094Q314.25223 300.09064 314.25223 302.21564ZM320.1741 302.21564Q320.1741 300.6844 320.4866 299.7625Q320.7991 298.825 321.40848 298.325Q322.03348 297.825 322.97098 297.825Q323.65848 297.825 324.1741 298.10626Q324.70535 298.3875 325.0491 298.91876Q325.39285 299.4344 325.58035 300.1844Q325.76785 300.9344 325.76785 302.21564Q325.76785 303.73126 325.45535 304.65314Q325.15848 305.575 324.53348 306.09064Q323.9241 306.59064 322.97098 306.59064Q321.7366 306.59064 321.01785 305.7Q320.1741 304.6375 320.1741 302.21564ZM321.25223 302.21564Q321.25223 304.325 321.75223 305.02814Q322.25223 305.73126 322.97098 305.73126Q323.70535 305.73126 324.18973 305.02814Q324.68973 304.325 324.68973 302.21564Q324.68973 300.09064 324.18973 299.40314Q323.70535 298.7 322.95535 298.7Q322.2366 298.7 321.7991 299.3094Q321.25223 300.09064 321.25223 302.21564Z" fill-rule="nonzero"/><path fill="#000000" d="M417.74564 306.45L416.69876 306.45L416.69876 299.73126Q416.30814 300.09064 415.68314 300.46564Q415.07376 300.825 414.5894 300.9969L414.5894 299.98126Q415.4644 299.5594 416.12064 298.98126Q416.7925 298.3875 417.07376 297.825L417.74564 297.825L417.74564 306.45ZM420.7769 304.2L421.88626 304.10626Q422.01126 304.91876 422.44876 305.325Q422.9019 305.73126 423.5425 305.73126Q424.2925 305.73126 424.82376 305.15314Q425.355 304.575 425.355 303.6375Q425.355 302.73126 424.8394 302.21564Q424.3394 301.6844 423.51126 301.6844Q423.01126 301.6844 422.5894 301.91876Q422.18314 302.15314 421.94876 302.5125L420.9644 302.3875L421.7925 297.98126L426.07376 297.98126L426.07376 298.98126L422.63626 298.98126L422.18314 301.29376Q422.94876 300.7469 423.7925 300.7469Q424.9175 300.7469 425.68314 301.52814Q426.4644 302.3094 426.4644 303.54376Q426.4644 304.7 425.7925 305.5594Q424.9644 306.59064 423.5425 306.59064Q422.37064 306.59064 421.62064 305.9344Q420.88626 305.27814 420.7769 304.2ZM427.7769 302.21564Q427.7769 300.6844 428.0894 299.7625Q428.4019 298.825 429.01126 298.325Q429.63626 297.825 430.57376 297.825Q431.26126 297.825 431.7769 298.10626Q432.30814 298.3875 432.6519 298.91876Q432.99564 299.4344 433.18314 300.1844Q433.37064 300.9344 433.37064 302.21564Q433.37064 303.73126 433.05814 304.65314Q432.76126 305.575 432.13626 306.09064Q431.5269 306.59064 430.57376 306.59064Q429.3394 306.59064 428.62064 305.7Q427.7769 304.6375 427.7769 302.21564ZM428.855 302.21564Q428.855 304.325 429.355 305.02814Q429.855 305.73126 430.57376 305.73126Q431.30814 305.73126 431.7925 305.02814Q432.2925 304.325 432.2925 302.21564Q432.2925 300.09064 431.7925 299.40314Q431.30814 298.7 430.55814 298.7Q429.8394 298.7 429.4019 299.3094Q428.855 300.09064 428.855 302.21564ZM434.7769 302.21564Q434.7769 300.6844 435.0894 299.7625Q435.4019 298.825 436.01126 298.325Q436.63626 297.825 437.57376 297.825Q438.26126 297.825 438.7769 298.10626Q439.30814 298.3875 439.6519 298.91876Q439.99564 299.4344 440.18314 300.1844Q440.37064 300.9344 440.37064 302.21564Q440.37064 303.73126 440.05814 304.65314Q439.76126 305.575 439.13626 306.09064Q438.5269 306.59064 437.57376 306.59064Q436.3394 306.59064 435.62064 305.7Q434.7769 304.6375 434.7769 302.21564ZM435.855 302.21564Q435.855 304.325 436.355 305.02814Q436.855 305.73126 437.57376 305.73126Q438.30814 305.73126 438.7925 305.02814Q439.2925 304.325 439.2925 302.21564Q439.2925 300.09064 438.7925 299.40314Q438.30814 298.7 437.55814 298.7Q436.8394 298.7 436.4019 299.3094Q435.855 300.09064 435.855 302.21564Z" fill-rule="nonzero"/><path fill="#000000" d="M533.9266 305.4344L533.9266 306.45L528.2391 306.45Q528.2391 306.075 528.3641 305.71564Q528.5828 305.1375 529.0516 304.575Q529.53595 304.0125 530.4422 303.27814Q531.84845 302.1219 532.3328 301.45Q532.8328 300.77814 532.8328 300.1844Q532.8328 299.5594 532.3797 299.1375Q531.9266 298.7 531.2078 298.7Q530.4422 298.7 529.9891 299.15314Q529.53595 299.60626 529.5203 300.41876L528.4422 300.3094Q528.5516 299.09064 529.2703 298.46564Q530.0047 297.825 531.2391 297.825Q532.47345 297.825 533.1922 298.5125Q533.91095 299.2 533.91095 300.21564Q533.91095 300.73126 533.6922 301.23126Q533.4891 301.71564 532.9891 302.27814Q532.5047 302.825 531.3797 303.77814Q530.4266 304.575 530.1453 304.8719Q529.8797 305.15314 529.7078 305.4344L533.9266 305.4344ZM535.3797 302.21564Q535.3797 300.6844 535.6922 299.7625Q536.0047 298.825 536.6141 298.325Q537.2391 297.825 538.1766 297.825Q538.8641 297.825 539.3797 298.10626Q539.91095 298.3875 540.2547 298.91876Q540.59845 299.4344 540.78595 300.1844Q540.97345 300.9344 540.97345 302.21564Q540.97345 303.73126 540.66095 304.65314Q540.3641 305.575 539.7391 306.09064Q539.1297 306.59064 538.1766 306.59064Q536.9422 306.59064 536.22345 305.7Q535.3797 304.6375 535.3797 302.21564ZM536.4578 302.21564Q536.4578 304.325 536.9578 305.02814Q537.4578 305.73126 538.1766 305.73126Q538.91095 305.73126 539.3953 305.02814Q539.8953 304.325 539.8953 302.21564Q539.8953 300.09064 539.3953 299.40314Q538.91095 298.7 538.16095 298.7Q537.4422 298.7 537.0047 299.3094Q536.4578 300.09064 536.4578 302.21564ZM542.3797 302.21564Q542.3797 300.6844 542.6922 299.7625Q543.0047 298.825 543.6141 298.325Q544.2391 297.825 545.1766 297.825Q545.8641 297.825 546.3797 298.10626Q546.91095 298.3875 547.2547 298.91876Q547.59845 299.4344 547.78595 300.1844Q547.97345 300.9344 547.97345 302.21564Q547.97345 303.73126 547.66095 304.65314Q547.3641 305.575 546.7391 306.09064Q546.1297 306.59064 545.1766 306.59064Q543.9422 306.59064 543.22345 305.7Q542.3797 304.6375 542.3797 302.21564ZM543.4578 302.21564Q543.4578 304.325 543.9578 305.02814Q544.4578 305.73126 545.1766 305.73126Q545.91095 305.73126 546.3953 305.02814Q546.8953 304.325 546.8953 302.21564Q546.8953 300.09064 546.3953 299.40314Q545.91095 298.7 545.16095 298.7Q544.4422 298.7 544.0047 299.3094Q543.4578 300.09064 543.4578 302.21564ZM549.3797 302.21564Q549.3797 300.6844 549.6922 299.7625Q550.0047 298.825 550.6141 298.325Q551.2391 297.825 552.1766 297.825Q552.8641 297.825 553.3797 298.10626Q553.91095 298.3875 554.2547 298.91876Q554.59845 299.4344 554.78595 300.1844Q554.97345 300.9344 554.97345 302.21564Q554.97345 303.73126 554.66095 304.65314Q554.3641 305.575 553.7391 306.09064Q553.1297 306.59064 552.1766 306.59064Q550.9422 306.59064 550.22345 305.7Q549.3797 304.6375 549.3797 302.21564ZM550.4578 302.21564Q550.4578 304.325 550.9578 305.02814Q551.4578 305.73126 552.1766 305.73126Q552.91095 305.73126 553.3953 305.02814Q553.8953 304.325 553.8953 302.21564Q553.8953 300.09064 553.3953 299.40314Q552.91095 298.7 552.16095 298.7Q551.4422 298.7 551.0047 299.3094Q550.4578 300.09064 550.4578 302.21564Z" fill-rule="nonzero"/><path fill="#00ff00" d="M185.5 25.55C185.5 28.863708 182.8137 31.55 179.5 31.55C176.1863 31.55 173.5 28.863708 173.5 25.55C173.5 22.236292 176.1863 19.55 179.5 19.55C182.8137 19.55 185.5 22.236292 185.5 25.55Z" fill-rule="nonzero"/><path fill="#1a1a1a" d="M194.29688 29.55L194.29688 23.33125L195.23438 23.33125L195.23438 24.20625Q195.53125 23.7375 196.01562 23.471874Q196.5 23.190624 197.125 23.190624Q197.8125 23.190624 198.25 23.471874Q198.70312 23.753124 198.875 24.26875Q199.625 23.190624 200.79688 23.190624Q201.73438 23.190624 202.21875 23.70625Q202.71875 24.20625 202.71875 25.284374L202.71875 29.55L201.67188 29.55L201.67188 25.628124Q201.67188 25.003124 201.5625 24.721874Q201.46875 24.440624 201.20312 24.26875Q200.9375 24.096874 200.5625 24.096874Q199.90625 24.096874 199.46875 24.534374Q199.04688 24.971874 199.04688 25.940624L199.04688 29.55L197.98438 29.55L197.98438 25.503124Q197.98438 24.8 197.71875 24.45625Q197.46875 24.096874 196.89062 24.096874Q196.4375 24.096874 196.0625 24.33125Q195.6875 24.565624 195.51562 25.01875Q195.34375 25.471874 195.34375 26.315624L195.34375 29.55L194.29688 29.55ZM209.35938 28.784374Q208.76562 29.284374 208.21875 29.4875Q207.6875 29.690624 207.0625 29.690624Q206.03125 29.690624 205.48438 29.190624Q204.9375 28.690624 204.9375 27.909374Q204.9375 27.45625 205.14062 27.08125Q205.34375 26.690624 205.6875 26.471874Q206.03125 26.2375 206.45312 26.128124Q206.75 26.034374 207.39062 25.95625Q208.65625 25.815624 209.26562 25.596874Q209.26562 25.378124 209.26562 25.33125Q209.26562 24.675 208.96875 24.409374Q208.5625 24.065624 207.76562 24.065624Q207.03125 24.065624 206.67188 24.33125Q206.3125 24.58125 206.14062 25.2375L205.10938 25.096874Q205.25 24.440624 205.57812 24.034374Q205.90625 23.628124 206.51562 23.409374Q207.125 23.190624 207.92188 23.190624Q208.71875 23.190624 209.21875 23.378124Q209.71875 23.565624 209.95312 23.846874Q210.1875 24.128124 210.28125 24.565624Q210.32812 24.83125 210.32812 25.534374L210.32812 26.940624Q210.32812 28.409374 210.39062 28.8Q210.46875 29.190624 210.67188 29.55L209.5625 29.55Q209.40625 29.221874 209.35938 28.784374ZM209.26562 26.425Q208.6875 26.659374 207.54688 26.83125Q206.89062 26.925 206.625 27.05Q206.35938 27.159374 206.20312 27.378124Q206.0625 27.596874 206.0625 27.878124Q206.0625 28.3 206.375 28.58125Q206.70312 28.8625 207.3125 28.8625Q207.92188 28.8625 208.39062 28.596874Q208.875 28.33125 209.09375 27.8625Q209.26562 27.503124 209.26562 26.815624L209.26562 26.425ZM211.59375 29.55L213.85938 26.315624L211.76562 23.33125L213.07812 23.33125L214.03125 24.784374Q214.29688 25.20625 214.46875 25.4875Q214.71875 25.096874 214.9375 24.8L215.98438 23.33125L217.25 23.33125L215.09375 26.253124L217.40625 29.55L216.125 29.55L214.84375 27.6125L214.5 27.096874L212.85938 29.55L211.59375 29.55ZM216.875 26.971874L216.875 25.909374L220.125 25.909374L220.125 26.971874L216.875 26.971874ZM225.35938 27.26875L226.39062 27.409374Q226.21875 28.471874 225.51562 29.08125Q224.8125 29.690624 223.79688 29.690624Q222.51562 29.690624 221.73438 28.8625Q220.96875 28.01875 220.96875 26.45625Q220.96875 25.45625 221.29688 24.70625Q221.64062 23.940624 222.3125 23.565624Q223.0 23.190624 223.8125 23.190624Q224.8125 23.190624 225.45312 23.70625Q226.10938 24.20625 226.29688 25.159374L225.26562 25.315624Q225.125 24.690624 224.75 24.378124Q224.375 24.05 223.84375 24.05Q223.04688 24.05 222.54688 24.628124Q222.04688 25.190624 222.04688 26.425Q222.04688 27.690624 222.53125 28.253124Q223.01562 28.815624 223.78125 28.815624Q224.40625 28.815624 224.8125 28.440624Q225.23438 28.065624 225.35938 27.26875ZM227.29688 31.940624L227.29688 23.33125L228.25 23.33125L228.25 24.128124Q228.59375 23.659374 229.01562 23.425Q229.45312 23.190624 230.0625 23.190624Q230.85938 23.190624 231.46875 23.596874Q232.07812 24.003124 232.375 24.753124Q232.6875 25.503124 232.6875 26.39375Q232.6875 27.346874 232.34375 28.1125Q232.01562 28.878124 231.35938 29.284374Q230.70312 29.690624 229.98438 29.690624Q229.45312 29.690624 229.03125 29.471874Q228.60938 29.2375 228.34375 28.909374L228.34375 31.940624L227.29688 31.940624ZM228.25 26.471874Q228.25 27.675 228.73438 28.253124Q229.21875 28.815624 229.90625 28.815624Q230.60938 28.815624 231.10938 28.221874Q231.60938 27.628124 231.60938 26.378124Q231.60938 25.190624 231.125 24.6125Q230.64062 24.01875 229.95312 24.01875Q229.28125 24.01875 228.76562 24.64375Q228.25 25.26875 228.25 26.471874ZM238.375 29.55L238.375 28.628124Q237.64062 29.690624 236.39062 29.690624Q235.84375 29.690624 235.35938 29.4875Q234.89062 29.26875 234.65625 28.95625Q234.42188 28.628124 234.32812 28.159374Q234.26562 27.8625 234.26562 27.175L234.26562 23.33125L235.32812 23.33125L235.32812 26.784374Q235.32812 27.596874 235.39062 27.89375Q235.48438 28.3 235.79688 28.55Q236.125 28.784374 236.60938 28.784374Q237.07812 28.784374 237.48438 28.55Q237.90625 28.3 238.07812 27.878124Q238.26562 27.45625 238.26562 26.659374L238.26562 23.33125L239.3125 23.33125L239.3125 29.55L238.375 29.55Z" fill-rule="nonzero"/><path stroke="#000000" stroke-width="4.0" stroke-linecap="butt" stroke-opacity="0.4" d="M256.5 25.55L268.5 25.55" fill-rule="nonzero"/><path fill="#1a1a1a" d="M282.46875 23.065624L281.42188 23.14375Q281.28125 22.51875 281.03125 22.2375Q280.59375 21.784374 279.96875 21.784374Q279.46875 21.784374 279.07812 22.065624Q278.59375 22.440624 278.29688 23.14375Q278.01562 23.83125 278.0 25.1125Q278.375 24.534374 278.92188 24.253124Q279.48438 23.971874 280.09375 23.971874Q281.14062 23.971874 281.875 24.753124Q282.625 25.534374 282.625 26.753124Q282.625 27.565624 282.26562 28.26875Q281.92188 28.95625 281.3125 29.33125Q280.70312 29.690624 279.9375 29.690624Q278.60938 29.690624 277.78125 28.721874Q276.95312 27.753124 276.95312 25.534374Q276.95312 23.034374 277.875 21.909374Q278.67188 20.925 280.03125 20.925Q281.04688 20.925 281.6875 21.503124Q282.34375 22.065624 282.46875 23.065624ZM278.17188 26.76875Q278.17188 27.315624 278.39062 27.815624Q278.625 28.3 279.03125 28.565624Q279.45312 28.83125 279.92188 28.83125Q280.57812 28.83125 281.0625 28.3Q281.54688 27.753124 281.54688 26.83125Q281.54688 25.940624 281.0625 25.425Q280.59375 24.909374 279.875 24.909374Q279.15625 24.909374 278.65625 25.425Q278.17188 25.940624 278.17188 26.76875ZM284.59375 29.55L284.59375 28.346874L285.79688 28.346874L285.79688 29.55L284.59375 29.55ZM287.0625 22.08125L287.0625 21.065624L292.625 21.065624L292.625 21.89375Q291.8125 22.76875 291.0 24.221874Q290.20312 25.659374 289.76562 27.190624Q289.4375 28.26875 289.35938 29.55L288.26562 29.55Q288.28125 28.534374 288.65625 27.096874Q289.04688 25.659374 289.75 24.33125Q290.46875 23.003124 291.28125 22.08125L287.0625 22.08125ZM294.45312 29.55L294.45312 20.95625L300.65625 20.95625L300.65625 21.971874L295.59375 21.971874L295.59375 24.596874L300.34375 24.596874L300.34375 25.6125L295.59375 25.6125L295.59375 28.534374L300.85938 28.534374L300.85938 29.55L294.45312 29.55ZM301.875 26.971874L301.875 25.909374L305.125 25.909374L305.125 26.971874L301.875 26.971874ZM306.0 25.315624Q306.0 23.784374 306.3125 22.8625Q306.625 21.925 307.23438 21.425Q307.85938 20.925 308.79688 20.925Q309.48438 20.925 310.0 21.20625Q310.53125 21.4875 310.875 22.01875Q311.21875 22.534374 311.40625 23.284374Q311.59375 24.034374 311.59375 25.315624Q311.59375 26.83125 311.28125 27.753124Q310.98438 28.675 310.35938 29.190624Q309.75 29.690624 308.79688 29.690624Q307.5625 29.690624 306.84375 28.8Q306.0 27.7375 306.0 25.315624ZM307.07812 25.315624Q307.07812 27.425 307.57812 28.128124Q308.07812 28.83125 308.79688 28.83125Q309.53125 28.83125 310.01562 28.128124Q310.51562 27.425 310.51562 25.315624Q310.51562 23.190624 310.01562 22.503124Q309.53125 21.8 308.78125 21.8Q308.0625 21.8 307.625 22.409374Q307.07812 23.190624 307.07812 25.315624ZM313.0 27.284374L314.0625 27.14375Q314.23438 28.034374 314.67188 28.440624Q315.10938 28.83125 315.73438 28.83125Q316.48438 28.83125 317.0 28.315624Q317.51562 27.8 317.51562 27.034374Q317.51562 26.315624 317.03125 25.846874Q316.5625 25.3625 315.82812 25.3625Q315.53125 25.3625 315.07812 25.4875L315.20312 24.55Q315.3125 24.565624 315.375 24.565624Q316.04688 24.565624 316.57812 24.221874Q317.125 23.8625 317.125 23.128124Q317.125 22.55 316.73438 22.175Q316.34375 21.784374 315.71875 21.784374Q315.10938 21.784374 314.6875 22.175Q314.28125 22.565624 314.17188 23.33125L313.10938 23.14375Q313.29688 22.096874 313.98438 21.51875Q314.67188 20.925 315.6875 20.925Q316.39062 20.925 316.98438 21.2375Q317.57812 21.534374 317.89062 22.05Q318.20312 22.565624 318.20312 23.159374Q318.20312 23.70625 317.90625 24.175Q317.60938 24.628124 317.03125 24.89375Q317.78125 25.065624 318.20312 25.628124Q318.625 26.175 318.625 27.01875Q318.625 28.14375 317.79688 28.925Q316.98438 29.70625 315.73438 29.70625Q314.60938 29.70625 313.85938 29.034374Q313.10938 28.346874 313.0 27.284374ZM319.875 22.534374L320.14062 21.70625Q321.07812 22.034374 321.5 22.26875Q321.39062 21.20625 321.375 20.815624L322.23438 20.815624Q322.21875 21.39375 322.09375 22.26875Q322.70312 21.95625 323.48438 21.70625L323.75 22.534374Q323.0 22.784374 322.29688 22.8625Q322.64062 23.175 323.29688 23.971874L322.59375 24.471874Q322.25 24.003124 321.79688 23.20625Q321.35938 24.034374 321.03125 24.471874L320.34375 23.971874Q321.01562 23.128124 321.3125 22.8625Q320.5625 22.721874 319.875 22.534374ZM324.59375 29.55L326.85938 26.315624L324.76562 23.33125L326.07812 23.33125L327.03125 24.784374Q327.29688 25.20625 327.46875 25.4875Q327.71875 25.096874 327.9375 24.8L328.98438 23.33125L330.25 23.33125L328.09375 26.253124L330.40625 29.55L329.125 29.55L327.84375 27.6125L327.5 27.096874L325.85938 29.55L324.59375 29.55ZM335.5 28.159374L335.5 25.8L333.17188 25.8L333.17188 24.815624L335.5 24.815624L335.5 22.4875L336.5 22.4875L336.5 24.815624L338.84375 24.815624L338.84375 25.8L336.5 25.8L336.5 28.159374L335.5 28.159374ZM343.0 27.284374L344.0625 27.14375Q344.23438 28.034374 344.67188 28.440624Q345.10938 28.83125 345.73438 28.83125Q346.48438 28.83125 347.0 28.315624Q347.51562 27.8 347.51562 27.034374Q347.51562 26.315624 347.03125 25.846874Q346.5625 25.3625 345.82812 25.3625Q345.53125 25.3625 345.07812 25.4875L345.20312 24.55Q345.3125 24.565624 345.375 24.565624Q346.04688 24.565624 346.57812 24.221874Q347.125 23.8625 347.125 23.128124Q347.125 22.55 346.73438 22.175Q346.34375 21.784374 345.71875 21.784374Q345.10938 21.784374 344.6875 22.175Q344.28125 22.565624 344.17188 23.33125L343.10938 23.14375Q343.29688 22.096874 343.98438 21.51875Q344.67188 20.925 345.6875 20.925Q346.39062 20.925 346.98438 21.2375Q347.57812 21.534374 347.89062 22.05Q348.20312 22.565624 348.20312 23.159374Q348.20312 23.70625 347.90625 24.175Q347.60938 24.628124 347.03125 24.89375Q347.78125 25.065624 348.20312 25.628124Q348.625 26.175 348.625 27.01875Q348.625 28.14375 347.79688 28.925Q346.98438 29.70625 345.73438 29.70625Q344.60938 29.70625 343.85938 29.034374Q343.10938 28.346874 343.0 27.284374ZM350.59375 29.55L350.59375 28.346874L351.79688 28.346874L351.79688 29.55L350.59375 29.55ZM353.0625 22.08125L353.0625 21.065624L358.625 21.065624L358.625 21.89375Q357.8125 22.76875 357.0 24.221874Q356.20312 25.659374 355.76562 27.190624Q355.4375 28.26875 355.35938 29.55L354.26562 29.55Q354.28125 28.534374 354.65625 27.096874Q355.04688 25.659374 355.75 24.33125Q356.46875 23.003124 357.28125 22.08125L353.0625 22.08125ZM360.0 27.3L361.10938 27.20625Q361.23438 28.01875 361.67188 28.425Q362.125 28.83125 362.76562 28.83125Q363.51562 28.83125 364.04688 28.253124Q364.57812 27.675 364.57812 26.7375Q364.57812 25.83125 364.0625 25.315624Q363.5625 24.784374 362.73438 24.784374Q362.23438 24.784374 361.8125 25.01875Q361.40625 25.253124 361.17188 25.6125L360.1875 25.4875L361.01562 21.08125L365.29688 21.08125L365.29688 22.08125L361.85938 22.08125L361.40625 24.39375Q362.17188 23.846874 363.01562 23.846874Q364.14062 23.846874 364.90625 24.628124Q365.6875 25.409374 365.6875 26.64375Q365.6875 27.8 365.01562 28.659374Q364.1875 29.690624 362.76562 29.690624Q361.59375 29.690624 360.84375 29.034374Q360.10938 28.378124 360.0 27.3ZM370.4375 29.55L370.4375 20.95625L374.25 20.95625Q375.40625 20.95625 376.0 21.190624Q376.59375 21.425 376.95312 22.01875Q377.3125 22.596874 377.3125 23.3Q377.3125 24.221874 376.71875 24.846874Q376.125 25.471874 374.89062 25.64375Q375.34375 25.8625 375.57812 26.065624Q376.07812 26.51875 376.51562 27.20625L378.01562 29.55L376.57812 29.55L375.45312 27.76875Q374.95312 26.9875 374.625 26.58125Q374.3125 26.175 374.04688 26.01875Q373.79688 25.846874 373.53125 25.76875Q373.34375 25.7375 372.90625 25.7375L371.57812 25.7375L371.57812 29.55L370.4375 29.55ZM371.57812 24.753124L374.03125 24.753124Q374.79688 24.753124 375.23438 24.596874Q375.6875 24.425 375.90625 24.08125Q376.14062 23.721874 376.14062 23.3Q376.14062 22.690624 375.6875 22.3Q375.25 21.909374 374.29688 21.909374L371.57812 21.909374L371.57812 24.753124ZM378.64062 25.253124Q378.6875 24.925 378.92188 24.58125Q379.29688 24.08125 380.14062 23.471874Q380.98438 22.8625 381.14062 22.675Q381.35938 22.440624 381.35938 22.190624Q381.35938 21.909374 381.14062 21.7375Q380.9375 21.55 380.54688 21.55Q380.15625 21.55 379.96875 21.690624Q379.78125 21.815624 379.65625 22.20625L378.76562 22.1125Q378.9375 21.471874 379.35938 21.159374Q379.78125 20.846874 380.5625 20.846874Q381.45312 20.846874 381.85938 21.20625Q382.28125 21.55 382.28125 22.05Q382.28125 22.534374 381.92188 22.971874Q381.67188 23.3 380.73438 23.971874Q380.23438 24.33125 380.03125 24.55L382.29688 24.55L382.29688 25.253124L378.64062 25.253124ZM391.84375 24.503124L386.17188 24.503124L386.17188 23.51875L391.84375 23.51875L391.84375 24.503124ZM391.84375 27.1125L386.17188 27.1125L386.17188 26.128124L391.84375 26.128124L391.84375 27.1125ZM396.0 25.315624Q396.0 23.784374 396.3125 22.8625Q396.625 21.925 397.23438 21.425Q397.85938 20.925 398.79688 20.925Q399.48438 20.925 400.0 21.20625Q400.53125 21.4875 400.875 22.01875Q401.21875 22.534374 401.40625 23.284374Q401.59375 24.034374 401.59375 25.315624Q401.59375 26.83125 401.28125 27.753124Q400.98438 28.675 400.35938 29.190624Q399.75 29.690624 398.79688 29.690624Q397.5625 29.690624 396.84375 28.8Q396.0 27.7375 396.0 25.315624ZM397.07812 25.315624Q397.07812 27.425 397.57812 28.128124Q398.07812 28.83125 398.79688 28.83125Q399.53125 28.83125 400.01562 28.128124Q400.51562 27.425 400.51562 25.315624Q400.51562 23.190624 400.01562 22.503124Q399.53125 21.8 398.78125 21.8Q398.0625 21.8 397.625 22.409374Q397.07812 23.190624 397.07812 25.315624ZM403.59375 29.55L403.59375 28.346874L404.79688 28.346874L404.79688 29.55L403.59375 29.55ZM406.15625 27.565624L407.17188 27.471874Q407.29688 28.190624 407.65625 28.51875Q408.03125 28.83125 408.59375 28.83125Q409.07812 28.83125 409.4375 28.6125Q409.8125 28.378124 410.04688 28.01875Q410.28125 27.64375 410.4375 27.01875Q410.59375 26.378124 410.59375 25.721874Q410.59375 25.64375 410.59375 25.503124Q410.28125 26.003124 409.73438 26.33125Q409.1875 26.64375 408.54688 26.64375Q407.46875 26.64375 406.73438 25.878124Q406.0 25.096874 406.0 23.83125Q406.0 22.51875 406.76562 21.721874Q407.54688 20.925 408.70312 20.925Q409.53125 20.925 410.21875 21.378124Q410.92188 21.83125 411.28125 22.675Q411.64062 23.503124 411.64062 25.08125Q411.64062 26.721874 411.28125 27.70625Q410.9375 28.675 410.21875 29.190624Q409.51562 29.690624 408.57812 29.690624Q407.5625 29.690624 406.92188 29.14375Q406.28125 28.58125 406.15625 27.565624ZM410.46875 23.76875Q410.46875 22.8625 409.98438 22.33125Q409.51562 21.8 408.82812 21.8Q408.125 21.8 407.59375 22.378124Q407.07812 22.940624 407.07812 23.8625Q407.07812 24.675 407.57812 25.190624Q408.07812 25.70625 408.79688 25.70625Q409.53125 25.70625 410.0 25.190624Q410.46875 24.675 410.46875 23.76875ZM413.0 27.284374L414.0625 27.14375Q414.23438 28.034374 414.67188 28.440624Q415.10938 28.83125 415.73438 28.83125Q416.48438 28.83125 417.0 28.315624Q417.51562 27.8 417.51562 27.034374Q417.51562 26.315624 417.03125 25.846874Q416.5625 25.3625 415.82812 25.3625Q415.53125 25.3625 415.07812 25.4875L415.20312 24.55Q415.3125 24.565624 415.375 24.565624Q416.04688 24.565624 416.57812 24.221874Q417.125 23.8625 417.125 23.128124Q417.125 22.55 416.73438 22.175Q416.34375 21.784374 415.71875 21.784374Q415.10938 21.784374 414.6875 22.175Q414.28125 22.565624 414.17188 23.33125L413.10938 23.14375Q413.29688 22.096874 413.98438 21.51875Q414.67188 20.925 415.6875 20.925Q416.39062 20.925 416.98438 21.2375Q417.57812 21.534374 417.89062 22.05Q418.20312 22.565624 418.20312 23.159374Q418.20312 23.70625 417.90625 24.175Q417.60938 24.628124 417.03125 24.89375Q417.78125 25.065624 418.20312 25.628124Q418.625 26.175 418.625 27.01875Q418.625 28.14375 417.79688 28.925Q416.98438 29.70625 415.73438 29.70625Q414.60938 29.70625 413.85938 29.034374Q413.10938 28.346874 413.0 27.284374ZM423.96875 29.55L422.92188 29.55L422.92188 22.83125Q422.53125 23.190624 421.90625 23.565624Q421.29688 23.925 420.8125 24.096874L420.8125 23.08125Q421.6875 22.659374 422.34375 22.08125Q423.01562 21.4875 423.29688 20.925L423.96875 20.925L423.96875 29.55Z" fill-rule="nonzero"/></svg>