<svg version="1.1" viewBox="0.0 0.0 600.0 371.0" fill="none" stroke="none" stroke-linecap="square" stroke-miterlimit="10" width="600" height="371" xmlns:xlink="http://www.w3.org/1999/xlink" xmlns="http://www.w3.org/2000/svg"><path fill="#ffffff" d="M0 0L600.0 0L600.0 371.0L0 371.0L0 0Z" fill-rule="nonzero"/><path stroke="#cccccc" stroke-width="1.0" stroke-linecap="butt" d="M165.5 51.5L165.5 289.5" fill-rule="nonzero"/><path stroke="#cccccc" stroke-width="1.0" stroke-linecap="butt" d="M250.5 51.5L250.5 289.5" fill-rule="nonzero"/><path stroke="#cccccc" stroke-width="1.0" stroke-linecap="butt" d="M334.5 51.5L334.5 289.5" fill-rule="nonzero"/><path stroke="#cccccc" stroke-width="1.0" stroke-linecap="butt" d="M419.5 51.5L419.5 289.5" fill-rule="nonzero"/><path stroke="#cccccc" stroke-width="1.0" stroke-linecap="butt" d="M503.5 51.5L503.5 289.5" fill-rule="nonzero"/><path stroke="#333333" stroke-width="1.0" stroke-linecap="butt" d="M88.5 289.5L581.5 289.5" fill-rule="nonzero"/><path stroke="#cccccc" stroke-width="1.0" stroke-linecap="butt" d="M88.5 230.5L581.5 230.5" fill-rule="nonzero"/><path stroke="#cccccc" stroke-width="1.0" stroke-linecap="butt" d="M88.5 170.5L581.5 170.5" fill-rule="nonzero"/><path stroke="#cccccc" stroke-width="1.0" stroke-linecap="butt" d="M88.5 111.5L581.5 111.5" fill-rule="nonzero"/><path stroke="#cccccc" stroke-width="1.0" stroke-linecap="butt" d="M88.5 51.5L581.5 51.5" fill-rule="nonzero"/><clipPath id="id_0"><path d="M88.55 51.916668L581.45 51.916668L581.45 289.45L88.55 289.45L88.55 51.916668Z" clip-rule="nonzero"/></clipPath><path stroke="#000000" stroke-width="2.0" stroke-linecap="butt" stroke-opacity="0.4" clip-path="url(#id_0)" d="M0 176.92859L581.45 102.326195" fill-rule="nonzero"/><path fill="#1c4587" clip-path="url(#id_0)" d="M99.85667 176.9603C99.85667 179.44559 97.84195 181.4603 95.35667 181.4603C92.87138 181.4603 90.85667 179.44559 90.85667 176.9603C90.85667 174.47502 92.87138 172.4603 95.35667 172.4603C97.84195 172.4603 99.85667 174.47502 99.85667 176.9603Z" fill-rule="nonzero"/><path fill="#1c4587" clip-path="url(#id_0)" d="M110.638336 173.79254C110.638336 176.27783 108.62362 178.29254 106.138336 178.29254C103.65306 178.29254 101.638336 176.27783 101.638336 173.79254C101.638336 171.30727 103.65306 169.29254 106.138336 169.29254C108.62362 169.29254 110.638336 171.30727 110.638336 173.79254Z" fill-rule="nonzero"/><path fill="#1c4587" clip-path="url(#id_0)" d="M121.6039 169.66415C121.6039 172.14943 119.58918 174.16415 117.1039 174.16415C114.618614 174.16415 112.6039 172.14943 112.6039 169.66415C112.6039 167.17888 114.618614 165.16415 117.1039 165.16415C119.58918 165.16415 121.6039 167.17888 121.6039 169.66415Z" fill-rule="nonzero"/><path fill="#1c4587" clip-path="url(#id_0)" d="M132.45435 165.26628C132.45435 167.75157 130.43962 169.76628 127.954346 169.76628C125.46906 169.76628 123.454346 167.75157 123.454346 165.26628C123.454346 162.781 125.46906 160.76628 127.954346 160.76628C130.43962 160.76628 132.45435 162.781 132.45435 165.26628Z" fill-rule="nonzero"/><path fill="#1c4587" clip-path="url(#id_0)" d="M141.67896 162.11917C141.67896 164.60445 139.66423 166.61917 137.17896 166.61917C134.69368 166.61917 132.67896 164.60445 132.67896 162.11917C132.67896 159.63388 134.69368 157.61917 137.17896 157.61917C139.66423 157.61917 141.67896 159.63388 141.67896 162.11917Z" fill-rule="nonzero"/><path fill="#1c4587" clip-path="url(#id_0)" d="M151.79099 159.46977C151.79099 161.95506 149.77628 163.96977 147.29099 163.96977C144.80571 163.96977 142.79099 161.95506 142.79099 159.46977C142.79099 156.9845 144.80571 154.96977 147.29099 154.96977C149.77628 154.96977 151.79099 156.9845 151.79099 159.46977Z" fill-rule="nonzero"/><path fill="#1c4587" clip-path="url(#id_0)" d="M166.00636 156.34532C166.00636 158.83061 163.99164 160.84532 161.50636 160.84532C159.02107 160.84532 157.00636 158.83061 157.00636 156.34532C157.00636 153.86005 159.02107 151.84532 161.50636 151.84532C163.99164 151.84532 166.00636 153.86005 166.00636 156.34532Z" fill-rule="nonzero"/><path fill="#1c4587" clip-path="url(#id_0)" d="M173.46313 154.56174C173.46313 157.04701 171.44841 159.06174 168.96313 159.06174C166.47786 159.06174 164.46313 157.04701 164.46313 154.56174C164.46313 152.07645 166.47786 150.06174 168.96313 150.06174C171.44841 150.06174 173.46313 152.07645 173.46313 154.56174Z" fill-rule="nonzero"/><path fill="#1c4587" clip-path="url(#id_0)" d="M187.00563 152.79718C187.00563 155.28246 184.9909 157.29718 182.50563 157.29718C180.02034 157.29718 178.00563 155.28246 178.00563 152.79718C178.00563 150.3119 180.02034 148.29718 182.50563 148.29718C184.9909 148.29718 187.00563 150.3119 187.00563 152.79718Z" fill-rule="nonzero"/><path fill="#1c4587" clip-path="url(#id_0)" d="M188.46297 150.47484C188.46297 152.96011 186.44826 154.97484 183.96297 154.97484C181.47769 154.97484 179.46297 152.96011 179.46297 150.47484C179.46297 147.98955 181.47769 145.97484 183.96297 145.97484C186.44826 145.97484 188.46297 147.98955 188.46297 150.47484Z" fill-rule="nonzero"/><path fill="#1c4587" clip-path="url(#id_0)" d="M189.86229 149.64589C189.86229 152.13116 187.84756 154.14589 185.36229 154.14589C182.877 154.14589 180.86229 152.13116 180.86229 149.64589C180.86229 147.1606 182.877 145.14589 185.36229 145.14589C187.84756 145.14589 189.86229 147.1606 189.86229 149.64589Z" fill-rule="nonzero"/><path fill="#1c4587" clip-path="url(#id_0)" d="M202.33717 147.49857C202.33717 149.98384 200.32245 151.99857 197.83717 151.99857C195.35188 151.99857 193.33717 149.98384 193.33717 147.49857C193.33717 145.01329 195.35188 142.99857 197.83717 142.99857C200.32245 142.99857 202.33717 145.01329 202.33717 147.49857Z" fill-rule="nonzero"/><path fill="#1c4587" clip-path="url(#id_0)" d="M214.44852 145.61357C214.44852 148.09886 212.4338 150.11357 209.94852 150.11357C207.46324 150.11357 205.44852 148.09886 205.44852 145.61357C205.44852 143.1283 207.46324 141.11357 209.94852 141.11357C212.4338 141.11357 214.44852 143.1283 214.44852 145.61357Z" fill-rule="nonzero"/><path fill="#1c4587" clip-path="url(#id_0)" d="M226.31448 144.81999C226.31448 147.30527 224.29977 149.31999 221.81448 149.31999C219.32921 149.31999 217.31448 147.30527 217.31448 144.81999C217.31448 142.3347 219.32921 140.31999 221.81448 140.31999C224.29977 140.31999 226.31448 142.3347 226.31448 144.81999Z" fill-rule="nonzero"/><path fill="#1c4587" clip-path="url(#id_0)" d="M219.67372 143.57275C219.67372 146.05804 217.659 148.07275 215.17372 148.07275C212.68843 148.07275 210.67372 146.05804 210.67372 143.57275C210.67372 141.08748 212.68843 139.07275 215.17372 139.07275C217.659 139.07275 219.67372 141.08748 219.67372 143.57275Z" fill-rule="nonzero"/><path fill="#1c4587" clip-path="url(#id_0)" d="M239.28143 141.19633C239.28143 143.68163 237.26672 145.69633 234.78143 145.69633C232.29616 145.69633 230.28143 143.68163 230.28143 141.19633C230.28143 138.71106 232.29616 136.69633 234.78143 136.69633C237.26672 136.69633 239.28143 138.71106 239.28143 141.19633Z" fill-rule="nonzero"/><path fill="#1c4587" clip-path="url(#id_0)" d="M240.91199 140.31795C240.91199 142.80322 238.89726 144.81795 236.41199 144.81795C233.9267 144.81795 231.91199 142.80322 231.91199 140.31795C231.91199 137.83267 233.9267 135.81795 236.41199 135.81795C238.89726 135.81795 240.91199 137.83267 240.91199 140.31795Z" fill-rule="nonzero"/><path fill="#1c4587" clip-path="url(#id_0)" d="M259.29663 140.43086C259.29663 142.91614 257.28192 144.93086 254.79663 144.93086C252.31136 144.93086 250.29663 142.91614 250.29663 140.43086C250.29663 137.94557 252.31136 135.93086 254.79663 135.93086C257.28192 135.93086 259.29663 137.94557 259.29663 140.43086Z" fill-rule="nonzero"/><path fill="#1c4587" clip-path="url(#id_0)" d="M269.2643 137.62692C269.2643 140.1122 267.2496 142.12692 264.7643 142.12692C262.27902 142.12692 260.2643 140.1122 260.2643 137.62692C260.2643 135.14163 262.27902 133.12692 264.7643 133.12692C267.2496 133.12692 269.2643 135.14163 269.2643 137.62692Z" fill-rule="nonzero"/><path fill="#1c4587" clip-path="url(#id_0)" d="M279.4341 136.39195C279.4341 138.87723 277.41937 140.89195 274.9341 140.89195C272.44882 140.89195 270.4341 138.87723 270.4341 136.39195C270.4341 133.90666 272.44882 131.89195 274.9341 131.89195C277.41937 131.89195 279.4341 133.90666 279.4341 136.39195Z" fill-rule="nonzero"/><path fill="#1c4587" clip-path="url(#id_0)" d="M291.09738 135.3334C291.09738 137.8187 289.08264 139.8334 286.59738 139.8334C284.1121 139.8334 282.09738 137.8187 282.09738 135.3334C282.09738 132.84813 284.1121 130.8334 286.59738 130.8334C289.08264 130.8334 291.09738 132.84813 291.09738 135.3334Z" fill-rule="nonzero"/><path fill="#1c4587" clip-path="url(#id_0)" d="M297.55908 135.45161C297.55908 137.9369 295.54437 139.95161 293.05908 139.95161C290.5738 139.95161 288.55908 137.9369 288.55908 135.45161C288.55908 132.96634 290.5738 130.95161 293.05908 130.95161C295.54437 130.95161 297.55908 132.96634 297.55908 135.45161Z" fill-rule="nonzero"/><path fill="#1c4587" clip-path="url(#id_0)" d="M336.4082 132.87708C336.4082 135.36235 334.3935 137.37708 331.9082 137.37708C329.42294 137.37708 327.4082 135.36235 327.4082 132.87708C327.4082 130.39178 329.42294 128.37708 331.9082 128.37708C334.3935 128.37708 336.4082 130.39178 336.4082 132.87708Z" fill-rule="nonzero"/><path fill="#1c4587" clip-path="url(#id_0)" d="M342.3696 132.09981C342.3696 134.58508 340.3549 136.59981 337.8696 136.59981C335.38434 136.59981 333.3696 134.58508 333.3696 132.09981C333.3696 129.61453 335.38434 127.59981 337.8696 127.59981C340.3549 127.59981 342.3696 129.61453 342.3696 132.09981Z" fill-rule="nonzero"/><path fill="#1c4587" clip-path="url(#id_0)" d="M374.54965 128.17577C374.54965 130.66104 372.53494 132.67577 370.04965 132.67577C367.56436 132.67577 365.54965 130.66104 365.54965 128.17577C365.54965 125.69048 367.56436 123.67576 370.04965 123.67576C372.53494 123.67576 374.54965 125.69048 374.54965 128.17577Z" fill-rule="nonzero"/><path fill="#1c4587" clip-path="url(#id_0)" d="M403.53122 126.203156C403.53122 128.68843 401.5165 130.70316 399.03122 130.70316C396.54593 130.70316 394.53122 128.68843 394.53122 126.203156C394.53122 123.71787 396.54593 121.703156 399.03122 121.703156C401.5165 121.703156 403.53122 123.71787 403.53122 126.203156Z" fill-rule="nonzero"/><path fill="#1c4587" clip-path="url(#id_0)" d="M398.83575 126.01337C398.83575 128.49864 396.82104 130.51337 394.33575 130.51337C391.8505 130.51337 389.83575 128.49864 389.83575 126.01337C389.83575 123.52808 391.8505 121.51337 394.33575 121.51337C396.82104 121.51337 398.83575 123.52808 398.83575 126.01337Z" fill-rule="nonzero"/><path fill="#1c4587" clip-path="url(#id_0)" d="M430.57886 126.394325C430.57886 128.87961 428.56412 130.89433 426.07886 130.89433C423.59357 130.89433 421.57886 128.87961 421.57886 126.394325C421.57886 123.90905 423.59357 121.894325 426.07886 121.894325C428.56412 121.894325 430.57886 123.90905 430.57886 126.394325Z" fill-rule="nonzero"/><path fill="#1c4587" clip-path="url(#id_0)" d="M425.0926 126.17503C425.0926 128.66031 423.07788 130.67503 420.5926 130.67503C418.10733 130.67503 416.0926 128.66031 416.0926 126.17503C416.0926 123.68975 418.10733 121.67503 420.5926 121.67503C423.07788 121.67503 425.0926 123.68975 425.0926 126.17503Z" fill-rule="nonzero"/><path fill="#1c4587" clip-path="url(#id_0)" d="M443.77966 123.285416C443.77966 125.7707 441.76495 127.785416 439.27966 127.785416C436.7944 127.785416 434.77966 125.7707 434.77966 123.285416C434.77966 120.80013 436.7944 118.785416 439.27966 118.785416C441.76495 118.785416 443.77966 120.80013 443.77966 123.285416Z" fill-rule="nonzero"/><path fill="#1c4587" clip-path="url(#id_0)" d="M458.59314 123.79431C458.59314 126.279594 456.57843 128.29431 454.09314 128.29431C451.60785 128.29431 449.59314 126.279594 449.59314 123.79431C449.59314 121.30903 451.60785 119.29431 454.09314 119.29431C456.57843 119.29431 458.59314 121.30903 458.59314 123.79431Z" fill-rule="nonzero"/><path fill="#1c4587" clip-path="url(#id_0)" d="M468.7266 120.676735C468.7266 123.16202 466.71188 125.176735 464.2266 125.176735C461.7413 125.176735 459.7266 123.16202 459.7266 120.676735C459.7266 118.19145 461.7413 116.176735 464.2266 116.176735C466.71188 116.176735 468.7266 118.19145 468.7266 120.676735Z" fill-rule="nonzero"/><path fill="#1c4587" clip-path="url(#id_0)" d="M484.72412 116.55457C484.72412 119.039856 482.70938 121.05457 480.22412 121.05457C477.73883 121.05457 475.72412 119.039856 475.72412 116.55457C475.72412 114.0693 477.73883 112.05457 480.22412 112.05457C482.70938 112.05457 484.72412 114.0693 484.72412 116.55457Z" fill-rule="nonzero"/><path fill="#1c4587" clip-path="url(#id_0)" d="M474.23703 118.49878C474.23703 120.98406 472.22232 122.99878 469.73703 122.99878C467.25177 122.99878 465.23703 120.98406 465.23703 118.49878C465.23703 116.0135 467.25177 113.99878 469.73703 113.99878C472.22232 113.99878 474.23703 116.0135 474.23703 118.49878Z" fill-rule="nonzero"/><path fill="#1c4587" clip-path="url(#id_0)" d="M483.71048 116.24866C483.71048 118.73394 481.69577 120.74866 479.21048 120.74866C476.72522 120.74866 474.71048 118.73394 474.71048 116.24866C474.71048 113.763374 476.72522 111.74866 479.21048 111.74866C481.69577 111.74866 483.71048 113.763374 483.71048 116.24866Z" fill-rule="nonzero"/><path fill="#1c4587" clip-path="url(#id_0)" d="M508.45255 114.23217C508.45255 116.717445 506.43784 118.73217 503.95255 118.73217C501.46725 118.73217 499.45255 116.717445 499.45255 114.23217C499.45255 111.74689 501.46725 109.73217 503.95255 109.73217C506.43784 109.73217 508.45255 111.74689 508.45255 114.23217Z" fill-rule="nonzero"/><path fill="#1c4587" clip-path="url(#id_0)" d="M498.44736 113.64889C498.44736 116.13416 496.43262 118.14889 493.94736 118.14889C491.46207 118.14889 489.44736 116.13416 489.44736 113.64889C489.44736 111.163605 491.46207 109.14889 493.94736 109.14889C496.43262 109.14889 498.44736 111.163605 498.44736 113.64889Z" fill-rule="nonzero"/><path fill="#1c4587" clip-path="url(#id_0)" d="M506.85864 112.960785C506.85864 115.44607 504.84393 117.460785 502.35864 117.460785C499.87335 117.460785 497.85864 115.44607 497.85864 112.960785C497.85864 110.4755 499.87335 108.460785 502.35864 108.460785C504.84393 108.460785 506.85864 110.4755 506.85864 112.960785Z" fill-rule="nonzero"/><path fill="#1c4587" clip-path="url(#id_0)" d="M508.72058 111.47409C508.72058 113.95937 506.70587 115.97409 504.22058 115.97409C501.73532 115.97409 499.72058 113.95937 499.72058 111.47409C499.72058 108.98881 501.73532 106.97409 504.22058 106.97409C506.70587 106.97409 508.72058 108.98881 508.72058 111.47409Z" fill-rule="nonzero"/><path fill="#1c4587" clip-path="url(#id_0)" d="M499.0679 112.757065C499.0679 115.24235 497.05316 117.257065 494.5679 117.257065C492.0826 117.257065 490.0679 115.24235 490.0679 112.757065C490.0679 110.27178 492.0826 108.257065 494.5679 108.257065C497.05316 108.257065 499.0679 110.27178 499.0679 112.757065Z" fill-rule="nonzero"/><path fill="#1c4587" clip-path="url(#id_0)" d="M525.89105 111.35828C525.89105 113.84356 523.8763 115.85828 521.39105 115.85828C518.90576 115.85828 516.89105 113.84356 516.89105 111.35828C516.89105 108.87299 518.90576 106.85828 521.39105 106.85828C523.8763 106.85828 525.89105 108.87299 525.89105 111.35828Z" fill-rule="nonzero"/><path fill="#1c4587" clip-path="url(#id_0)" d="M526.6008 110.62142C526.6008 113.106705 524.58606 115.12142 522.1008 115.12142C519.61554 115.12142 517.6008 113.106705 517.6008 110.62142C517.6008 108.13614 519.61554 106.12142 522.1008 106.12142C524.58606 106.12142 526.6008 108.13614 526.6008 110.62142Z" fill-rule="nonzero"/><path fill="#1c4587" clip-path="url(#id_0)" d="M539.6575 109.26957C539.6575 111.75485 537.64276 113.76957 535.1575 113.76957C532.6722 113.76957 530.6575 111.75485 530.6575 109.26957C530.6575 106.78429 532.6722 104.76957 535.1575 104.76957C537.64276 104.76957 539.6575 106.78429 539.6575 109.26957Z" fill-rule="nonzero"/><path fill="#1c4587" clip-path="url(#id_0)" d="M526.1958 110.326485C526.1958 112.81177 524.1811 114.826485 521.6958 114.826485C519.2105 114.826485 517.1958 112.81177 517.1958 110.326485C517.1958 107.8412 519.2105 105.826485 521.6958 105.826485C524.1811 105.826485 526.1958 107.8412 526.1958 110.326485Z" fill-rule="nonzero"/><path fill="#1c4587" clip-path="url(#id_0)" d="M540.6272 108.56133C540.6272 111.04661 538.6125 113.06133 536.1272 113.06133C533.6419 113.06133 531.6272 111.04661 531.6272 108.56133C531.6272 106.07605 533.6419 104.06133 536.1272 104.06133C538.6125 104.06133 540.6272 106.07605 540.6272 108.56133Z" fill-rule="nonzero"/><path fill="#1c4587" clip-path="url(#id_0)" d="M545.6393 107.54427C545.6393 110.02955 543.6246 112.04427 541.1393 112.04427C538.65405 112.04427 536.6393 110.02955 536.6393 107.54427C536.6393 105.05899 538.65405 103.04427 541.1393 103.04427C543.6246 103.04427 545.6393 105.05899 545.6393 107.54427Z" fill-rule="nonzero"/><path fill="#1c4587" clip-path="url(#id_0)" d="M555.6513 107.34526C555.6513 109.830536 553.6366 111.84526 551.1513 111.84526C548.666 111.84526 546.6513 109.830536 546.6513 107.34526C546.6513 104.85998 548.666 102.84526 551.1513 102.84526C553.6366 102.84526 555.6513 104.85998 555.6513 107.34526Z" fill-rule="nonzero"/><path fill="#1c4587" clip-path="url(#id_0)" d="M540.29865 106.708145C540.29865 109.19343 538.28394 111.208145 535.79865 111.208145C533.31335 111.208145 531.29865 109.19343 531.29865 106.708145C531.29865 104.22286 533.31335 102.208145 535.79865 102.208145C538.28394 102.208145 540.29865 104.22286 540.29865 106.708145Z" fill-rule="nonzero"/><path fill="#1c4587" clip-path="url(#id_0)" d="M561.4735 104.58951C561.4735 107.07479 559.4588 109.08951 556.9735 109.08951C554.4882 109.08951 552.4735 107.07479 552.4735 104.58951C552.4735 102.104225 554.4882 100.08951 556.9735 100.08951C559.4588 100.08951 561.4735 102.104225 561.4735 104.58951Z" fill-rule="nonzero"/><path fill="#1c4587" clip-path="url(#id_0)" d="M577.0261 102.76545C577.0261 105.25073 575.01135 107.26545 572.5261 107.26545C570.04083 107.26545 568.0261 105.25073 568.0261 102.76545C568.0261 100.28017 570.04083 98.26545 572.5261 98.26545C575.01135 98.26545 577.0261 100.28017 577.0261 102.76545Z" fill-rule="nonzero"/><path fill="#1c4587" clip-path="url(#id_0)" d="M579.1433 102.85949C579.1433 105.344765 577.1286 107.35949 574.6433 107.35949C572.1581 107.35949 570.1433 105.344765 570.1433 102.85949C570.1433 100.37421 572.1581 98.35949 574.6433 98.35949C577.1286 98.35949 579.1433 100.37421 579.1433 102.85949Z" fill-rule="nonzero"/><path fill="#000000" d="M328.39062 346.9969Q329.23438 347.60626 330.23438 347.96564L329.39062 349.60626Q328.85938 349.45 328.35938 349.16876Q328.25 349.1219 326.82812 348.15314Q325.70312 348.65314 324.32812 348.65314Q321.6875 348.65314 320.1875 347.09064Q318.70312 345.52814 318.70312 342.71564Q318.70312 339.91876 320.20312 338.35626Q321.70312 336.79376 324.26562 336.79376Q326.8125 336.79376 328.29688 338.35626Q329.79688 339.91876 329.79688 342.71564Q329.79688 344.2 329.39062 345.325Q329.07812 346.1844 328.39062 346.9969ZM326.53125 345.6844Q326.96875 345.16876 327.1875 344.4344Q327.42188 343.6844 327.42188 342.71564Q327.42188 340.73126 326.54688 339.7625Q325.67188 338.77814 324.25 338.77814Q322.84375 338.77814 321.95312 339.7625Q321.07812 340.7469 321.07812 342.71564Q321.07812 344.73126 321.95312 345.73126Q322.84375 346.71564 324.1875 346.71564Q324.6875 346.71564 325.125 346.5594Q324.42188 346.09064 323.70312 345.84064L324.34375 344.5125Q325.48438 344.90314 326.53125 345.6844ZM331.17188 348.45L331.17188 336.9969L334.875 336.9969Q336.98438 336.9969 337.625 337.16876Q338.60938 337.41876 339.26562 338.29376Q339.9375 339.15314 339.9375 340.5125Q339.9375 341.575 339.54688 342.29376Q339.17188 343.0125 338.57812 343.41876Q338.0 343.825 337.39062 343.96564Q336.5625 344.1219 334.98438 344.1219L333.48438 344.1219L333.48438 348.45L331.17188 348.45ZM333.48438 338.9344L333.48438 342.1844L334.75 342.1844Q336.10938 342.1844 336.5625 342.0125Q337.03125 341.825 337.29688 341.45Q337.5625 341.0594 337.5625 340.54376Q337.5625 339.91876 337.1875 339.5125Q336.82812 339.10626 336.26562 339.0125Q335.84375 338.9344 334.59375 338.9344L333.48438 338.9344ZM341.57812 344.71564L343.82812 344.4969Q344.03125 345.6375 344.65625 346.16876Q345.28125 346.7 346.32812 346.7Q347.45312 346.7 348.01562 346.23126Q348.57812 345.7469 348.57812 345.1219Q348.57812 344.71564 348.34375 344.4344Q348.10938 344.1375 347.51562 343.9344Q347.10938 343.79376 345.65625 343.4344Q343.79688 342.96564 343.04688 342.29376Q342.0 341.35626 342.0 339.9969Q342.0 339.1219 342.48438 338.35626Q342.98438 337.59064 343.92188 337.2Q344.85938 336.79376 346.17188 336.79376Q348.32812 336.79376 349.42188 337.7469Q350.51562 338.6844 350.5625 340.2625L348.25 340.3719Q348.10938 339.48126 347.60938 339.10626Q347.125 338.71564 346.15625 338.71564Q345.14062 338.71564 344.57812 339.1219Q344.20312 339.3875 344.20312 339.84064Q344.20312 340.2469 344.54688 340.52814Q344.98438 340.90314 346.67188 341.3094Q348.35938 341.7 349.17188 342.1219Q349.98438 342.54376 350.4375 343.29376Q350.89062 344.02814 350.89062 345.10626Q350.89062 346.09064 350.34375 346.95Q349.79688 347.8094 348.79688 348.23126Q347.79688 348.65314 346.3125 348.65314Q344.14062 348.65314 342.96875 347.65314Q341.8125 346.6375 341.57812 344.71564Z" fill-rule="nonzero"/><path fill="#000000" d="M29.331263 184.68333L27.409388 184.68333L27.409388 179.69896L31.971888 179.69896Q32.67501 180.43333 33.221886 181.80833Q33.753136 183.18333 33.753136 184.60521Q33.753136 186.40208 33.003136 187.74583Q32.23751 189.07396 30.831263 189.74583Q29.425013 190.41771 27.784388 190.41771Q25.987513 190.41771 24.596888 189.66771Q23.206263 188.91771 22.471888 187.46458Q21.893763 186.37083 21.893763 184.73021Q21.893763 182.58958 22.800013 181.40208Q23.690638 180.19896 25.268763 179.85521L25.690638 182.15208Q24.846888 182.38646 24.362513 183.05833Q23.878138 183.73021 23.878138 184.73021Q23.878138 186.24583 24.846888 187.13646Q25.800013 188.02708 27.690638 188.02708Q29.721888 188.02708 30.753138 187.12083Q31.768763 186.21458 31.768763 184.74583Q31.768763 184.02708 31.487513 183.29271Q31.190638 182.55833 30.784388 182.04271L29.331263 182.04271L29.331263 184.68333ZM24.128138 178.02708L22.096888 178.02708L22.096888 175.83958L24.128138 175.83958L24.128138 178.02708ZM33.55001 178.02708L25.253138 178.02708L25.253138 175.83958L33.55001 175.83958L33.55001 178.02708ZM22.096888 174.01146L22.096888 169.43333Q22.096888 168.07396 22.206263 167.40208Q22.315638 166.73021 22.675013 166.21458Q23.034388 165.68333 23.643763 165.33958Q24.237513 164.98021 24.971888 164.98021Q25.784388 164.98021 26.456263 165.41771Q27.128138 165.83958 27.456263 166.58958Q27.768763 165.54271 28.503138 164.98021Q29.237513 164.41771 30.221888 164.41771Q31.003138 164.41771 31.753138 164.77708Q32.48751 165.13646 32.92501 165.77708Q33.36251 166.40208 33.471886 167.32396Q33.534386 167.90208 33.55001 170.10521L33.55001 174.01146L22.096888 174.01146ZM24.003138 171.69896L26.643763 171.69896L26.643763 170.18333Q26.643763 168.82396 26.612513 168.49583Q26.534388 167.90208 26.206263 167.57396Q25.862513 167.23021 25.300013 167.23021Q24.768763 167.23021 24.440638 167.52708Q24.112513 167.80833 24.034388 168.38646Q24.003138 168.73021 24.003138 170.37083L24.003138 171.69896ZM28.550013 171.69896L31.612513 171.69896L31.612513 169.55833Q31.612513 168.30833 31.550013 167.96458Q31.456263 167.44896 31.096888 167.13646Q30.721888 166.80833 30.112513 166.80833Q29.596888 166.80833 29.237513 167.05833Q28.878138 167.30833 28.721888 167.77708Q28.550013 168.24583 28.550013 169.82396L28.550013 171.69896Z" fill-rule="nonzero"/><path fill="#000000" d="M76.05 289.21564Q76.05 287.6844 76.3625 286.7625Q76.675 285.825 77.28438 285.325Q77.90938 284.825 78.84688 284.825Q79.53438 284.825 80.05 285.10626Q80.58125 285.3875 80.925 285.91876Q81.26875 286.4344 81.45625 287.1844Q81.64375 287.9344 81.64375 289.21564Q81.64375 290.73126 81.33125 291.65314Q81.03438 292.575 80.40938 293.09064Q79.8 293.59064 78.84688 293.59064Q77.6125 293.59064 76.89375 292.7Q76.05 291.6375 76.05 289.21564ZM77.12813 289.21564Q77.12813 291.325 77.62813 292.02814Q78.12813 292.73126 78.84688 292.73126Q79.58125 292.73126 80.06563 292.02814Q80.56563 291.325 80.56563 289.21564Q80.56563 287.09064 80.06563 286.40314Q79.58125 285.7 78.83125 285.7Q78.1125 285.7 77.675 286.3094Q77.12813 287.09064 77.12813 289.21564Z" fill-rule="nonzero"/><path fill="#000000" d="M76.05 231.81667L77.15938 231.72292Q77.28438 232.53542 77.72188 232.94167Q78.175 233.34792 78.81563 233.34792Q79.56563 233.34792 80.09688 232.76979Q80.62813 232.19167 80.62813 231.25417Q80.62813 230.34792 80.1125 229.83229Q79.6125 229.30104 78.78438 229.30104Q78.28438 229.30104 77.8625 229.53542Q77.45625 229.76979 77.22188 230.12917L76.2375 230.00417L77.06563 225.59792L81.34688 225.59792L81.34688 226.59792L77.90938 226.59792L77.45625 228.91042Q78.22188 228.36354 79.06563 228.36354Q80.19063 228.36354 80.95625 229.14479Q81.7375 229.92604 81.7375 231.16042Q81.7375 232.31667 81.06563 233.17604Q80.2375 234.20729 78.81563 234.20729Q77.64375 234.20729 76.89375 233.55104Q76.15938 232.89479 76.05 231.81667Z" fill-rule="nonzero"/><path fill="#000000" d="M73.01875 174.68333L71.97188 174.68333L71.97188 167.96458Q71.58125 168.32396 70.95625 168.69896Q70.34688 169.05833 69.8625 169.23021L69.8625 168.21458Q70.7375 167.79271 71.39375 167.21458Q72.06563 166.62083 72.34688 166.05833L73.01875 166.05833L73.01875 174.68333ZM76.05 170.44896Q76.05 168.91771 76.3625 167.99583Q76.675 167.05833 77.28438 166.55833Q77.90938 166.05833 78.84688 166.05833Q79.53438 166.05833 80.05 166.33958Q80.58125 166.62083 80.925 167.15208Q81.26875 167.66771 81.45625 168.41771Q81.64375 169.16771 81.64375 170.44896Q81.64375 171.96458 81.33125 172.88646Q81.03438 173.80833 80.40938 174.32396Q79.8 174.82396 78.84688 174.82396Q77.6125 174.82396 76.89375 173.93333Q76.05 172.87083 76.05 170.44896ZM77.12813 170.44896Q77.12813 172.55833 77.62813 173.26146Q78.12813 173.96458 78.84688 173.96458Q79.58125 173.96458 80.06563 173.26146Q80.56563 172.55833 80.56563 170.44896Q80.56563 168.32396 80.06563 167.63646Q79.58125 166.93333 78.83125 166.93333Q78.1125 166.93333 77.675 167.54271Q77.12813 168.32396 77.12813 170.44896Z" fill-rule="nonzero"/><path fill="#000000" d="M73.01875 115.3L71.97188 115.3L71.97188 108.58125Q71.58125 108.94063 70.95625 109.31563Q70.34688 109.675 69.8625 109.84688L69.8625 108.83125Q70.7375 108.40938 71.39375 107.83125Q72.06563 107.2375 72.34688 106.675L73.01875 106.675L73.01875 115.3ZM76.05 113.05L77.15938 112.95625Q77.28438 113.76875 77.72188 114.175Q78.175 114.58125 78.81563 114.58125Q79.56563 114.58125 80.09688 114.00313Q80.62813 113.425 80.62813 112.4875Q80.62813 111.58125 80.1125 111.06563Q79.6125 110.53438 78.78438 110.53438Q78.28438 110.53438 77.8625 110.76875Q77.45625 111.00313 77.22188 111.3625L76.2375 111.2375L77.06563 106.83125L81.34688 106.83125L81.34688 107.83125L77.90938 107.83125L77.45625 110.14375Q78.22188 109.59688 79.06563 109.59688Q80.19063 109.59688 80.95625 110.37813Q81.7375 111.15938 81.7375 112.39375Q81.7375 113.55 81.06563 114.40938Q80.2375 115.44063 78.81563 115.44063Q77.64375 115.44063 76.89375 114.78438Q76.15938 114.12813 76.05 113.05Z" fill-rule="nonzero"/><path fill="#000000" d="M74.59688 54.901043L74.59688 55.916668L68.90938 55.916668Q68.90938 55.541668 69.03438 55.182293Q69.25313 54.604168 69.72188 54.041668Q70.20625 53.479168 71.1125 52.744793Q72.51875 51.588543 73.00313 50.916668Q73.50313 50.244793 73.50313 49.651043Q73.50313 49.026043 73.05 48.604168Q72.59688 48.166668 71.87813 48.166668Q71.1125 48.166668 70.65938 48.619793Q70.20625 49.072918 70.19063 49.885418L69.1125 49.776043Q69.22188 48.557293 69.94063 47.932293Q70.675 47.291668 71.90938 47.291668Q73.14375 47.291668 73.8625 47.979168Q74.58125 48.666668 74.58125 49.682293Q74.58125 50.197918 74.3625 50.697918Q74.15938 51.182293 73.65938 51.744793Q73.175 52.291668 72.05 53.244793Q71.09688 54.041668 70.81563 54.338543Q70.55 54.619793 70.37813 54.901043L74.59688 54.901043ZM76.05 51.682293Q76.05 50.151043 76.3625 49.229168Q76.675 48.291668 77.28438 47.791668Q77.90938 47.291668 78.84688 47.291668Q79.53438 47.291668 80.05 47.572918Q80.58125 47.854168 80.925 48.385418Q81.26875 48.901043 81.45625 49.651043Q81.64375 50.401043 81.64375 51.682293Q81.64375 53.197918 81.33125 54.119793Q81.03438 55.041668 80.40938 55.557293Q79.8 56.057293 78.84688 56.057293Q77.6125 56.057293 76.89375 55.166668Q76.05 54.104168 76.05 51.682293ZM77.12813 51.682293Q77.12813 53.791668 77.62813 54.494793Q78.12813 55.197918 78.84688 55.197918Q79.58125 55.197918 80.06563 54.494793Q80.56563 53.791668 80.56563 51.682293Q80.56563 49.557293 80.06563 48.869793Q79.58125 48.166668 78.83125 48.166668Q78.1125 48.166668 77.675 48.776043Q77.12813 49.557293 77.12813 51.682293Z" fill-rule="nonzero"/><path fill="#000000" d="M161.29965 305.4344L161.29965 306.45L155.61215 306.45Q155.61215 306.075 155.73715 305.71564Q155.9559 305.1375 156.42465 304.575Q156.90903 304.0125 157.81528 303.27814Q159.22153 302.1219 159.7059 301.45Q160.2059 300.77814 160.2059 300.1844Q160.2059 299.5594 159.75278 299.1375Q159.29965 298.7 158.5809 298.7Q157.81528 298.7 157.36215 299.15314Q156.90903 299.60626 156.8934 300.41876L155.81528 300.3094Q155.92465 299.09064 156.6434 298.46564Q157.37778 297.825 158.61215 297.825Q159.84653 297.825 160.56528 298.5125Q161.28403 299.2 161.28403 300.21564Q161.28403 300.73126 161.06528 301.23126Q160.86215 301.71564 160.36215 302.27814Q159.87778 302.825 158.75278 303.77814Q157.79965 304.575 157.5184 304.8719Q157.25278 305.15314 157.0809 305.4344L161.29965 305.4344ZM162.75278 302.21564Q162.75278 300.6844 163.06528 299.7625Q163.37778 298.825 163.98715 298.325Q164.61215 297.825 165.54965 297.825Q166.23715 297.825 166.75278 298.10626Q167.28403 298.3875 167.62778 298.91876Q167.97153 299.4344 168.15903 300.1844Q168.34653 300.9344 168.34653 302.21564Q168.34653 303.73126 168.03403 304.65314Q167.73715 305.575 167.11215 306.09064Q166.50278 306.59064 165.54965 306.59064Q164.31528 306.59064 163.59653 305.7Q162.75278 304.6375 162.75278 302.21564ZM163.8309 302.21564Q163.8309 304.325 164.3309 305.02814Q164.8309 305.73126 165.54965 305.73126Q166.28403 305.73126 166.7684 305.02814Q167.2684 304.325 167.2684 302.21564Q167.2684 300.09064 166.7684 299.40314Q166.28403 298.7 165.53403 298.7Q164.81528 298.7 164.37778 299.3094Q163.8309 300.09064 163.8309 302.21564ZM169.75278 302.21564Q169.75278 300.6844 170.06528 299.7625Q170.37778 298.825 170.98715 298.325Q171.61215 297.825 172.54965 297.825Q173.23715 297.825 173.75278 298.10626Q174.28403 298.3875 174.62778 298.91876Q174.97153 299.4344 175.15903 300.1844Q175.34653 300.9344 175.34653 302.21564Q175.34653 303.73126 175.03403 304.65314Q174.73715 305.575 174.11215 306.09064Q173.50278 306.59064 172.54965 306.59064Q171.31528 306.59064 170.59653 305.7Q169.75278 304.6375 169.75278 302.21564ZM170.8309 302.21564Q170.8309 304.325 171.3309 305.02814Q171.8309 305.73126 172.54965 305.73126Q173.28403 305.73126 173.7684 305.02814Q174.2684 304.325 174.2684 302.21564Q174.2684 300.09064 173.7684 299.40314Q173.28403 298.7 172.53403 298.7Q171.81528 298.7 171.37778 299.3094Q170.8309 300.09064 170.8309 302.21564Z" fill-rule="nonzero"/><path fill="#000000" d="M243.67699 306.45L243.67699 304.3875L239.95824 304.3875L239.95824 303.41876L243.88011 297.85626L244.73949 297.85626L244.73949 303.41876L245.89574 303.41876L245.89574 304.3875L244.73949 304.3875L244.73949 306.45L243.67699 306.45ZM243.67699 303.41876L243.67699 299.5594L240.98949 303.41876L243.67699 303.41876ZM247.30199 302.21564Q247.30199 300.6844 247.61449 299.7625Q247.92699 298.825 248.53636 298.325Q249.16136 297.825 250.09886 297.825Q250.78636 297.825 251.30199 298.10626Q251.83324 298.3875 252.17699 298.91876Q252.52074 299.4344 252.70824 300.1844Q252.89574 300.9344 252.89574 302.21564Q252.89574 303.73126 252.58324 304.65314Q252.28636 305.575 251.66136 306.09064Q251.05199 306.59064 250.09886 306.59064Q248.86449 306.59064 248.14574 305.7Q247.30199 304.6375 247.30199 302.21564ZM248.38011 302.21564Q248.38011 304.325 248.88011 305.02814Q249.38011 305.73126 250.09886 305.73126Q250.83324 305.73126 251.31761 305.02814Q251.81761 304.325 251.81761 302.21564Q251.81761 300.09064 251.31761 299.40314Q250.83324 298.7 250.08324 298.7Q249.36449 298.7 248.92699 299.3094Q248.38011 300.09064 248.38011 302.21564ZM254.30199 302.21564Q254.30199 300.6844 254.61449 299.7625Q254.92699 298.825 255.53636 298.325Q256.16138 297.825 257.09888 297.825Q257.78638 297.825 258.302 298.10626Q258.83325 298.3875 259.177 298.91876Q259.52075 299.4344 259.70825 300.1844Q259.89575 300.9344 259.89575 302.21564Q259.89575 303.73126 259.58325 304.65314Q259.28638 305.575 258.66138 306.09064Q258.052 306.59064 257.09888 306.59064Q255.86449 306.59064 255.14574 305.7Q254.30199 304.6375 254.30199 302.21564ZM255.38011 302.21564Q255.38011 304.325 255.88011 305.02814Q256.38013 305.73126 257.09888 305.73126Q257.83325 305.73126 258.31763 305.02814Q258.81763 304.325 258.81763 302.21564Q258.81763 300.09064 258.31763 299.40314Q257.83325 298.7 257.08325 298.7Q256.3645 298.7 255.92699 299.3094Q255.38011 300.09064 255.38011 302.21564Z" fill-rule="nonzero"/><path fill="#000000" d="M330.31995 299.96564L329.27307 300.04376Q329.13245 299.41876 328.88245 299.1375Q328.44495 298.6844 327.81995 298.6844Q327.31995 298.6844 326.92932 298.96564Q326.44495 299.34064 326.14807 300.04376Q325.86682 300.73126 325.8512 302.0125Q326.2262 301.4344 326.77307 301.15314Q327.33557 300.8719 327.94495 300.8719Q328.99182 300.8719 329.7262 301.65314Q330.4762 302.4344 330.4762 303.65314Q330.4762 304.46564 330.11682 305.16876Q329.77307 305.85626 329.1637 306.23126Q328.55432 306.59064 327.7887 306.59064Q326.46057 306.59064 325.63245 305.6219Q324.80432 304.65314 324.80432 302.4344Q324.80432 299.9344 325.7262 298.8094Q326.52307 297.825 327.88245 297.825Q328.89807 297.825 329.5387 298.40314Q330.19495 298.96564 330.31995 299.96564ZM326.02307 303.66876Q326.02307 304.21564 326.24182 304.71564Q326.4762 305.2 326.88245 305.46564Q327.30432 305.73126 327.77307 305.73126Q328.42932 305.73126 328.9137 305.2Q329.39807 304.65314 329.39807 303.73126Q329.39807 302.84064 328.9137 302.325Q328.44495 301.8094 327.7262 301.8094Q327.00745 301.8094 326.50745 302.325Q326.02307 302.84064 326.02307 303.66876ZM331.8512 302.21564Q331.8512 300.6844 332.1637 299.7625Q332.4762 298.825 333.08557 298.325Q333.71057 297.825 334.64807 297.825Q335.33557 297.825 335.8512 298.10626Q336.38245 298.3875 336.7262 298.91876Q337.06995 299.4344 337.25745 300.1844Q337.44495 300.9344 337.44495 302.21564Q337.44495 303.73126 337.13245 304.65314Q336.83557 305.575 336.21057 306.09064Q335.6012 306.59064 334.64807 306.59064Q333.4137 306.59064 332.69495 305.7Q331.8512 304.6375 331.8512 302.21564ZM332.92932 302.21564Q332.92932 304.325 333.42932 305.02814Q333.92932 305.73126 334.64807 305.73126Q335.38245 305.73126 335.86682 305.02814Q336.36682 304.325 336.36682 302.21564Q336.36682 300.09064 335.86682 299.40314Q335.38245 298.7 334.63245 298.7Q333.9137 298.7 333.4762 299.3094Q332.92932 300.09064 332.92932 302.21564ZM338.8512 302.21564Q338.8512 300.6844 339.1637 299.7625Q339.4762 298.825 340.08557 298.325Q340.71057 297.825 341.64807 297.825Q342.33557 297.825 342.8512 298.10626Q343.38245 298.3875 343.7262 298.91876Q344.06995 299.4344 344.25745 300.1844Q344.44495 300.9344 344.44495 302.21564Q344.44495 303.73126 344.13245 304.65314Q343.83557 305.575 343.21057 306.09064Q342.6012 306.59064 341.64807 306.59064Q340.4137 306.59064 339.69495 305.7Q338.8512 304.6375 338.8512 302.21564ZM339.92932 302.21564Q339.92932 304.325 340.42932 305.02814Q340.92932 305.73126 341.64807 305.73126Q342.38245 305.73126 342.86682 305.02814Q343.36682 304.325 343.36682 302.21564Q343.36682 300.09064 342.86682 299.40314Q342.38245 298.7 341.63245 298.7Q340.9137 298.7 340.4762 299.3094Q339.92932 300.09064 339.92932 302.21564Z" fill-rule="nonzero"/><path fill="#000000" d="M411.02542 301.79376Q410.36917 301.54376 410.04105 301.10626Q409.72855 300.65314 409.72855 300.04376Q409.72855 299.10626 410.40042 298.46564Q411.08792 297.825 412.1973 297.825Q413.3223 297.825 414.0098 298.48126Q414.6973 299.1375 414.6973 300.075Q414.6973 300.66876 414.3848 301.10626Q414.0723 301.54376 413.43167 301.79376Q414.22855 302.04376 414.6348 302.6219Q415.04105 303.2 415.04105 303.9969Q415.04105 305.09064 414.2598 305.84064Q413.49417 306.59064 412.21292 306.59064Q410.9473 306.59064 410.16605 305.84064Q409.3848 305.09064 409.3848 303.96564Q409.3848 303.1219 409.80667 302.5594Q410.24417 301.9969 411.02542 301.79376ZM410.80667 299.9969Q410.80667 300.60626 411.1973 300.9969Q411.60355 301.3875 412.22855 301.3875Q412.83792 301.3875 413.22855 301.0125Q413.61917 300.6219 413.61917 300.0594Q413.61917 299.48126 413.21292 299.09064Q412.80667 298.6844 412.21292 298.6844Q411.60355 298.6844 411.1973 299.075Q410.80667 299.46564 410.80667 299.9969ZM410.47855 303.96564Q410.47855 304.41876 410.68167 304.84064Q410.90042 305.2625 411.3223 305.4969Q411.74417 305.73126 412.22855 305.73126Q412.97855 305.73126 413.46292 305.2469Q413.96292 304.7625 413.96292 304.0125Q413.96292 303.2469 413.46292 302.7469Q412.96292 302.2469 412.1973 302.2469Q411.4473 302.2469 410.96292 302.7469Q410.47855 303.23126 410.47855 303.96564ZM416.40042 302.21564Q416.40042 300.6844 416.71292 299.7625Q417.02542 298.825 417.6348 298.325Q418.2598 297.825 419.1973 297.825Q419.8848 297.825 420.40042 298.10626Q420.93167 298.3875 421.27542 298.91876Q421.61917 299.4344 421.80667 300.1844Q421.99417 300.9344 421.99417 302.21564Q421.99417 303.73126 421.68167 304.65314Q421.3848 305.575 420.7598 306.09064Q420.15042 306.59064 419.1973 306.59064Q417.96292 306.59064 417.24417 305.7Q416.40042 304.6375 416.40042 302.21564ZM417.47855 302.21564Q417.47855 304.325 417.97855 305.02814Q418.47855 305.73126 419.1973 305.73126Q419.93167 305.73126 420.41605 305.02814Q420.91605 304.325 420.91605 302.21564Q420.91605 300.09064 420.41605 299.40314Q419.93167 298.7 419.18167 298.7Q418.46292 298.7 418.02542 299.3094Q417.47855 300.09064 417.47855 302.21564ZM423.40042 302.21564Q423.40042 300.6844 423.71292 299.7625Q424.02542 298.825 424.6348 298.325Q425.2598 297.825 426.1973 297.825Q426.8848 297.825 427.40042 298.10626Q427.93167 298.3875 428.27542 298.91876Q428.61917 299.4344 428.80667 300.1844Q428.99417 300.9344 428.99417 302.21564Q428.99417 303.73126 428.68167 304.65314Q428.3848 305.575 427.7598 306.09064Q427.15042 306.59064 426.1973 306.59064Q424.96292 306.59064 424.24417 305.7Q423.40042 304.6375 423.40042 302.21564ZM424.47855 302.21564Q424.47855 304.325 424.97855 305.02814Q425.47855 305.73126 426.1973 305.73126Q426.93167 305.73126 427.41605 305.02814Q427.91605 304.325 427.91605 302.21564Q427.91605 300.09064 427.41605 299.40314Q426.93167 298.7 426.18167 298.7Q425.46292 298.7 425.02542 299.3094Q424.47855 300.09064 424.47855 302.21564Z" fill-rule="nonzero"/><path fill="#000000" d="M494.4184 306.45L493.37152 306.45L493.37152 299.73126Q492.9809 300.09064 492.3559 300.46564Q491.74652 300.825 491.26215 300.9969L491.26215 299.98126Q492.13715 299.5594 492.7934 298.98126Q493.46527 298.3875 493.74652 297.825L494.4184 297.825L494.4184 306.45ZM497.44965 302.21564Q497.44965 300.6844 497.76215 299.7625Q498.07465 298.825 498.68402 298.325Q499.30902 297.825 500.24652 297.825Q500.93402 297.825 501.44965 298.10626Q501.9809 298.3875 502.32465 298.91876Q502.6684 299.4344 502.8559 300.1844Q503.0434 300.9344 503.0434 302.21564Q503.0434 303.73126 502.7309 304.65314Q502.43402 305.575 501.80902 306.09064Q501.19965 306.59064 500.24652 306.59064Q499.01215 306.59064 498.2934 305.7Q497.44965 304.6375 497.44965 302.21564ZM498.52777 302.21564Q498.52777 304.325 499.02777 305.02814Q499.52777 305.73126 500.24652 305.73126Q500.9809 305.73126 501.46527 305.02814Q501.96527 304.325 501.96527 302.21564Q501.96527 300.09064 501.46527 299.40314Q500.9809 298.7 500.2309 298.7Q499.51215 298.7 499.07465 299.3094Q498.52777 300.09064 498.52777 302.21564ZM504.44965 302.21564Q504.44965 300.6844 504.76215 299.7625Q505.07465 298.825 505.68402 298.325Q506.30902 297.825 507.24652 297.825Q507.93402 297.825 508.44965 298.10626Q508.9809 298.3875 509.32465 298.91876Q509.6684 299.4344 509.8559 300.1844Q510.0434 300.9344 510.0434 302.21564Q510.0434 303.73126 509.7309 304.65314Q509.43402 305.575 508.80902 306.09064Q508.19965 306.59064 507.24652 306.59064Q506.01215 306.59064 505.2934 305.7Q504.44965 304.6375 504.44965 302.21564ZM505.52777 302.21564Q505.52777 304.325 506.02777 305.02814Q506.52777 305.73126 507.24652 305.73126Q507.9809 305.73126 508.46527 305.02814Q508.96527 304.325 508.96527 302.21564Q508.96527 300.09064 508.46527 299.40314Q507.9809 298.7 507.2309 298.7Q506.51215 298.7 506.07465 299.3094Q505.52777 300.09064 505.52777 302.21564ZM511.44965 302.21564Q511.44965 300.6844 511.76215 299.7625Q512.07465 298.825 512.684 298.325Q513.309 297.825 514.2465 297.825Q514.934 297.825 515.44965 298.10626Q515.9809 298.3875 516.32465 298.91876Q516.6684 299.4344 516.8559 300.1844Q517.0434 300.9344 517.0434 302.21564Q517.0434 303.73126 516.7309 304.65314Q516.434 305.575 515.809 306.09064Q515.19965 306.59064 514.2465 306.59064Q513.01215 306.59064 512.2934 305.7Q511.44965 304.6375 511.44965 302.21564ZM512.5278 302.21564Q512.5278 304.325 513.0278 305.02814Q513.5278 305.73126 514.2465 305.73126Q514.9809 305.73126 515.4653 305.02814Q515.9653 304.325 515.9653 302.21564Q515.9653 300.09064 515.4653 299.40314Q514.9809 298.7 514.2309 298.7Q513.51215 298.7 513.07465 299.3094Q512.5278 300.09064 512.5278 302.21564Z" fill-rule="nonzero"/><path fill="#1c4587" d="M179.5 25.55C179.5 28.863708 176.8137 31.55 173.5 31.55C170.1863 31.55 167.5 28.863708 167.5 25.55C167.5 22.236292 170.1863 19.55 173.5 19.55C176.8137 19.55 179.5 22.236292 179.5 25.55Z" fill-rule="nonzero"/><path fill="#1a1a1a" d="M192.35938 28.784374Q191.76562 29.284374 191.21875 29.4875Q190.6875 29.690624 190.0625 29.690624Q189.03125 29.690624 188.48438 29.190624Q187.9375 28.690624 187.9375 27.909374Q187.9375 27.45625 188.14062 27.08125Q188.34375 26.690624 188.6875 26.471874Q189.03125 26.2375 189.45312 26.128124Q189.75 26.034374 190.39062 25.95625Q191.65625 25.815624 192.26562 25.596874Q192.26562 25.378124 192.26562 25.33125Q192.26562 24.675 191.96875 24.409374Q191.5625 24.065624 190.76562 24.065624Q190.03125 24.065624 189.67188 24.33125Q189.3125 24.58125 189.14062 25.2375L188.10938 25.096874Q188.25 24.440624 188.57812 24.034374Q188.90625 23.628124 189.51562 23.409374Q190.125 23.190624 190.92188 23.190624Q191.71875 23.190624 192.21875 23.378124Q192.71875 23.565624 192.95312 23.846874Q193.1875 24.128124 193.28125 24.565624Q193.32812 24.83125 193.32812 25.534374L193.32812 26.940624Q193.32812 28.409374 193.39062 28.8Q193.46875 29.190624 193.67188 29.55L192.5625 29.55Q192.40625 29.221874 192.35938 28.784374ZM192.26562 26.425Q191.6875 26.659374 190.54688 26.83125Q189.89062 26.925 189.625 27.05Q189.35938 27.159374 189.20312 27.378124Q189.0625 27.596874 189.0625 27.878124Q189.0625 28.3 189.375 28.58125Q189.70312 28.8625 190.3125 28.8625Q190.92188 28.8625 191.39062 28.596874Q191.875 28.33125 192.09375 27.8625Q192.26562 27.503124 192.26562 26.815624L192.26562 26.425ZM197.01562 29.55L194.65625 23.33125L195.76562 23.33125L197.10938 27.05Q197.3125 27.659374 197.5 28.3Q197.64062 27.815624 197.89062 27.128124L199.28125 23.33125L200.35938 23.33125L198.0 29.55L197.01562 29.55ZM200.09375 30.065624L201.125 30.221874Q201.1875 30.690624 201.48438 30.909374Q201.875 31.20625 202.54688 31.20625Q203.28125 31.20625 203.67188 30.909374Q204.07812 30.6125 204.21875 30.096874Q204.3125 29.76875 204.29688 28.7375Q203.60938 29.55 202.57812 29.55Q201.29688 29.55 200.59375 28.628124Q199.89062 27.690624 199.89062 26.409374Q199.89062 25.51875 200.20312 24.76875Q200.53125 24.003124 201.14062 23.596874Q201.75 23.190624 202.57812 23.190624Q203.6875 23.190624 204.40625 24.08125L204.40625 23.33125L205.375 23.33125L205.375 28.70625Q205.375 30.159374 205.07812 30.76875Q204.78125 31.378124 204.14062 31.721874Q203.5 32.08125 202.5625 32.08125Q201.45312 32.08125 200.76562 31.58125Q200.07812 31.08125 200.09375 30.065624ZM200.96875 26.33125Q200.96875 27.55 201.45312 28.1125Q201.9375 28.675 202.67188 28.675Q203.40625 28.675 203.89062 28.1125Q204.39062 27.55 204.39062 26.3625Q204.39062 25.221874 203.875 24.64375Q203.375 24.065624 202.65625 24.065624Q201.95312 24.065624 201.45312 24.64375Q200.96875 25.20625 200.96875 26.33125ZM206.875 26.971874L206.875 25.909374L210.125 25.909374L210.125 26.971874L206.875 26.971874ZM211.29688 29.55L211.29688 23.33125L212.23438 23.33125L212.23438 24.20625Q212.53125 23.7375 213.01562 23.471874Q213.5 23.190624 214.125 23.190624Q214.8125 23.190624 215.25 23.471874Q215.70312 23.753124 215.875 24.26875Q216.625 23.190624 217.79688 23.190624Q218.73438 23.190624 219.21875 23.70625Q219.71875 24.20625 219.71875 25.284374L219.71875 29.55L218.67188 29.55L218.67188 25.628124Q218.67188 25.003124 218.5625 24.721874Q218.46875 24.440624 218.20312 24.26875Q217.9375 24.096874 217.5625 24.096874Q216.90625 24.096874 216.46875 24.534374Q216.04688 24.971874 216.04688 25.940624L216.04688 29.55L214.98438 29.55L214.98438 25.503124Q214.98438 24.8 214.71875 24.45625Q214.46875 24.096874 213.89062 24.096874Q213.4375 24.096874 213.0625 24.33125Q212.6875 24.565624 212.51562 25.01875Q212.34375 25.471874 212.34375 26.315624L212.34375 29.55L211.29688 29.55ZM226.54688 27.55L227.64062 27.675Q227.39062 28.628124 226.6875 29.159374Q225.98438 29.690624 224.90625 29.690624Q223.54688 29.690624 222.73438 28.846874Q221.9375 28.003124 221.9375 26.4875Q221.9375 24.925 222.75 24.065624Q223.5625 23.190624 224.84375 23.190624Q226.09375 23.190624 226.875 24.034374Q227.67188 24.878124 227.67188 26.425Q227.67188 26.51875 227.67188 26.70625L223.03125 26.70625Q223.09375 27.7375 223.60938 28.284374Q224.125 28.815624 224.90625 28.815624Q225.48438 28.815624 225.89062 28.51875Q226.3125 28.20625 226.54688 27.55ZM223.09375 25.846874L226.5625 25.846874Q226.5 25.05 226.17188 24.659374Q225.65625 24.05 224.85938 24.05Q224.125 24.05 223.625 24.534374Q223.14062 25.01875 223.09375 25.846874ZM229.29688 29.55L229.29688 23.33125L230.23438 23.33125L230.23438 24.20625Q230.53125 23.7375 231.01562 23.471874Q231.5 23.190624 232.125 23.190624Q232.8125 23.190624 233.25 23.471874Q233.70312 23.753124 233.875 24.26875Q234.625 23.190624 235.79688 23.190624Q236.73438 23.190624 237.21875 23.70625Q237.71875 24.20625 237.71875 25.284374L237.71875 29.55L236.67188 29.55L236.67188 25.628124Q236.67188 25.003124 236.5625 24.721874Q236.46875 24.440624 236.20312 24.26875Q235.9375 24.096874 235.5625 24.096874Q234.90625 24.096874 234.46875 24.534374Q234.04688 24.971874 234.04688 25.940624L234.04688 29.55L232.98438 29.55L232.98438 25.503124Q232.98438 24.8 232.71875 24.45625Q232.46875 24.096874 231.89062 24.096874Q231.4375 24.096874 231.0625 24.33125Q230.6875 24.565624 230.51562 25.01875Q230.34375 25.471874 230.34375 26.315624L230.34375 29.55L229.29688 29.55Z" fill-rule="nonzero"/><path stroke="#000000" stroke-width="4.0" stroke-linecap="butt" stroke-opacity="0.4" d="M255.5 25.55L267.5 25.55" fill-rule="nonzero"/><path fill="#1a1a1a" d="M279.375 29.55L279.375 27.4875L275.65625 27.4875L275.65625 26.51875L279.57812 20.95625L280.4375 20.95625L280.4375 26.51875L281.59375 26.51875L281.59375 27.4875L280.4375 27.4875L280.4375 29.55L279.375 29.55ZM279.375 26.51875L279.375 22.659374L276.6875 26.51875L279.375 26.51875ZM283.59375 29.55L283.59375 28.346874L284.79688 28.346874L284.79688 29.55L283.59375 29.55ZM286.0 27.3L287.10938 27.20625Q287.23438 28.01875 287.67188 28.425Q288.125 28.83125 288.76562 28.83125Q289.51562 28.83125 290.04688 28.253124Q290.57812 27.675 290.57812 26.7375Q290.57812 25.83125 290.0625 25.315624Q289.5625 24.784374 288.73438 24.784374Q288.23438 24.784374 287.8125 25.01875Q287.40625 25.253124 287.17188 25.6125L286.1875 25.4875L287.01562 21.08125L291.29688 21.08125L291.29688 22.08125L287.85938 22.08125L287.40625 24.39375Q288.17188 23.846874 289.01562 23.846874Q290.14062 23.846874 290.90625 24.628124Q291.6875 25.409374 291.6875 26.64375Q291.6875 27.8 291.01562 28.659374Q290.1875 29.690624 288.76562 29.690624Q287.59375 29.690624 286.84375 29.034374Q286.10938 28.378124 286.0 27.3ZM293.0625 22.08125L293.0625 21.065624L298.625 21.065624L298.625 21.89375Q297.8125 22.76875 297.0 24.221874Q296.20312 25.659374 295.76562 27.190624Q295.4375 28.26875 295.35938 29.55L294.26562 29.55Q294.28125 28.534374 294.65625 27.096874Q295.04688 25.659374 295.75 24.33125Q296.46875 23.003124 297.28125 22.08125L293.0625 22.08125ZM300.45312 29.55L300.45312 20.95625L306.65625 20.95625L306.65625 21.971874L301.59375 21.971874L301.59375 24.596874L306.34375 24.596874L306.34375 25.6125L301.59375 25.6125L301.59375 28.534374L306.85938 28.534374L306.85938 29.55L300.45312 29.55ZM307.875 26.971874L307.875 25.909374L311.125 25.909374L311.125 26.971874L307.875 26.971874ZM312.0 25.315624Q312.0 23.784374 312.3125 22.8625Q312.625 21.925 313.23438 21.425Q313.85938 20.925 314.79688 20.925Q315.48438 20.925 316.0 21.20625Q316.53125 21.4875 316.875 22.01875Q317.21875 22.534374 317.40625 23.284374Q317.59375 24.034374 317.59375 25.315624Q317.59375 26.83125 317.28125 27.753124Q316.98438 28.675 316.35938 29.190624Q315.75 29.690624 314.79688 29.690624Q313.5625 29.690624 312.84375 28.8Q312.0 27.7375 312.0 25.315624ZM313.07812 25.315624Q313.07812 27.425 313.57812 28.128124Q314.07812 28.83125 314.79688 28.83125Q315.53125 28.83125 316.01562 28.128124Q316.51562 27.425 316.51562 25.315624Q316.51562 23.190624 316.01562 22.503124Q315.53125 21.8 314.78125 21.8Q314.0625 21.8 313.625 22.409374Q313.07812 23.190624 313.07812 25.315624ZM319.0 27.284374L320.0625 27.14375Q320.23438 28.034374 320.67188 28.440624Q321.10938 28.83125 321.73438 28.83125Q322.48438 28.83125 323.0 28.315624Q323.51562 27.8 323.51562 27.034374Q323.51562 26.315624 323.03125 25.846874Q322.5625 25.3625 321.82812 25.3625Q321.53125 25.3625 321.07812 25.4875L321.20312 24.55Q321.3125 24.565624 321.375 24.565624Q322.04688 24.565624 322.57812 24.221874Q323.125 23.8625 323.125 23.128124Q323.125 22.55 322.73438 22.175Q322.34375 21.784374 321.71875 21.784374Q321.10938 21.784374 320.6875 22.175Q320.28125 22.565624 320.17188 23.33125L319.10938 23.14375Q319.29688 22.096874 319.98438 21.51875Q320.67188 20.925 321.6875 20.925Q322.39062 20.925 322.98438 21.2375Q323.57812 21.534374 323.89062 22.05Q324.20312 22.565624 324.20312 23.159374Q324.20312 23.70625 323.90625 24.175Q323.60938 24.628124 323.03125 24.89375Q323.78125 25.065624 324.20312 25.628124Q324.625 26.175 324.625 27.01875Q324.625 28.14375 323.79688 28.925Q322.98438 29.70625 321.73438 29.70625Q320.60938 29.70625 319.85938 29.034374Q319.10938 28.346874 319.0 27.284374ZM325.875 22.534374L326.14062 21.70625Q327.07812 22.034374 327.5 22.26875Q327.39062 21.20625 327.375 20.815624L328.23438 20.815624Q328.21875 21.39375 328.09375 22.26875Q328.70312 21.95625 329.48438 21.70625L329.75 22.534374Q329.0 22.784374 328.29688 22.8625Q328.64062 23.175 329.29688 23.971874L328.59375 24.471874Q328.25 24.003124 327.79688 23.20625Q327.35938 24.034374 327.03125 24.471874L326.34375 23.971874Q327.01562 23.128124 327.3125 22.8625Q326.5625 22.721874 325.875 22.534374ZM330.59375 29.55L332.85938 26.315624L330.76562 23.33125L332.07812 23.33125L333.03125 24.784374Q333.29688 25.20625 333.46875 25.4875Q333.71875 25.096874 333.9375 24.8L334.98438 23.33125L336.25 23.33125L334.09375 26.253124L336.40625 29.55L335.125 29.55L333.84375 27.6125L333.5 27.096874L331.85938 29.55L330.59375 29.55ZM341.5 28.159374L341.5 25.8L339.17188 25.8L339.17188 24.815624L341.5 24.815624L341.5 22.4875L342.5 22.4875L342.5 24.815624L344.84375 24.815624L344.84375 25.8L342.5 25.8L342.5 28.159374L341.5 28.159374ZM352.96875 29.55L351.92188 29.55L351.92188 22.83125Q351.53125 23.190624 350.90625 23.565624Q350.29688 23.925 349.8125 24.096874L349.8125 23.08125Q350.6875 22.659374 351.34375 22.08125Q352.01562 21.4875 352.29688 20.925L352.96875 20.925L352.96875 29.55ZM356.0 25.315624Q356.0 23.784374 356.3125 22.8625Q356.625 21.925 357.23438 21.425Q357.85938 20.925 358.79688 20.925Q359.48438 20.925 360.0 21.20625Q360.53125 21.4875 360.875 22.01875Q361.21875 22.534374 361.40625 23.284374Q361.59375 24.034374 361.59375 25.315624Q361.59375 26.83125 361.28125 27.753124Q360.98438 28.675 360.35938 29.190624Q359.75 29.690624 358.79688 29.690624Q357.5625 29.690624 356.84375 28.8Q356.0 27.7375 356.0 25.315624ZM357.07812 25.315624Q357.07812 27.425 357.57812 28.128124Q358.07812 28.83125 358.79688 28.83125Q359.53125 28.83125 360.01562 28.128124Q360.51562 27.425 360.51562 25.315624Q360.51562 23.190624 360.01562 22.503124Q359.53125 21.8 358.78125 21.8Q358.0625 21.8 357.625 22.409374Q357.07812 23.190624 357.07812 25.315624ZM363.59375 29.55L363.59375 28.346874L364.79688 28.346874L364.79688 29.55L363.59375 29.55ZM369.375 29.55L369.375 27.4875L365.65625 27.4875L365.65625 26.51875L369.57812 20.95625L370.4375 20.95625L370.4375 26.51875L371.59375 26.51875L371.59375 27.4875L370.4375 27.4875L370.4375 29.55L369.375 29.55ZM369.375 26.51875L369.375 22.659374L366.6875 26.51875L369.375 26.51875ZM376.4375 29.55L376.4375 20.95625L380.25 20.95625Q381.40625 20.95625 382.0 21.190624Q382.59375 21.425 382.95312 22.01875Q383.3125 22.596874 383.3125 23.3Q383.3125 24.221874 382.71875 24.846874Q382.125 25.471874 380.89062 25.64375Q381.34375 25.8625 381.57812 26.065624Q382.07812 26.51875 382.51562 27.20625L384.01562 29.55L382.57812 29.55L381.45312 27.76875Q380.95312 26.9875 380.625 26.58125Q380.3125 26.175 380.04688 26.01875Q379.79688 25.846874 379.53125 25.76875Q379.34375 25.7375 378.90625 25.7375L377.57812 25.7375L377.57812 29.55L376.4375 29.55ZM377.57812 24.753124L380.03125 24.753124Q380.79688 24.753124 381.23438 24.596874Q381.6875 24.425 381.90625 24.08125Q382.14062 23.721874 382.14062 23.3Q382.14062 22.690624 381.6875 22.3Q381.25 21.909374 380.29688 21.909374L377.57812 21.909374L377.57812 24.753124ZM384.64062 25.253124Q384.6875 24.925 384.92188 24.58125Q385.29688 24.08125 386.14062 23.471874Q386.98438 22.8625 387.14062 22.675Q387.35938 22.440624 387.35938 22.190624Q387.35938 21.909374 387.14062 21.7375Q386.9375 21.55 386.54688 21.55Q386.15625 21.55 385.96875 21.690624Q385.78125 21.815624 385.65625 22.20625L384.76562 22.1125Q384.9375 21.471874 385.35938 21.159374Q385.78125 20.846874 386.5625 20.846874Q387.45312 20.846874 387.85938 21.20625Q388.28125 21.55 388.28125 22.05Q388.28125 22.534374 387.92188 22.971874Q387.67188 23.3 386.73438 23.971874Q386.23438 24.33125 386.03125 24.55L388.29688 24.55L388.29688 25.253124L384.64062 25.253124ZM397.84375 24.503124L392.17188 24.503124L392.17188 23.51875L397.84375 23.51875L397.84375 24.503124ZM397.84375 27.1125L392.17188 27.1125L392.17188 26.128124L397.84375 26.128124L397.84375 27.1125ZM402.0 25.315624Q402.0 23.784374 402.3125 22.8625Q402.625 21.925 403.23438 21.425Q403.85938 20.925 404.79688 20.925Q405.48438 20.925 406.0 21.20625Q406.53125 21.4875 406.875 22.01875Q407.21875 22.534374 407.40625 23.284374Q407.59375 24.034374 407.59375 25.315624Q407.59375 26.83125 407.28125 27.753124Q406.98438 28.675 406.35938 29.190624Q405.75 29.690624 404.79688 29.690624Q403.5625 29.690624 402.84375 28.8Q402.0 27.7375 402.0 25.315624ZM403.07812 25.315624Q403.07812 27.425 403.57812 28.128124Q404.07812 28.83125 404.79688 28.83125Q405.53125 28.83125 406.01562 28.128124Q406.51562 27.425 406.51562 25.315624Q406.51562 23.190624 406.01562 22.503124Q405.53125 21.8 404.78125 21.8Q404.0625 21.8 403.625 22.409374Q403.07812 23.190624 403.07812 25.315624ZM409.59375 29.55L409.59375 28.346874L410.79688 28.346874L410.79688 29.55L409.59375 29.55ZM412.15625 27.565624L413.17188 27.471874Q413.29688 28.190624 413.65625 28.51875Q414.03125 28.83125 414.59375 28.83125Q415.07812 28.83125 415.4375 28.6125Q415.8125 28.378124 416.04688 28.01875Q416.28125 27.64375 416.4375 27.01875Q416.59375 26.378124 416.59375 25.721874Q416.59375 25.64375 416.59375 25.503124Q416.28125 26.003124 415.73438 26.33125Q415.1875 26.64375 414.54688 26.64375Q413.46875 26.64375 412.73438 25.878124Q412.0 25.096874 412.0 23.83125Q412.0 22.51875 412.76562 21.721874Q413.54688 20.925 414.70312 20.925Q415.53125 20.925 416.21875 21.378124Q416.92188 21.83125 417.28125 22.675Q417.64062 23.503124 417.64062 25.08125Q417.64062 26.721874 417.28125 27.70625Q416.9375 28.675 416.21875 29.190624Q415.51562 29.690624 414.57812 29.690624Q413.5625 29.690624 412.92188 29.14375Q412.28125 28.58125 412.15625 27.565624ZM416.46875 23.76875Q416.46875 22.8625 415.98438 22.33125Q415.51562 21.8 414.82812 21.8Q414.125 21.8 413.59375 22.378124Q413.07812 22.940624 413.07812 23.8625Q413.07812 24.675 413.57812 25.190624Q414.07812 25.70625 414.79688 25.70625Q415.53125 25.70625 416.0 25.190624Q416.46875 24.675 416.46875 23.76875ZM424.46875 23.065624L423.42188 23.14375Q423.28125 22.51875 423.03125 22.2375Q422.59375 21.784374 421.96875 21.784374Q421.46875 21.784374 421.07812 22.065624Q420.59375 22.440624 420.29688 23.14375Q420.01562 23.83125 420.0 25.1125Q420.375 24.534374 420.92188 24.253124Q421.48438 23.971874 422.09375 23.971874Q423.14062 23.971874 423.875 24.753124Q424.625 25.534374 424.625 26.753124Q424.625 27.565624 424.26562 28.26875Q423.92188 28.95625 423.3125 29.33125Q422.70312 29.690624 421.9375 29.690624Q420.60938 29.690624 419.78125 28.721874Q418.95312 27.753124 418.95312 25.534374Q418.95312 23.034374 419.875 21.909374Q420.67188 20.925 422.03125 20.925Q423.04688 20.925 423.6875 21.503124Q424.34375 22.065624 424.46875 23.065624ZM420.17188 26.76875Q420.17188 27.315624 420.39062 27.815624Q420.625 28.3 421.03125 28.565624Q421.45312 28.83125 421.92188 28.83125Q422.57812 28.83125 423.0625 28.3Q423.54688 27.753124 423.54688 26.83125Q423.54688 25.940624 423.0625 25.425Q422.59375 24.909374 421.875 24.909374Q421.15625 24.909374 420.65625 25.425Q420.17188 25.940624 420.17188 26.76875ZM426.0 27.3L427.10938 27.20625Q427.23438 28.01875 427.67188 28.425Q428.125 28.83125 428.76562 28.83125Q429.51562 28.83125 430.04688 28.253124Q430.57812 27.675 430.57812 26.7375Q430.57812 25.83125 430.0625 25.315624Q429.5625 24.784374 428.73438 24.784374Q428.23438 24.784374 427.8125 25.01875Q427.40625 25.253124 427.17188 25.6125L426.1875 25.4875L427.01562 21.08125L431.29688 21.08125L431.29688 22.08125L427.85938 22.08125L427.40625 24.39375Q428.17188 23.846874 429.01562 23.846874Q430.14062 23.846874 430.90625 24.628124Q431.6875 25.409374 431.6875 26.64375Q431.6875 27.8 431.01562 28.659374Q430.1875 29.690624 428.76562 29.690624Q427.59375 29.690624 426.84375 29.034374Q426.10938 28.378124 426.0 27.3Z" fill-rule="nonzero"/></svg>