<svg version="1.1" viewBox="0.0 0.0 600.0 371.0" fill="none" stroke="none" stroke-linecap="square" stroke-miterlimit="10" width="600" height="371" xmlns:xlink="http://www.w3.org/1999/xlink" xmlns="http://www.w3.org/2000/svg"><path fill="#ffffff" d="M0 0L600.0 0L600.0 371.0L0 371.0L0 0Z" fill-rule="nonzero"/><path stroke="#cccccc" stroke-width="1.0" stroke-linecap="butt" d="M165.5 51.5L165.5 289.5" fill-rule="nonzero"/><path stroke="#cccccc" stroke-width="1.0" stroke-linecap="butt" d="M250.5 51.5L250.5 289.5" fill-rule="nonzero"/><path stroke="#cccccc" stroke-width="1.0" stroke-linecap="butt" d="M334.5 51.5L334.5 289.5" fill-rule="nonzero"/><path stroke="#cccccc" stroke-width="1.0" stroke-linecap="butt" d="M419.5 51.5L419.5 289.5" fill-rule="nonzero"/><path stroke="#cccccc" stroke-width="1.0" stroke-linecap="butt" d="M503.5 51.5L503.5 289.5" fill-rule="nonzero"/><path stroke="#333333" stroke-width="1.0" stroke-linecap="butt" d="M88.5 289.5L581.5 289.5" fill-rule="nonzero"/><path stroke="#cccccc" stroke-width="1.0" stroke-linecap="butt" d="M88.5 241.5L581.5 241.5" fill-rule="nonzero"/><path stroke="#cccccc" stroke-width="1.0" stroke-linecap="butt" d="M88.5 194.5L581.5 194.5" fill-rule="nonzero"/><path stroke="#cccccc" stroke-width="1.0" stroke-linecap="butt" d="M88.5 146.5L581.5 146.5" fill-rule="nonzero"/><path stroke="#cccccc" stroke-width="1.0" stroke-linecap="butt" d="M88.5 99.5L581.5 99.5" fill-rule="nonzero"/><path stroke="#cccccc" stroke-width="1.0" stroke-linecap="butt" d="M88.5 51.5L581.5 51.5" fill-rule="nonzero"/><clipPath id="id_0"><path d="M88.55 51.916668L581.45 51.916668L581.45 289.45L88.55 289.45L88.55 51.916668Z" clip-rule="nonzero"/></clipPath><path stroke="#0000ff" stroke-width="2.0" stroke-linecap="butt" stroke-opacity="0.4" clip-path="url(#id_0)" d="M0 290.60782L581.45 91.58666" fill-rule="nonzero"/><path fill="#bf9000" clip-path="url(#id_0)" d="M99.85667 263.80777C99.85667 266.29306 97.84195 268.30777 95.35667 268.30777C92.87138 268.30777 90.85667 266.29306 90.85667 263.80777C90.85667 261.3225 92.87138 259.30777 95.35667 259.30777C97.84195 259.30777 99.85667 261.3225 99.85667 263.80777Z" fill-rule="nonzero"/><path fill="#bf9000" clip-path="url(#id_0)" d="M110.638336 260.9662C110.638336 263.45148 108.62362 265.4662 106.138336 265.4662C103.65306 265.4662 101.638336 263.45148 101.638336 260.9662C101.638336 258.4809 103.65306 256.4662 106.138336 256.4662C108.62362 256.4662 110.638336 258.4809 110.638336 260.9662Z" fill-rule="nonzero"/><path fill="#bf9000" clip-path="url(#id_0)" d="M121.6039 255.05688C121.6039 257.54214 119.58918 259.5569 117.1039 259.5569C114.618614 259.5569 112.6039 257.54214 112.6039 255.05688C112.6039 252.5716 114.618614 250.55688 117.1039 250.55688C119.58918 250.55688 121.6039 252.5716 121.6039 255.05688Z" fill-rule="nonzero"/><path fill="#bf9000" clip-path="url(#id_0)" d="M132.45435 250.7608C132.45435 253.24608 130.43962 255.2608 127.954346 255.2608C125.46906 255.2608 123.454346 253.24608 123.454346 250.7608C123.454346 248.27553 125.46906 246.2608 127.954346 246.2608C130.43962 246.2608 132.45435 248.27553 132.45435 250.7608Z" fill-rule="nonzero"/><path fill="#bf9000" clip-path="url(#id_0)" d="M141.67896 245.97224C141.67896 248.45752 139.66423 250.47224 137.17896 250.47224C134.69368 250.47224 132.67896 248.45752 132.67896 245.97224C132.67896 243.48695 134.69368 241.47224 137.17896 241.47224C139.66423 241.47224 141.67896 243.48695 141.67896 245.97224Z" fill-rule="nonzero"/><path fill="#bf9000" clip-path="url(#id_0)" d="M151.79099 241.29413C151.79099 243.77942 149.77628 245.79413 147.29099 245.79413C144.80571 245.79413 142.79099 243.77942 142.79099 241.29413C142.79099 238.80885 144.80571 236.79413 147.29099 236.79413C149.77628 236.79413 151.79099 238.80885 151.79099 241.29413Z" fill-rule="nonzero"/><path fill="#bf9000" clip-path="url(#id_0)" d="M166.00636 235.96494C166.00636 238.45021 163.99164 240.46494 161.50636 240.46494C159.02107 240.46494 157.00636 238.45021 157.00636 235.96494C157.00636 233.47964 159.02107 231.46494 161.50636 231.46494C163.99164 231.46494 166.00636 233.47964 166.00636 235.96494Z" fill-rule="nonzero"/><path fill="#bf9000" clip-path="url(#id_0)" d="M173.46313 233.58284C173.46313 236.06813 171.44841 238.08284 168.96313 238.08284C166.47786 238.08284 164.46313 236.06813 164.46313 233.58284C164.46313 231.09756 166.47786 229.08284 168.96313 229.08284C171.44841 229.08284 173.46313 231.09756 173.46313 233.58284Z" fill-rule="nonzero"/><path fill="#bf9000" clip-path="url(#id_0)" d="M187.00563 230.95422C187.00563 233.4395 184.9909 235.45422 182.50563 235.45422C180.02034 235.45422 178.00563 233.4395 178.00563 230.95422C178.00563 228.46895 180.02034 226.45422 182.50563 226.45422C184.9909 226.45422 187.00563 228.46895 187.00563 230.95422Z" fill-rule="nonzero"/><path fill="#bf9000" clip-path="url(#id_0)" d="M188.46297 225.99908C188.46297 228.48438 186.44826 230.49908 183.96297 230.49908C181.47769 230.49908 179.46297 228.48438 179.46297 225.99908C179.46297 223.51381 181.47769 221.49908 183.96297 221.49908C186.44826 221.49908 188.46297 223.51381 188.46297 225.99908Z" fill-rule="nonzero"/><path fill="#bf9000" clip-path="url(#id_0)" d="M189.86229 225.87123C189.86229 228.35652 187.84756 230.37123 185.36229 230.37123C182.877 230.37123 180.86229 228.35652 180.86229 225.87123C180.86229 223.38596 182.877 221.37123 185.36229 221.37123C187.84756 221.37123 189.86229 223.38596 189.86229 225.87123Z" fill-rule="nonzero"/><path fill="#bf9000" clip-path="url(#id_0)" d="M202.33717 220.37582C202.33717 222.8611 200.32245 224.87582 197.83717 224.87582C195.35188 224.87582 193.33717 222.8611 193.33717 220.37582C193.33717 217.89053 195.35188 215.87582 197.83717 215.87582C200.32245 215.87582 202.33717 217.89053 202.33717 220.37582Z" fill-rule="nonzero"/><path fill="#bf9000" clip-path="url(#id_0)" d="M214.44852 217.4593C214.44852 219.94458 212.4338 221.9593 209.94852 221.9593C207.46324 221.9593 205.44852 219.94458 205.44852 217.4593C205.44852 214.97401 207.46324 212.9593 209.94852 212.9593C212.4338 212.9593 214.44852 214.97401 214.44852 217.4593Z" fill-rule="nonzero"/><path fill="#bf9000" clip-path="url(#id_0)" d="M226.31448 209.75356C226.31448 212.23885 224.29977 214.25356 221.81448 214.25356C219.32921 214.25356 217.31448 212.23885 217.31448 209.75356C217.31448 207.26828 219.32921 205.25356 221.81448 205.25356C224.29977 205.25356 226.31448 207.26828 226.31448 209.75356Z" fill-rule="nonzero"/><path fill="#bf9000" clip-path="url(#id_0)" d="M219.67372 212.4586C219.67372 214.94388 217.659 216.9586 215.17372 216.9586C212.68843 216.9586 210.67372 214.94388 210.67372 212.4586C210.67372 209.97331 212.68843 207.9586 215.17372 207.9586C217.659 207.9586 219.67372 209.97331 219.67372 212.4586Z" fill-rule="nonzero"/><path fill="#bf9000" clip-path="url(#id_0)" d="M239.28143 205.37851C239.28143 207.86378 237.26672 209.87851 234.78143 209.87851C232.29616 209.87851 230.28143 207.86378 230.28143 205.37851C230.28143 202.89322 232.29616 200.87851 234.78143 200.87851C237.26672 200.87851 239.28143 202.89322 239.28143 205.37851Z" fill-rule="nonzero"/><path fill="#bf9000" clip-path="url(#id_0)" d="M240.91199 204.30147C240.91199 206.78674 238.89726 208.80147 236.41199 208.80147C233.9267 208.80147 231.91199 206.78674 231.91199 204.30147C231.91199 201.81618 233.9267 199.80147 236.41199 199.80147C238.89726 199.80147 240.91199 201.81618 240.91199 204.30147Z" fill-rule="nonzero"/><path fill="#bf9000" clip-path="url(#id_0)" d="M259.29663 200.3095C259.29663 202.79477 257.28192 204.8095 254.79663 204.8095C252.31136 204.8095 250.29663 202.79477 250.29663 200.3095C250.29663 197.8242 252.31136 195.8095 254.79663 195.8095C257.28192 195.8095 259.29663 197.8242 259.29663 200.3095Z" fill-rule="nonzero"/><path fill="#bf9000" clip-path="url(#id_0)" d="M269.2643 196.36978C269.2643 198.85507 267.2496 200.86978 264.7643 200.86978C262.27902 200.86978 260.2643 198.85507 260.2643 196.36978C260.2643 193.8845 262.27902 191.86978 264.7643 191.86978C267.2496 191.86978 269.2643 193.8845 269.2643 196.36978Z" fill-rule="nonzero"/><path fill="#bf9000" clip-path="url(#id_0)" d="M279.4341 191.7054C279.4341 194.19067 277.41937 196.2054 274.9341 196.2054C272.44882 196.2054 270.4341 194.19067 270.4341 191.7054C270.4341 189.22012 272.44882 187.2054 274.9341 187.2054C277.41937 187.2054 279.4341 189.22012 279.4341 191.7054Z" fill-rule="nonzero"/><path fill="#bf9000" clip-path="url(#id_0)" d="M291.09738 187.41148C291.09738 189.89677 289.08264 191.91148 286.59738 191.91148C284.1121 191.91148 282.09738 189.89677 282.09738 187.41148C282.09738 184.92621 284.1121 182.91148 286.59738 182.91148C289.08264 182.91148 291.09738 184.92621 291.09738 187.41148Z" fill-rule="nonzero"/><path fill="#bf9000" clip-path="url(#id_0)" d="M297.55908 183.94737C297.55908 186.43266 295.54437 188.44737 293.05908 188.44737C290.5738 188.44737 288.55908 186.43266 288.55908 183.94737C288.55908 181.4621 290.5738 179.44737 293.05908 179.44737C295.54437 179.44737 297.55908 181.4621 297.55908 183.94737Z" fill-rule="nonzero"/><path fill="#bf9000" clip-path="url(#id_0)" d="M336.4082 171.67896C336.4082 174.16423 334.3935 176.17896 331.9082 176.17896C329.42294 176.17896 327.4082 174.16423 327.4082 171.67896C327.4082 169.19366 329.42294 167.17896 331.9082 167.17896C334.3935 167.17896 336.4082 169.19366 336.4082 171.67896Z" fill-rule="nonzero"/><path fill="#bf9000" clip-path="url(#id_0)" d="M342.3696 172.42479C342.3696 174.91008 340.3549 176.92479 337.8696 176.92479C335.38434 176.92479 333.3696 174.91008 333.3696 172.42479C333.3696 169.93951 335.38434 167.92479 337.8696 167.92479C340.3549 167.92479 342.3696 169.93951 342.3696 172.42479Z" fill-rule="nonzero"/><path fill="#bf9000" clip-path="url(#id_0)" d="M374.54965 166.84142C374.54965 169.3267 372.53494 171.34142 370.04965 171.34142C367.56436 171.34142 365.54965 169.3267 365.54965 166.84142C365.54965 164.35614 367.56436 162.34142 370.04965 162.34142C372.53494 162.34142 374.54965 164.35614 374.54965 166.84142Z" fill-rule="nonzero"/><path fill="#bf9000" clip-path="url(#id_0)" d="M403.53122 154.67194C403.53122 157.15723 401.5165 159.17194 399.03122 159.17194C396.54593 159.17194 394.53122 157.15723 394.53122 154.67194C394.53122 152.18666 396.54593 150.17194 399.03122 150.17194C401.5165 150.17194 403.53122 152.18666 403.53122 154.67194Z" fill-rule="nonzero"/><path fill="#bf9000" clip-path="url(#id_0)" d="M398.83575 158.17679C398.83575 160.66206 396.82104 162.67679 394.33575 162.67679C391.8505 162.67679 389.83575 160.66206 389.83575 158.17679C389.83575 155.69151 391.8505 153.67679 394.33575 153.67679C396.82104 153.67679 398.83575 155.69151 398.83575 158.17679Z" fill-rule="nonzero"/><path fill="#bf9000" clip-path="url(#id_0)" d="M430.57886 149.11497C430.57886 151.60027 428.56412 153.61497 426.07886 153.61497C423.59357 153.61497 421.57886 151.60027 421.57886 149.11497C421.57886 146.6297 423.59357 144.61497 426.07886 144.61497C428.56412 144.61497 430.57886 146.6297 430.57886 149.11497Z" fill-rule="nonzero"/><path fill="#bf9000" clip-path="url(#id_0)" d="M425.0926 148.85542C425.0926 151.3407 423.07788 153.35542 420.5926 153.35542C418.10733 153.35542 416.0926 151.3407 416.0926 148.85542C416.0926 146.37013 418.10733 144.35542 420.5926 144.35542C423.07788 144.35542 425.0926 146.37013 425.0926 148.85542Z" fill-rule="nonzero"/><path fill="#bf9000" clip-path="url(#id_0)" d="M443.77966 143.96475C443.77966 146.45004 441.76495 148.46475 439.27966 148.46475C436.7944 148.46475 434.77966 146.45004 434.77966 143.96475C434.77966 141.47948 436.7944 139.46475 439.27966 139.46475C441.76495 139.46475 443.77966 141.47948 443.77966 143.96475Z" fill-rule="nonzero"/><path fill="#bf9000" clip-path="url(#id_0)" d="M458.59314 140.52965C458.59314 143.01492 456.57843 145.02965 454.09314 145.02965C451.60785 145.02965 449.59314 143.01492 449.59314 140.52965C449.59314 138.04436 451.60785 136.02965 454.09314 136.02965C456.57843 136.02965 458.59314 138.04436 458.59314 140.52965Z" fill-rule="nonzero"/><path fill="#bf9000" clip-path="url(#id_0)" d="M468.7266 133.52267C468.7266 136.00795 466.71188 138.02267 464.2266 138.02267C461.7413 138.02267 459.7266 136.00795 459.7266 133.52267C459.7266 131.03738 461.7413 129.02267 464.2266 129.02267C466.71188 129.02267 468.7266 131.03738 468.7266 133.52267Z" fill-rule="nonzero"/><path fill="#bf9000" clip-path="url(#id_0)" d="M484.72412 128.68141C484.72412 131.1667 482.70938 133.18141 480.22412 133.18141C477.73883 133.18141 475.72412 131.1667 475.72412 128.68141C475.72412 126.19614 477.73883 124.18142 480.22412 124.18142C482.70938 124.18142 484.72412 126.19614 484.72412 128.68141Z" fill-rule="nonzero"/><path fill="#bf9000" clip-path="url(#id_0)" d="M474.23703 134.46179C474.23703 136.94707 472.22232 138.96179 469.73703 138.96179C467.25177 138.96179 465.23703 136.94707 465.23703 134.46179C465.23703 131.9765 467.25177 129.96179 469.73703 129.96179C472.22232 129.96179 474.23703 131.9765 474.23703 134.46179Z" fill-rule="nonzero"/><path fill="#bf9000" clip-path="url(#id_0)" d="M483.71048 129.78523C483.71048 132.27051 481.69577 134.28523 479.21048 134.28523C476.72522 134.28523 474.71048 132.27051 474.71048 129.78523C474.71048 127.29995 476.72522 125.28523 479.21048 125.28523C481.69577 125.28523 483.71048 127.29995 483.71048 129.78523Z" fill-rule="nonzero"/><path fill="#bf9000" clip-path="url(#id_0)" d="M508.45255 121.33493C508.45255 123.820206 506.43784 125.83493 503.95255 125.83493C501.46725 125.83493 499.45255 123.820206 499.45255 121.33493C499.45255 118.84965 501.46725 116.83493 503.95255 116.83493C506.43784 116.83493 508.45255 118.84965 508.45255 121.33493Z" fill-rule="nonzero"/><path fill="#bf9000" clip-path="url(#id_0)" d="M498.44736 121.891975C498.44736 124.37726 496.43262 126.391975 493.94736 126.391975C491.46207 126.391975 489.44736 124.37726 489.44736 121.891975C489.44736 119.40669 491.46207 117.391975 493.94736 117.391975C496.43262 117.391975 498.44736 119.40669 498.44736 121.891975Z" fill-rule="nonzero"/><path fill="#bf9000" clip-path="url(#id_0)" d="M506.85864 120.32261C506.85864 122.80789 504.84393 124.82261 502.35864 124.82261C499.87335 124.82261 497.85864 122.80789 497.85864 120.32261C497.85864 117.83733 499.87335 115.82261 502.35864 115.82261C504.84393 115.82261 506.85864 117.83733 506.85864 120.32261Z" fill-rule="nonzero"/><path fill="#bf9000" clip-path="url(#id_0)" d="M508.72058 116.88613C508.72058 119.37141 506.70587 121.38613 504.22058 121.38613C501.73532 121.38613 499.72058 119.37141 499.72058 116.88613C499.72058 114.40085 501.73532 112.38613 504.22058 112.38613C506.70587 112.38613 508.72058 114.40085 508.72058 116.88613Z" fill-rule="nonzero"/><path fill="#bf9000" clip-path="url(#id_0)" d="M499.0679 123.65221C499.0679 126.13749 497.05316 128.1522 494.5679 128.1522C492.0826 128.1522 490.0679 126.13749 490.0679 123.65221C490.0679 121.16692 492.0826 119.15221 494.5679 119.15221C497.05316 119.15221 499.0679 121.16692 499.0679 123.65221Z" fill-rule="nonzero"/><path fill="#bf9000" clip-path="url(#id_0)" d="M525.89105 113.993675C525.89105 116.47896 523.8763 118.493675 521.39105 118.493675C518.90576 118.493675 516.89105 116.47896 516.89105 113.993675C516.89105 111.5084 518.90576 109.493675 521.39105 109.493675C523.8763 109.493675 525.89105 111.5084 525.89105 113.993675Z" fill-rule="nonzero"/><path fill="#bf9000" clip-path="url(#id_0)" d="M526.6008 112.85412C526.6008 115.3394 524.58606 117.35412 522.1008 117.35412C519.61554 117.35412 517.6008 115.3394 517.6008 112.85412C517.6008 110.368835 519.61554 108.35412 522.1008 108.35412C524.58606 108.35412 526.6008 110.368835 526.6008 112.85412Z" fill-rule="nonzero"/><path fill="#bf9000" clip-path="url(#id_0)" d="M539.6575 105.45692C539.6575 107.9422 537.64276 109.95692 535.1575 109.95692C532.6722 109.95692 530.6575 107.9422 530.6575 105.45692C530.6575 102.971634 532.6722 100.95692 535.1575 100.95692C537.64276 100.95692 539.6575 102.971634 539.6575 105.45692Z" fill-rule="nonzero"/><path fill="#bf9000" clip-path="url(#id_0)" d="M526.1958 113.862C526.1958 116.34728 524.1811 118.362 521.6958 118.362C519.2105 118.362 517.1958 116.34728 517.1958 113.862C517.1958 111.37672 519.2105 109.362 521.6958 109.362C524.1811 109.362 526.1958 111.37672 526.1958 113.862Z" fill-rule="nonzero"/><path fill="#bf9000" clip-path="url(#id_0)" d="M540.6272 109.01519C540.6272 111.500465 538.6125 113.51519 536.1272 113.51519C533.6419 113.51519 531.6272 111.500465 531.6272 109.01519C531.6272 106.52991 533.6419 104.51519 536.1272 104.51519C538.6125 104.51519 540.6272 106.52991 540.6272 109.01519Z" fill-rule="nonzero"/><path fill="#bf9000" clip-path="url(#id_0)" d="M545.6393 104.79382C545.6393 107.2791 543.6246 109.29382 541.1393 109.29382C538.65405 109.29382 536.6393 107.2791 536.6393 104.79382C536.6393 102.30854 538.65405 100.29382 541.1393 100.29382C543.6246 100.29382 545.6393 102.30854 545.6393 104.79382Z" fill-rule="nonzero"/><path fill="#bf9000" clip-path="url(#id_0)" d="M555.6513 97.29495C555.6513 99.780235 553.6366 101.79495 551.1513 101.79495C548.666 101.79495 546.6513 99.780235 546.6513 97.29495C546.6513 94.80967 548.666 92.79495 551.1513 92.79495C553.6366 92.79495 555.6513 94.80967 555.6513 97.29495Z" fill-rule="nonzero"/><path fill="#bf9000" clip-path="url(#id_0)" d="M540.29865 110.27832C540.29865 112.7636 538.28394 114.77832 535.79865 114.77832C533.31335 114.77832 531.29865 112.7636 531.29865 110.27832C531.29865 107.79304 533.31335 105.77832 535.79865 105.77832C538.28394 105.77832 540.29865 107.79304 540.29865 110.27832Z" fill-rule="nonzero"/><path fill="#bf9000" clip-path="url(#id_0)" d="M561.4735 94.935326C561.4735 97.42061 559.4588 99.435326 556.9735 99.435326C554.4882 99.435326 552.4735 97.42061 552.4735 94.935326C552.4735 92.45004 554.4882 90.435326 556.9735 90.435326C559.4588 90.435326 561.4735 92.45004 561.4735 94.935326Z" fill-rule="nonzero"/><path fill="#bf9000" clip-path="url(#id_0)" d="M577.0261 89.47885C577.0261 91.964134 575.01135 93.97885 572.5261 93.97885C570.04083 93.97885 568.0261 91.964134 568.0261 89.47885C568.0261 86.99357 570.04083 84.97885 572.5261 84.97885C575.01135 84.97885 577.0261 86.99357 577.0261 89.47885Z" fill-rule="nonzero"/><path fill="#bf9000" clip-path="url(#id_0)" d="M579.1433 90.01526C579.1433 92.50054 577.1286 94.51526 574.6433 94.51526C572.1581 94.51526 570.1433 92.50054 570.1433 90.01526C570.1433 87.52998 572.1581 85.51526 574.6433 85.51526C577.1286 85.51526 579.1433 87.52998 579.1433 90.01526Z" fill-rule="nonzero"/><path fill="#000000" d="M328.39062 346.9969Q329.23438 347.60626 330.23438 347.96564L329.39062 349.60626Q328.85938 349.45 328.35938 349.16876Q328.25 349.1219 326.82812 348.15314Q325.70312 348.65314 324.32812 348.65314Q321.6875 348.65314 320.1875 347.09064Q318.70312 345.52814 318.70312 342.71564Q318.70312 339.91876 320.20312 338.35626Q321.70312 336.79376 324.26562 336.79376Q326.8125 336.79376 328.29688 338.35626Q329.79688 339.91876 329.79688 342.71564Q329.79688 344.2 329.39062 345.325Q329.07812 346.1844 328.39062 346.9969ZM326.53125 345.6844Q326.96875 345.16876 327.1875 344.4344Q327.42188 343.6844 327.42188 342.71564Q327.42188 340.73126 326.54688 339.7625Q325.67188 338.77814 324.25 338.77814Q322.84375 338.77814 321.95312 339.7625Q321.07812 340.7469 321.07812 342.71564Q321.07812 344.73126 321.95312 345.73126Q322.84375 346.71564 324.1875 346.71564Q324.6875 346.71564 325.125 346.5594Q324.42188 346.09064 323.70312 345.84064L324.34375 344.5125Q325.48438 344.90314 326.53125 345.6844ZM331.17188 348.45L331.17188 336.9969L334.875 336.9969Q336.98438 336.9969 337.625 337.16876Q338.60938 337.41876 339.26562 338.29376Q339.9375 339.15314 339.9375 340.5125Q339.9375 341.575 339.54688 342.29376Q339.17188 343.0125 338.57812 343.41876Q338.0 343.825 337.39062 343.96564Q336.5625 344.1219 334.98438 344.1219L333.48438 344.1219L333.48438 348.45L331.17188 348.45ZM333.48438 338.9344L333.48438 342.1844L334.75 342.1844Q336.10938 342.1844 336.5625 342.0125Q337.03125 341.825 337.29688 341.45Q337.5625 341.0594 337.5625 340.54376Q337.5625 339.91876 337.1875 339.5125Q336.82812 339.10626 336.26562 339.0125Q335.84375 338.9344 334.59375 338.9344L333.48438 338.9344ZM341.57812 344.71564L343.82812 344.4969Q344.03125 345.6375 344.65625 346.16876Q345.28125 346.7 346.32812 346.7Q347.45312 346.7 348.01562 346.23126Q348.57812 345.7469 348.57812 345.1219Q348.57812 344.71564 348.34375 344.4344Q348.10938 344.1375 347.51562 343.9344Q347.10938 343.79376 345.65625 343.4344Q343.79688 342.96564 343.04688 342.29376Q342.0 341.35626 342.0 339.9969Q342.0 339.1219 342.48438 338.35626Q342.98438 337.59064 343.92188 337.2Q344.85938 336.79376 346.17188 336.79376Q348.32812 336.79376 349.42188 337.7469Q350.51562 338.6844 350.5625 340.2625L348.25 340.3719Q348.10938 339.48126 347.60938 339.10626Q347.125 338.71564 346.15625 338.71564Q345.14062 338.71564 344.57812 339.1219Q344.20312 339.3875 344.20312 339.84064Q344.20312 340.2469 344.54688 340.52814Q344.98438 340.90314 346.67188 341.3094Q348.35938 341.7 349.17188 342.1219Q349.98438 342.54376 350.4375 343.29376Q350.89062 344.02814 350.89062 345.10626Q350.89062 346.09064 350.34375 346.95Q349.79688 347.8094 348.79688 348.23126Q347.79688 348.65314 346.3125 348.65314Q344.14062 348.65314 342.96875 347.65314Q341.8125 346.6375 341.57812 344.71564Z" fill-rule="nonzero"/><path fill="#000000" d="M33.55001 198.32396L25.253138 201.48021L25.253138 199.99583L30.221888 198.21458Q31.018763 197.91771 31.893763 197.68333Q31.237513 197.49583 30.315638 197.15208L25.253138 195.30833L25.253138 193.87083L33.55001 197.01146L33.55001 198.32396ZM29.534388 185.27708L29.909388 183.76146Q31.784388 184.23021 32.76876 185.48021Q33.753136 186.71458 33.753136 188.49583Q33.753136 190.35521 33.003136 191.51146Q32.23751 192.66771 30.815638 193.27708Q29.378138 193.88646 27.737513 193.88646Q25.940638 193.88646 24.612513 193.19896Q23.284388 192.51146 22.596888 191.26146Q21.893763 189.99583 21.893763 188.48021Q21.893763 186.76146 22.768763 185.58958Q23.643763 184.41771 25.237513 183.94896L25.581263 185.44896Q24.331263 185.83958 23.768763 186.60521Q23.190638 187.35521 23.190638 188.51146Q23.190638 189.82396 23.831263 190.71458Q24.456263 191.60521 25.534388 191.96458Q26.596888 192.32396 27.721888 192.32396Q29.190638 192.32396 30.284388 191.90208Q31.362513 191.46458 31.909388 190.57396Q32.440636 189.66771 32.440636 188.62083Q32.440636 187.35521 31.706263 186.48021Q30.971888 185.58958 29.534388 185.27708ZM33.55001 181.44896L22.096888 181.44896L22.096888 177.12083Q22.096888 175.98021 22.206263 175.38646Q22.346888 174.54271 22.737513 173.98021Q23.128138 173.40208 23.846888 173.05833Q24.550013 172.69896 25.409388 172.69896Q26.862513 172.69896 27.878138 173.63646Q28.893763 174.55833 28.893763 176.99583L28.893763 179.93333L33.55001 179.93333L33.55001 181.44896ZM27.534388 179.93333L27.534388 176.96458Q27.534388 175.49583 26.987513 174.88646Q26.440638 174.26146 25.456263 174.26146Q24.737513 174.26146 24.221888 174.63646Q23.706263 174.99583 23.550013 175.58958Q23.440638 175.96458 23.440638 176.99583L23.440638 179.93333L27.534388 179.93333ZM22.096888 162.93333L22.096888 161.41771L28.706263 161.41771Q30.440638 161.41771 31.456263 161.80833Q32.471886 162.19896 33.11251 163.21458Q33.753136 164.23021 33.753136 165.88646Q33.753136 167.49583 33.190636 168.52708Q32.628136 169.54271 31.581263 169.98021Q30.534388 170.41771 28.706263 170.41771L22.096888 170.41771L22.096888 168.90208L28.706263 168.90208Q30.190638 168.90208 30.909388 168.63646Q31.612513 168.35521 32.003136 167.68333Q32.378136 166.99583 32.378136 166.02708Q32.378136 164.35521 31.628138 163.65208Q30.862513 162.93333 28.706263 162.93333L22.096888 162.93333ZM31.065638 160.18333L30.846888 158.79271Q31.690638 158.68333 32.14376 158.15208Q32.58126 157.60521 32.58126 156.65208Q32.58126 155.68333 32.190636 155.21458Q31.784388 154.74583 31.253138 154.74583Q30.784388 154.74583 30.503138 155.15208Q30.315638 155.44896 30.034388 156.58958Q29.643763 158.13646 29.362513 158.74583Q29.065638 159.33958 28.565638 159.65208Q28.065638 159.94896 27.456263 159.94896Q26.893763 159.94896 26.425013 159.69896Q25.956263 159.44896 25.643763 159.01146Q25.393763 158.68333 25.237513 158.12083Q25.065638 157.54271 25.065638 156.90208Q25.065638 155.91771 25.346888 155.18333Q25.628138 154.44896 26.112513 154.10521Q26.581263 153.74583 27.393763 153.60521L27.581263 154.98021Q26.940638 155.07396 26.581263 155.52708Q26.221888 155.98021 26.221888 156.79271Q26.221888 157.76146 26.550013 158.18333Q26.862513 158.58958 27.284388 158.58958Q27.565638 158.58958 27.784388 158.41771Q28.003138 158.24583 28.159388 157.88646Q28.237513 157.66771 28.518763 156.63646Q28.909388 155.15208 29.175013 154.55833Q29.425013 153.96458 29.909388 153.63646Q30.393763 153.29271 31.112513 153.29271Q31.815638 153.29271 32.440636 153.71458Q33.05001 154.12083 33.39376 154.90208Q33.73751 155.66771 33.73751 156.63646Q33.73751 158.26146 33.065636 159.10521Q32.39376 159.94896 31.065638 160.18333Z" fill-rule="nonzero"/><path fill="#000000" d="M76.05 289.21564Q76.05 287.6844 76.3625 286.7625Q76.675 285.825 77.28438 285.325Q77.90938 284.825 78.84688 284.825Q79.53438 284.825 80.05 285.10626Q80.58125 285.3875 80.925 285.91876Q81.26875 286.4344 81.45625 287.1844Q81.64375 287.9344 81.64375 289.21564Q81.64375 290.73126 81.33125 291.65314Q81.03438 292.575 80.40938 293.09064Q79.8 293.59064 78.84688 293.59064Q77.6125 293.59064 76.89375 292.7Q76.05 291.6375 76.05 289.21564ZM77.12813 289.21564Q77.12813 291.325 77.62813 292.02814Q78.12813 292.73126 78.84688 292.73126Q79.58125 292.73126 80.06563 292.02814Q80.56563 291.325 80.56563 289.21564Q80.56563 287.09064 80.06563 286.40314Q79.58125 285.7 78.83125 285.7Q78.1125 285.7 77.675 286.3094Q77.12813 287.09064 77.12813 289.21564Z" fill-rule="nonzero"/><path fill="#000000" d="M81.59688 244.9277L81.59688 245.94333L75.90938 245.94333Q75.90938 245.56833 76.03438 245.20895Q76.25313 244.63083 76.72188 244.06833Q77.20625 243.50583 78.1125 242.77145Q79.51875 241.6152 80.00313 240.94333Q80.50313 240.27145 80.50313 239.6777Q80.50313 239.0527 80.05 238.63083Q79.59688 238.19333 78.87813 238.19333Q78.1125 238.19333 77.65938 238.64645Q77.20625 239.09958 77.19063 239.91208L76.1125 239.8027Q76.22188 238.58395 76.94063 237.95895Q77.675 237.31833 78.90938 237.31833Q80.14375 237.31833 80.8625 238.00583Q81.58125 238.69333 81.58125 239.70895Q81.58125 240.22458 81.3625 240.72458Q81.15938 241.20895 80.65938 241.77145Q80.175 242.31833 79.05 243.27145Q78.09688 244.06833 77.81563 244.3652Q77.55 244.64645 77.37813 244.9277L81.59688 244.9277Z" fill-rule="nonzero"/><path fill="#000000" d="M79.425 198.43666L79.425 196.37416L75.70625 196.37416L75.70625 195.40541L79.62813 189.84291L80.4875 189.84291L80.4875 195.40541L81.64375 195.40541L81.64375 196.37416L80.4875 196.37416L80.4875 198.43666L79.425 198.43666ZM79.425 195.40541L79.425 191.54604L76.7375 195.40541L79.425 195.40541Z" fill-rule="nonzero"/><path fill="#000000" d="M81.51875 144.44562L80.47188 144.52374Q80.33125 143.89874 80.08125 143.6175Q79.64375 143.16437 79.01875 143.16437Q78.51875 143.16437 78.12813 143.44562Q77.64375 143.82062 77.34688 144.52374Q77.06563 145.21124 77.05 146.4925Q77.425 145.91437 77.97188 145.63312Q78.53438 145.35187 79.14375 145.35187Q80.19063 145.35187 80.925 146.13312Q81.675 146.91437 81.675 148.13312Q81.675 148.94562 81.31563 149.64874Q80.97188 150.33624 80.3625 150.71124Q79.75313 151.07062 78.9875 151.07062Q77.65938 151.07062 76.83125 150.10187Q76.00313 149.13312 76.00313 146.91437Q76.00313 144.41437 76.925 143.28937Q77.72188 142.305 79.08125 142.305Q80.09688 142.305 80.7375 142.88312Q81.39375 143.44562 81.51875 144.44562ZM77.22188 148.14874Q77.22188 148.69562 77.44063 149.19562Q77.675 149.68 78.08125 149.94562Q78.50313 150.21124 78.97188 150.21124Q79.62813 150.21124 80.1125 149.68Q80.59688 149.13312 80.59688 148.21124Q80.59688 147.32062 80.1125 146.805Q79.64375 146.28937 78.925 146.28937Q78.20625 146.28937 77.70625 146.805Q77.22188 147.32062 77.22188 148.14874Z" fill-rule="nonzero"/><path fill="#000000" d="M77.675 98.76708Q77.01875 98.51708 76.69063 98.07958Q76.37813 97.62646 76.37813 97.01708Q76.37813 96.07958 77.05 95.43896Q77.7375 94.79833 78.84688 94.79833Q79.97188 94.79833 80.65938 95.45458Q81.34688 96.11083 81.34688 97.04833Q81.34688 97.64208 81.03438 98.07958Q80.72188 98.51708 80.08125 98.76708Q80.87813 99.01708 81.28438 99.59521Q81.69063 100.17333 81.69063 100.97021Q81.69063 102.06396 80.90938 102.81396Q80.14375 103.56396 78.8625 103.56396Q77.59688 103.56396 76.81563 102.81396Q76.03438 102.06396 76.03438 100.93896Q76.03438 100.09521 76.45625 99.53271Q76.89375 98.97021 77.675 98.76708ZM77.45625 96.97021Q77.45625 97.57958 77.84688 97.97021Q78.25313 98.36083 78.87813 98.36083Q79.4875 98.36083 79.87813 97.98583Q80.26875 97.59521 80.26875 97.03271Q80.26875 96.45458 79.8625 96.06396Q79.45625 95.65771 78.8625 95.65771Q78.25313 95.65771 77.84688 96.04833Q77.45625 96.43896 77.45625 96.97021ZM77.12813 100.93896Q77.12813 101.39208 77.33125 101.81396Q77.55 102.23583 77.97188 102.47021Q78.39375 102.70458 78.87813 102.70458Q79.62813 102.70458 80.1125 102.22021Q80.6125 101.73583 80.6125 100.98583Q80.6125 100.22021 80.1125 99.72021Q79.6125 99.22021 78.84688 99.22021Q78.09688 99.22021 77.6125 99.72021Q77.12813 100.20458 77.12813 100.93896Z" fill-rule="nonzero"/><path fill="#000000" d="M73.01875 55.916668L71.97188 55.916668L71.97188 49.197918Q71.58125 49.557293 70.95625 49.932293Q70.34688 50.291668 69.8625 50.463543L69.8625 49.447918Q70.7375 49.026043 71.39375 48.447918Q72.06563 47.854168 72.34688 47.291668L73.01875 47.291668L73.01875 55.916668ZM76.05 51.682293Q76.05 50.151043 76.3625 49.229168Q76.675 48.291668 77.28438 47.791668Q77.90938 47.291668 78.84688 47.291668Q79.53438 47.291668 80.05 47.572918Q80.58125 47.854168 80.925 48.385418Q81.26875 48.901043 81.45625 49.651043Q81.64375 50.401043 81.64375 51.682293Q81.64375 53.197918 81.33125 54.119793Q81.03438 55.041668 80.40938 55.557293Q79.8 56.057293 78.84688 56.057293Q77.6125 56.057293 76.89375 55.166668Q76.05 54.104168 76.05 51.682293ZM77.12813 51.682293Q77.12813 53.791668 77.62813 54.494793Q78.12813 55.197918 78.84688 55.197918Q79.58125 55.197918 80.06563 54.494793Q80.56563 53.791668 80.56563 51.682293Q80.56563 49.557293 80.06563 48.869793Q79.58125 48.166668 78.83125 48.166668Q78.1125 48.166668 77.675 48.776043Q77.12813 49.557293 77.12813 51.682293Z" fill-rule="nonzero"/><path fill="#000000" d="M161.29965 305.4344L161.29965 306.45L155.61215 306.45Q155.61215 306.075 155.73715 305.71564Q155.9559 305.1375 156.42465 304.575Q156.90903 304.0125 157.81528 303.27814Q159.22153 302.1219 159.7059 301.45Q160.2059 300.77814 160.2059 300.1844Q160.2059 299.5594 159.75278 299.1375Q159.29965 298.7 158.5809 298.7Q157.81528 298.7 157.36215 299.15314Q156.90903 299.60626 156.8934 300.41876L155.81528 300.3094Q155.92465 299.09064 156.6434 298.46564Q157.37778 297.825 158.61215 297.825Q159.84653 297.825 160.56528 298.5125Q161.28403 299.2 161.28403 300.21564Q161.28403 300.73126 161.06528 301.23126Q160.86215 301.71564 160.36215 302.27814Q159.87778 302.825 158.75278 303.77814Q157.79965 304.575 157.5184 304.8719Q157.25278 305.15314 157.0809 305.4344L161.29965 305.4344ZM162.75278 302.21564Q162.75278 300.6844 163.06528 299.7625Q163.37778 298.825 163.98715 298.325Q164.61215 297.825 165.54965 297.825Q166.23715 297.825 166.75278 298.10626Q167.28403 298.3875 167.62778 298.91876Q167.97153 299.4344 168.15903 300.1844Q168.34653 300.9344 168.34653 302.21564Q168.34653 303.73126 168.03403 304.65314Q167.73715 305.575 167.11215 306.09064Q166.50278 306.59064 165.54965 306.59064Q164.31528 306.59064 163.59653 305.7Q162.75278 304.6375 162.75278 302.21564ZM163.8309 302.21564Q163.8309 304.325 164.3309 305.02814Q164.8309 305.73126 165.54965 305.73126Q166.28403 305.73126 166.7684 305.02814Q167.2684 304.325 167.2684 302.21564Q167.2684 300.09064 166.7684 299.40314Q166.28403 298.7 165.53403 298.7Q164.81528 298.7 164.37778 299.3094Q163.8309 300.09064 163.8309 302.21564ZM169.75278 302.21564Q169.75278 300.6844 170.06528 299.7625Q170.37778 298.825 170.98715 298.325Q171.61215 297.825 172.54965 297.825Q173.23715 297.825 173.75278 298.10626Q174.28403 298.3875 174.62778 298.91876Q174.97153 299.4344 175.15903 300.1844Q175.34653 300.9344 175.34653 302.21564Q175.34653 303.73126 175.03403 304.65314Q174.73715 305.575 174.11215 306.09064Q173.50278 306.59064 172.54965 306.59064Q171.31528 306.59064 170.59653 305.7Q169.75278 304.6375 169.75278 302.21564ZM170.8309 302.21564Q170.8309 304.325 171.3309 305.02814Q171.8309 305.73126 172.54965 305.73126Q173.28403 305.73126 173.7684 305.02814Q174.2684 304.325 174.2684 302.21564Q174.2684 300.09064 173.7684 299.40314Q173.28403 298.7 172.53403 298.7Q171.81528 298.7 171.37778 299.3094Q170.8309 300.09064 170.8309 302.21564Z" fill-rule="nonzero"/><path fill="#000000" d="M243.67699 306.45L243.67699 304.3875L239.95824 304.3875L239.95824 303.41876L243.88011 297.85626L244.73949 297.85626L244.73949 303.41876L245.89574 303.41876L245.89574 304.3875L244.73949 304.3875L244.73949 306.45L243.67699 306.45ZM243.67699 303.41876L243.67699 299.5594L240.98949 303.41876L243.67699 303.41876ZM247.30199 302.21564Q247.30199 300.6844 247.61449 299.7625Q247.92699 298.825 248.53636 298.325Q249.16136 297.825 250.09886 297.825Q250.78636 297.825 251.30199 298.10626Q251.83324 298.3875 252.17699 298.91876Q252.52074 299.4344 252.70824 300.1844Q252.89574 300.9344 252.89574 302.21564Q252.89574 303.73126 252.58324 304.65314Q252.28636 305.575 251.66136 306.09064Q251.05199 306.59064 250.09886 306.59064Q248.86449 306.59064 248.14574 305.7Q247.30199 304.6375 247.30199 302.21564ZM248.38011 302.21564Q248.38011 304.325 248.88011 305.02814Q249.38011 305.73126 250.09886 305.73126Q250.83324 305.73126 251.31761 305.02814Q251.81761 304.325 251.81761 302.21564Q251.81761 300.09064 251.31761 299.40314Q250.83324 298.7 250.08324 298.7Q249.36449 298.7 248.92699 299.3094Q248.38011 300.09064 248.38011 302.21564ZM254.30199 302.21564Q254.30199 300.6844 254.61449 299.7625Q254.92699 298.825 255.53636 298.325Q256.16138 297.825 257.09888 297.825Q257.78638 297.825 258.302 298.10626Q258.83325 298.3875 259.177 298.91876Q259.52075 299.4344 259.70825 300.1844Q259.89575 300.9344 259.89575 302.21564Q259.89575 303.73126 259.58325 304.65314Q259.28638 305.575 258.66138 306.09064Q258.052 306.59064 257.09888 306.59064Q255.86449 306.59064 255.14574 305.7Q254.30199 304.6375 254.30199 302.21564ZM255.38011 302.21564Q255.38011 304.325 255.88011 305.02814Q256.38013 305.73126 257.09888 305.73126Q257.83325 305.73126 258.31763 305.02814Q258.81763 304.325 258.81763 302.21564Q258.81763 300.09064 258.31763 299.40314Q257.83325 298.7 257.08325 298.7Q256.3645 298.7 255.92699 299.3094Q255.38011 300.09064 255.38011 302.21564Z" fill-rule="nonzero"/><path fill="#000000" d="M330.31995 299.96564L329.27307 300.04376Q329.13245 299.41876 328.88245 299.1375Q328.44495 298.6844 327.81995 298.6844Q327.31995 298.6844 326.92932 298.96564Q326.44495 299.34064 326.14807 300.04376Q325.86682 300.73126 325.8512 302.0125Q326.2262 301.4344 326.77307 301.15314Q327.33557 300.8719 327.94495 300.8719Q328.99182 300.8719 329.7262 301.65314Q330.4762 302.4344 330.4762 303.65314Q330.4762 304.46564 330.11682 305.16876Q329.77307 305.85626 329.1637 306.23126Q328.55432 306.59064 327.7887 306.59064Q326.46057 306.59064 325.63245 305.6219Q324.80432 304.65314 324.80432 302.4344Q324.80432 299.9344 325.7262 298.8094Q326.52307 297.825 327.88245 297.825Q328.89807 297.825 329.5387 298.40314Q330.19495 298.96564 330.31995 299.96564ZM326.02307 303.66876Q326.02307 304.21564 326.24182 304.71564Q326.4762 305.2 326.88245 305.46564Q327.30432 305.73126 327.77307 305.73126Q328.42932 305.73126 328.9137 305.2Q329.39807 304.65314 329.39807 303.73126Q329.39807 302.84064 328.9137 302.325Q328.44495 301.8094 327.7262 301.8094Q327.00745 301.8094 326.50745 302.325Q326.02307 302.84064 326.02307 303.66876ZM331.8512 302.21564Q331.8512 300.6844 332.1637 299.7625Q332.4762 298.825 333.08557 298.325Q333.71057 297.825 334.64807 297.825Q335.33557 297.825 335.8512 298.10626Q336.38245 298.3875 336.7262 298.91876Q337.06995 299.4344 337.25745 300.1844Q337.44495 300.9344 337.44495 302.21564Q337.44495 303.73126 337.13245 304.65314Q336.83557 305.575 336.21057 306.09064Q335.6012 306.59064 334.64807 306.59064Q333.4137 306.59064 332.69495 305.7Q331.8512 304.6375 331.8512 302.21564ZM332.92932 302.21564Q332.92932 304.325 333.42932 305.02814Q333.92932 305.73126 334.64807 305.73126Q335.38245 305.73126 335.86682 305.02814Q336.36682 304.325 336.36682 302.21564Q336.36682 300.09064 335.86682 299.40314Q335.38245 298.7 334.63245 298.7Q333.9137 298.7 333.4762 299.3094Q332.92932 300.09064 332.92932 302.21564ZM338.8512 302.21564Q338.8512 300.6844 339.1637 299.7625Q339.4762 298.825 340.08557 298.325Q340.71057 297.825 341.64807 297.825Q342.33557 297.825 342.8512 298.10626Q343.38245 298.3875 343.7262 298.91876Q344.06995 299.4344 344.25745 300.1844Q344.44495 300.9344 344.44495 302.21564Q344.44495 303.73126 344.13245 304.65314Q343.83557 305.575 343.21057 306.09064Q342.6012 306.59064 341.64807 306.59064Q340.4137 306.59064 339.69495 305.7Q338.8512 304.6375 338.8512 302.21564ZM339.92932 302.21564Q339.92932 304.325 340.42932 305.02814Q340.92932 305.73126 341.64807 305.73126Q342.38245 305.73126 342.86682 305.02814Q343.36682 304.325 343.36682 302.21564Q343.36682 300.09064 342.86682 299.40314Q342.38245 298.7 341.63245 298.7Q340.9137 298.7 340.4762 299.3094Q339.92932 300.09064 339.92932 302.21564Z" fill-rule="nonzero"/><path fill="#000000" d="M411.02542 301.79376Q410.36917 301.54376 410.04105 301.10626Q409.72855 300.65314 409.72855 300.04376Q409.72855 299.10626 410.40042 298.46564Q411.08792 297.825 412.1973 297.825Q413.3223 297.825 414.0098 298.48126Q414.6973 299.1375 414.6973 300.075Q414.6973 300.66876 414.3848 301.10626Q414.0723 301.54376 413.43167 301.79376Q414.22855 302.04376 414.6348 302.6219Q415.04105 303.2 415.04105 303.9969Q415.04105 305.09064 414.2598 305.84064Q413.49417 306.59064 412.21292 306.59064Q410.9473 306.59064 410.16605 305.84064Q409.3848 305.09064 409.3848 303.96564Q409.3848 303.1219 409.80667 302.5594Q410.24417 301.9969 411.02542 301.79376ZM410.80667 299.9969Q410.80667 300.60626 411.1973 300.9969Q411.60355 301.3875 412.22855 301.3875Q412.83792 301.3875 413.22855 301.0125Q413.61917 300.6219 413.61917 300.0594Q413.61917 299.48126 413.21292 299.09064Q412.80667 298.6844 412.21292 298.6844Q411.60355 298.6844 411.1973 299.075Q410.80667 299.46564 410.80667 299.9969ZM410.47855 303.96564Q410.47855 304.41876 410.68167 304.84064Q410.90042 305.2625 411.3223 305.4969Q411.74417 305.73126 412.22855 305.73126Q412.97855 305.73126 413.46292 305.2469Q413.96292 304.7625 413.96292 304.0125Q413.96292 303.2469 413.46292 302.7469Q412.96292 302.2469 412.1973 302.2469Q411.4473 302.2469 410.96292 302.7469Q410.47855 303.23126 410.47855 303.96564ZM416.40042 302.21564Q416.40042 300.6844 416.71292 299.7625Q417.02542 298.825 417.6348 298.325Q418.2598 297.825 419.1973 297.825Q419.8848 297.825 420.40042 298.10626Q420.93167 298.3875 421.27542 298.91876Q421.61917 299.4344 421.80667 300.1844Q421.99417 300.9344 421.99417 302.21564Q421.99417 303.73126 421.68167 304.65314Q421.3848 305.575 420.7598 306.09064Q420.15042 306.59064 419.1973 306.59064Q417.96292 306.59064 417.24417 305.7Q416.40042 304.6375 416.40042 302.21564ZM417.47855 302.21564Q417.47855 304.325 417.97855 305.02814Q418.47855 305.73126 419.1973 305.73126Q419.93167 305.73126 420.41605 305.02814Q420.91605 304.325 420.91605 302.21564Q420.91605 300.09064 420.41605 299.40314Q419.93167 298.7 419.18167 298.7Q418.46292 298.7 418.02542 299.3094Q417.47855 300.09064 417.47855 302.21564ZM423.40042 302.21564Q423.40042 300.6844 423.71292 299.7625Q424.02542 298.825 424.6348 298.325Q425.2598 297.825 426.1973 297.825Q426.8848 297.825 427.40042 298.10626Q427.93167 298.3875 428.27542 298.91876Q428.61917 299.4344 428.80667 300.1844Q428.99417 300.9344 428.99417 302.21564Q428.99417 303.73126 428.68167 304.65314Q428.3848 305.575 427.7598 306.09064Q427.15042 306.59064 426.1973 306.59064Q424.96292 306.59064 424.24417 305.7Q423.40042 304.6375 423.40042 302.21564ZM424.47855 302.21564Q424.47855 304.325 424.97855 305.02814Q425.47855 305.73126 426.1973 305.73126Q426.93167 305.73126 427.41605 305.02814Q427.91605 304.325 427.91605 302.21564Q427.91605 300.09064 427.41605 299.40314Q426.93167 298.7 426.18167 298.7Q425.46292 298.7 425.02542 299.3094Q424.47855 300.09064 424.47855 302.21564Z" fill-rule="nonzero"/><path fill="#000000" d="M494.4184 306.45L493.37152 306.45L493.37152 299.73126Q492.9809 300.09064 492.3559 300.46564Q491.74652 300.825 491.26215 300.9969L491.26215 299.98126Q492.13715 299.5594 492.7934 298.98126Q493.46527 298.3875 493.74652 297.825L494.4184 297.825L494.4184 306.45ZM497.44965 302.21564Q497.44965 300.6844 497.76215 299.7625Q498.07465 298.825 498.68402 298.325Q499.30902 297.825 500.24652 297.825Q500.93402 297.825 501.44965 298.10626Q501.9809 298.3875 502.32465 298.91876Q502.6684 299.4344 502.8559 300.1844Q503.0434 300.9344 503.0434 302.21564Q503.0434 303.73126 502.7309 304.65314Q502.43402 305.575 501.80902 306.09064Q501.19965 306.59064 500.24652 306.59064Q499.01215 306.59064 498.2934 305.7Q497.44965 304.6375 497.44965 302.21564ZM498.52777 302.21564Q498.52777 304.325 499.02777 305.02814Q499.52777 305.73126 500.24652 305.73126Q500.9809 305.73126 501.46527 305.02814Q501.96527 304.325 501.96527 302.21564Q501.96527 300.09064 501.46527 299.40314Q500.9809 298.7 500.2309 298.7Q499.51215 298.7 499.07465 299.3094Q498.52777 300.09064 498.52777 302.21564ZM504.44965 302.21564Q504.44965 300.6844 504.76215 299.7625Q505.07465 298.825 505.68402 298.325Q506.30902 297.825 507.24652 297.825Q507.93402 297.825 508.44965 298.10626Q508.9809 298.3875 509.32465 298.91876Q509.6684 299.4344 509.8559 300.1844Q510.0434 300.9344 510.0434 302.21564Q510.0434 303.73126 509.7309 304.65314Q509.43402 305.575 508.80902 306.09064Q508.19965 306.59064 507.24652 306.59064Q506.01215 306.59064 505.2934 305.7Q504.44965 304.6375 504.44965 302.21564ZM505.52777 302.21564Q505.52777 304.325 506.02777 305.02814Q506.52777 305.73126 507.24652 305.73126Q507.9809 305.73126 508.46527 305.02814Q508.96527 304.325 508.96527 302.21564Q508.96527 300.09064 508.46527 299.40314Q507.9809 298.7 507.2309 298.7Q506.51215 298.7 506.07465 299.3094Q505.52777 300.09064 505.52777 302.21564ZM511.44965 302.21564Q511.44965 300.6844 511.76215 299.7625Q512.07465 298.825 512.684 298.325Q513.309 297.825 514.2465 297.825Q514.934 297.825 515.44965 298.10626Q515.9809 298.3875 516.32465 298.91876Q516.6684 299.4344 516.8559 300.1844Q517.0434 300.9344 517.0434 302.21564Q517.0434 303.73126 516.7309 304.65314Q516.434 305.575 515.809 306.09064Q515.19965 306.59064 514.2465 306.59064Q513.01215 306.59064 512.2934 305.7Q511.44965 304.6375 511.44965 302.21564ZM512.5278 302.21564Q512.5278 304.325 513.0278 305.02814Q513.5278 305.73126 514.2465 305.73126Q514.9809 305.73126 515.4653 305.02814Q515.9653 304.325 515.9653 302.21564Q515.9653 300.09064 515.4653 299.40314Q514.9809 298.7 514.2309 298.7Q513.51215 298.7 513.07465 299.3094Q512.5278 300.09064 512.5278 302.21564Z" fill-rule="nonzero"/><path fill="#bf9000" d="M184.0 25.55C184.0 28.863708 181.3137 31.55 178.0 31.55C174.6863 31.55 172.0 28.863708 172.0 25.55C172.0 22.236292 174.6863 19.55 178.0 19.55C181.3137 19.55 184.0 22.236292 184.0 25.55Z" fill-rule="nonzero"/><path fill="#1a1a1a" d="M196.85938 28.784374Q196.26562 29.284374 195.71875 29.4875Q195.1875 29.690624 194.5625 29.690624Q193.53125 29.690624 192.98438 29.190624Q192.4375 28.690624 192.4375 27.909374Q192.4375 27.45625 192.64062 27.08125Q192.84375 26.690624 193.1875 26.471874Q193.53125 26.2375 193.95312 26.128124Q194.25 26.034374 194.89062 25.95625Q196.15625 25.815624 196.76562 25.596874Q196.76562 25.378124 196.76562 25.33125Q196.76562 24.675 196.46875 24.409374Q196.0625 24.065624 195.26562 24.065624Q194.53125 24.065624 194.17188 24.33125Q193.8125 24.58125 193.64062 25.2375L192.60938 25.096874Q192.75 24.440624 193.07812 24.034374Q193.40625 23.628124 194.01562 23.409374Q194.625 23.190624 195.42188 23.190624Q196.21875 23.190624 196.71875 23.378124Q197.21875 23.565624 197.45312 23.846874Q197.6875 24.128124 197.78125 24.565624Q197.82812 24.83125 197.82812 25.534374L197.82812 26.940624Q197.82812 28.409374 197.89062 28.8Q197.96875 29.190624 198.17188 29.55L197.0625 29.55Q196.90625 29.221874 196.85938 28.784374ZM196.76562 26.425Q196.1875 26.659374 195.04688 26.83125Q194.39062 26.925 194.125 27.05Q193.85938 27.159374 193.70312 27.378124Q193.5625 27.596874 193.5625 27.878124Q193.5625 28.3 193.875 28.58125Q194.20312 28.8625 194.8125 28.8625Q195.42188 28.8625 195.89062 28.596874Q196.375 28.33125 196.59375 27.8625Q196.76562 27.503124 196.76562 26.815624L196.76562 26.425ZM201.51562 29.55L199.15625 23.33125L200.26562 23.33125L201.60938 27.05Q201.8125 27.659374 202.0 28.3Q202.14062 27.815624 202.39062 27.128124L203.78125 23.33125L204.85938 23.33125L202.5 29.55L201.51562 29.55ZM204.59375 30.065624L205.625 30.221874Q205.6875 30.690624 205.98438 30.909374Q206.375 31.20625 207.04688 31.20625Q207.78125 31.20625 208.17188 30.909374Q208.57812 30.6125 208.71875 30.096874Q208.8125 29.76875 208.79688 28.7375Q208.10938 29.55 207.07812 29.55Q205.79688 29.55 205.09375 28.628124Q204.39062 27.690624 204.39062 26.409374Q204.39062 25.51875 204.70312 24.76875Q205.03125 24.003124 205.64062 23.596874Q206.25 23.190624 207.07812 23.190624Q208.1875 23.190624 208.90625 24.08125L208.90625 23.33125L209.875 23.33125L209.875 28.70625Q209.875 30.159374 209.57812 30.76875Q209.28125 31.378124 208.64062 31.721874Q208.0 32.08125 207.0625 32.08125Q205.95312 32.08125 205.26562 31.58125Q204.57812 31.08125 204.59375 30.065624ZM205.46875 26.33125Q205.46875 27.55 205.95312 28.1125Q206.4375 28.675 207.17188 28.675Q207.90625 28.675 208.39062 28.1125Q208.89062 27.55 208.89062 26.3625Q208.89062 25.221874 208.375 24.64375Q207.875 24.065624 207.15625 24.065624Q206.45312 24.065624 205.95312 24.64375Q205.46875 25.20625 205.46875 26.33125ZM211.375 26.971874L211.375 25.909374L214.625 25.909374L214.625 26.971874L211.375 26.971874ZM219.85938 27.26875L220.89062 27.409374Q220.71875 28.471874 220.01562 29.08125Q219.3125 29.690624 218.29688 29.690624Q217.01562 29.690624 216.23438 28.8625Q215.46875 28.01875 215.46875 26.45625Q215.46875 25.45625 215.79688 24.70625Q216.14062 23.940624 216.8125 23.565624Q217.5 23.190624 218.3125 23.190624Q219.3125 23.190624 219.95312 23.70625Q220.60938 24.20625 220.79688 25.159374L219.76562 25.315624Q219.625 24.690624 219.25 24.378124Q218.875 24.05 218.34375 24.05Q217.54688 24.05 217.04688 24.628124Q216.54688 25.190624 216.54688 26.425Q216.54688 27.690624 217.03125 28.253124Q217.51562 28.815624 218.28125 28.815624Q218.90625 28.815624 219.3125 28.440624Q219.73438 28.065624 219.85938 27.26875ZM221.79688 31.940624L221.79688 23.33125L222.75 23.33125L222.75 24.128124Q223.09375 23.659374 223.51562 23.425Q223.95312 23.190624 224.5625 23.190624Q225.35938 23.190624 225.96875 23.596874Q226.57812 24.003124 226.875 24.753124Q227.1875 25.503124 227.1875 26.39375Q227.1875 27.346874 226.84375 28.1125Q226.51562 28.878124 225.85938 29.284374Q225.20312 29.690624 224.48438 29.690624Q223.95312 29.690624 223.53125 29.471874Q223.10938 29.2375 222.84375 28.909374L222.84375 31.940624L221.79688 31.940624ZM222.75 26.471874Q222.75 27.675 223.23438 28.253124Q223.71875 28.815624 224.40625 28.815624Q225.10938 28.815624 225.60938 28.221874Q226.10938 27.628124 226.10938 26.378124Q226.10938 25.190624 225.625 24.6125Q225.14062 24.01875 224.45312 24.01875Q223.78125 24.01875 223.26562 24.64375Q222.75 25.26875 222.75 26.471874ZM232.875 29.55L232.875 28.628124Q232.14062 29.690624 230.89062 29.690624Q230.34375 29.690624 229.85938 29.4875Q229.39062 29.26875 229.15625 28.95625Q228.92188 28.628124 228.82812 28.159374Q228.76562 27.8625 228.76562 27.175L228.76562 23.33125L229.82812 23.33125L229.82812 26.784374Q229.82812 27.596874 229.89062 27.89375Q229.98438 28.3 230.29688 28.55Q230.625 28.784374 231.10938 28.784374Q231.57812 28.784374 231.98438 28.55Q232.40625 28.3 232.57812 27.878124Q232.76562 27.45625 232.76562 26.659374L232.76562 23.33125L233.8125 23.33125L233.8125 29.55L232.875 29.55Z" fill-rule="nonzero"/><path stroke="#0000ff" stroke-width="4.0" stroke-linecap="butt" stroke-opacity="0.4" d="M251.0 25.55L263.0 25.55" fill-rule="nonzero"/><path fill="#1a1a1a" d="M276.96875 23.065624L275.92188 23.14375Q275.78125 22.51875 275.53125 22.2375Q275.09375 21.784374 274.46875 21.784374Q273.96875 21.784374 273.57812 22.065624Q273.09375 22.440624 272.79688 23.14375Q272.51562 23.83125 272.5 25.1125Q272.875 24.534374 273.42188 24.253124Q273.98438 23.971874 274.59375 23.971874Q275.64062 23.971874 276.375 24.753124Q277.125 25.534374 277.125 26.753124Q277.125 27.565624 276.76562 28.26875Q276.42188 28.95625 275.8125 29.33125Q275.20312 29.690624 274.4375 29.690624Q273.10938 29.690624 272.28125 28.721874Q271.45312 27.753124 271.45312 25.534374Q271.45312 23.034374 272.375 21.909374Q273.17188 20.925 274.53125 20.925Q275.54688 20.925 276.1875 21.503124Q276.84375 22.065624 276.96875 23.065624ZM272.67188 26.76875Q272.67188 27.315624 272.89062 27.815624Q273.125 28.3 273.53125 28.565624Q273.95312 28.83125 274.42188 28.83125Q275.07812 28.83125 275.5625 28.3Q276.04688 27.753124 276.04688 26.83125Q276.04688 25.940624 275.5625 25.425Q275.09375 24.909374 274.375 24.909374Q273.65625 24.909374 273.15625 25.425Q272.67188 25.940624 272.67188 26.76875ZM279.09375 29.55L279.09375 28.346874L280.29688 28.346874L280.29688 29.55L279.09375 29.55ZM281.5 25.315624Q281.5 23.784374 281.8125 22.8625Q282.125 21.925 282.73438 21.425Q283.35938 20.925 284.29688 20.925Q284.98438 20.925 285.5 21.20625Q286.03125 21.4875 286.375 22.01875Q286.71875 22.534374 286.90625 23.284374Q287.09375 24.034374 287.09375 25.315624Q287.09375 26.83125 286.78125 27.753124Q286.48438 28.675 285.85938 29.190624Q285.25 29.690624 284.29688 29.690624Q283.0625 29.690624 282.34375 28.8Q281.5 27.7375 281.5 25.315624ZM282.57812 25.315624Q282.57812 27.425 283.07812 28.128124Q283.57812 28.83125 284.29688 28.83125Q285.03125 28.83125 285.51562 28.128124Q286.01562 27.425 286.01562 25.315624Q286.01562 23.190624 285.51562 22.503124Q285.03125 21.8 284.28125 21.8Q283.5625 21.8 283.125 22.409374Q282.57812 23.190624 282.57812 25.315624ZM288.65625 27.565624L289.67188 27.471874Q289.79688 28.190624 290.15625 28.51875Q290.53125 28.83125 291.09375 28.83125Q291.57812 28.83125 291.9375 28.6125Q292.3125 28.378124 292.54688 28.01875Q292.78125 27.64375 292.9375 27.01875Q293.09375 26.378124 293.09375 25.721874Q293.09375 25.64375 293.09375 25.503124Q292.78125 26.003124 292.23438 26.33125Q291.6875 26.64375 291.04688 26.64375Q289.96875 26.64375 289.23438 25.878124Q288.5 25.096874 288.5 23.83125Q288.5 22.51875 289.26562 21.721874Q290.04688 20.925 291.20312 20.925Q292.03125 20.925 292.71875 21.378124Q293.42188 21.83125 293.78125 22.675Q294.14062 23.503124 294.14062 25.08125Q294.14062 26.721874 293.78125 27.70625Q293.4375 28.675 292.71875 29.190624Q292.01562 29.690624 291.07812 29.690624Q290.0625 29.690624 289.42188 29.14375Q288.78125 28.58125 288.65625 27.565624ZM292.96875 23.76875Q292.96875 22.8625 292.48438 22.33125Q292.01562 21.8 291.32812 21.8Q290.625 21.8 290.09375 22.378124Q289.57812 22.940624 289.57812 23.8625Q289.57812 24.675 290.07812 25.190624Q290.57812 25.70625 291.29688 25.70625Q292.03125 25.70625 292.5 25.190624Q292.96875 24.675 292.96875 23.76875ZM295.95312 29.55L295.95312 20.95625L302.15625 20.95625L302.15625 21.971874L297.09375 21.971874L297.09375 24.596874L301.84375 24.596874L301.84375 25.6125L297.09375 25.6125L297.09375 28.534374L302.35938 28.534374L302.35938 29.55L295.95312 29.55ZM303.375 26.971874L303.375 25.909374L306.625 25.909374L306.625 26.971874L303.375 26.971874ZM307.5 25.315624Q307.5 23.784374 307.8125 22.8625Q308.125 21.925 308.73438 21.425Q309.35938 20.925 310.29688 20.925Q310.98438 20.925 311.5 21.20625Q312.03125 21.4875 312.375 22.01875Q312.71875 22.534374 312.90625 23.284374Q313.09375 24.034374 313.09375 25.315624Q313.09375 26.83125 312.78125 27.753124Q312.48438 28.675 311.85938 29.190624Q311.25 29.690624 310.29688 29.690624Q309.0625 29.690624 308.34375 28.8Q307.5 27.7375 307.5 25.315624ZM308.57812 25.315624Q308.57812 27.425 309.07812 28.128124Q309.57812 28.83125 310.29688 28.83125Q311.03125 28.83125 311.51562 28.128124Q312.01562 27.425 312.01562 25.315624Q312.01562 23.190624 311.51562 22.503124Q311.03125 21.8 310.28125 21.8Q309.5625 21.8 309.125 22.409374Q308.57812 23.190624 308.57812 25.315624ZM314.5 27.284374L315.5625 27.14375Q315.73438 28.034374 316.17188 28.440624Q316.60938 28.83125 317.23438 28.83125Q317.98438 28.83125 318.5 28.315624Q319.01562 27.8 319.01562 27.034374Q319.01562 26.315624 318.53125 25.846874Q318.0625 25.3625 317.32812 25.3625Q317.03125 25.3625 316.57812 25.4875L316.70312 24.55Q316.8125 24.565624 316.875 24.565624Q317.54688 24.565624 318.07812 24.221874Q318.625 23.8625 318.625 23.128124Q318.625 22.55 318.23438 22.175Q317.84375 21.784374 317.21875 21.784374Q316.60938 21.784374 316.1875 22.175Q315.78125 22.565624 315.67188 23.33125L314.60938 23.14375Q314.79688 22.096874 315.48438 21.51875Q316.17188 20.925 317.1875 20.925Q317.89062 20.925 318.48438 21.2375Q319.07812 21.534374 319.39062 22.05Q319.70312 22.565624 319.70312 23.159374Q319.70312 23.70625 319.40625 24.175Q319.10938 24.628124 318.53125 24.89375Q319.28125 25.065624 319.70312 25.628124Q320.125 26.175 320.125 27.01875Q320.125 28.14375 319.29688 28.925Q318.48438 29.70625 317.23438 29.70625Q316.10938 29.70625 315.35938 29.034374Q314.60938 28.346874 314.5 27.284374ZM321.375 22.534374L321.64062 21.70625Q322.57812 22.034374 323.0 22.26875Q322.89062 21.20625 322.875 20.815624L323.73438 20.815624Q323.71875 21.39375 323.59375 22.26875Q324.20312 21.95625 324.98438 21.70625L325.25 22.534374Q324.5 22.784374 323.79688 22.8625Q324.14062 23.175 324.79688 23.971874L324.09375 24.471874Q323.75 24.003124 323.29688 23.20625Q322.85938 24.034374 322.53125 24.471874L321.84375 23.971874Q322.51562 23.128124 322.8125 22.8625Q322.0625 22.721874 321.375 22.534374ZM326.09375 29.55L328.35938 26.315624L326.26562 23.33125L327.57812 23.33125L328.53125 24.784374Q328.79688 25.20625 328.96875 25.4875Q329.21875 25.096874 329.4375 24.8L330.48438 23.33125L331.75 23.33125L329.59375 26.253124L331.90625 29.55L330.625 29.55L329.34375 27.6125L329.0 27.096874L327.35938 29.55L326.09375 29.55ZM337.0 28.159374L337.0 25.8L334.67188 25.8L334.67188 24.815624L337.0 24.815624L337.0 22.4875L338.0 22.4875L338.0 24.815624L340.34375 24.815624L340.34375 25.8L338.0 25.8L338.0 28.159374L337.0 28.159374ZM348.46875 29.55L347.42188 29.55L347.42188 22.83125Q347.03125 23.190624 346.40625 23.565624Q345.79688 23.925 345.3125 24.096874L345.3125 23.08125Q346.1875 22.659374 346.84375 22.08125Q347.51562 21.4875 347.79688 20.925L348.46875 20.925L348.46875 29.55ZM352.09375 29.55L352.09375 28.346874L353.29688 28.346874L353.29688 29.55L352.09375 29.55ZM358.46875 29.55L357.42188 29.55L357.42188 22.83125Q357.03125 23.190624 356.40625 23.565624Q355.79688 23.925 355.3125 24.096874L355.3125 23.08125Q356.1875 22.659374 356.84375 22.08125Q357.51562 21.4875 357.79688 20.925L358.46875 20.925L358.46875 29.55ZM367.04688 28.534374L367.04688 29.55L361.35938 29.55Q361.35938 29.175 361.48438 28.815624Q361.70312 28.2375 362.17188 27.675Q362.65625 27.1125 363.5625 26.378124Q364.96875 25.221874 365.45312 24.55Q365.95312 23.878124 365.95312 23.284374Q365.95312 22.659374 365.5 22.2375Q365.04688 21.8 364.32812 21.8Q363.5625 21.8 363.10938 22.253124Q362.65625 22.70625 362.64062 23.51875L361.5625 23.409374Q361.67188 22.190624 362.39062 21.565624Q363.125 20.925 364.35938 20.925Q365.59375 20.925 366.3125 21.6125Q367.03125 22.3 367.03125 23.315624Q367.03125 23.83125 366.8125 24.33125Q366.60938 24.815624 366.10938 25.378124Q365.625 25.925 364.5 26.878124Q363.54688 27.675 363.26562 27.971874Q363.0 28.253124 362.82812 28.534374L367.04688 28.534374ZM371.9375 29.55L371.9375 20.95625L375.75 20.95625Q376.90625 20.95625 377.5 21.190624Q378.09375 21.425 378.45312 22.01875Q378.8125 22.596874 378.8125 23.3Q378.8125 24.221874 378.21875 24.846874Q377.625 25.471874 376.39062 25.64375Q376.84375 25.8625 377.07812 26.065624Q377.57812 26.51875 378.01562 27.20625L379.51562 29.55L378.07812 29.55L376.95312 27.76875Q376.45312 26.9875 376.125 26.58125Q375.8125 26.175 375.54688 26.01875Q375.29688 25.846874 375.03125 25.76875Q374.84375 25.7375 374.40625 25.7375L373.07812 25.7375L373.07812 29.55L371.9375 29.55ZM373.07812 24.753124L375.53125 24.753124Q376.29688 24.753124 376.73438 24.596874Q377.1875 24.425 377.40625 24.08125Q377.64062 23.721874 377.64062 23.3Q377.64062 22.690624 377.1875 22.3Q376.75 21.909374 375.79688 21.909374L373.07812 21.909374L373.07812 24.753124ZM380.14062 25.253124Q380.1875 24.925 380.42188 24.58125Q380.79688 24.08125 381.64062 23.471874Q382.48438 22.8625 382.64062 22.675Q382.85938 22.440624 382.85938 22.190624Q382.85938 21.909374 382.64062 21.7375Q382.4375 21.55 382.04688 21.55Q381.65625 21.55 381.46875 21.690624Q381.28125 21.815624 381.15625 22.20625L380.26562 22.1125Q380.4375 21.471874 380.85938 21.159374Q381.28125 20.846874 382.0625 20.846874Q382.95312 20.846874 383.35938 21.20625Q383.78125 21.55 383.78125 22.05Q383.78125 22.534374 383.42188 22.971874Q383.17188 23.3 382.23438 23.971874Q381.73438 24.33125 381.53125 24.55L383.79688 24.55L383.79688 25.253124L380.14062 25.253124ZM393.34375 24.503124L387.67188 24.503124L387.67188 23.51875L393.34375 23.51875L393.34375 24.503124ZM393.34375 27.1125L387.67188 27.1125L387.67188 26.128124L393.34375 26.128124L393.34375 27.1125ZM397.5 25.315624Q397.5 23.784374 397.8125 22.8625Q398.125 21.925 398.73438 21.425Q399.35938 20.925 400.29688 20.925Q400.98438 20.925 401.5 21.20625Q402.03125 21.4875 402.375 22.01875Q402.71875 22.534374 402.90625 23.284374Q403.09375 24.034374 403.09375 25.315624Q403.09375 26.83125 402.78125 27.753124Q402.48438 28.675 401.85938 29.190624Q401.25 29.690624 400.29688 29.690624Q399.0625 29.690624 398.34375 28.8Q397.5 27.7375 397.5 25.315624ZM398.57812 25.315624Q398.57812 27.425 399.07812 28.128124Q399.57812 28.83125 400.29688 28.83125Q401.03125 28.83125 401.51562 28.128124Q402.01562 27.425 402.01562 25.315624Q402.01562 23.190624 401.51562 22.503124Q401.03125 21.8 400.28125 21.8Q399.5625 21.8 399.125 22.409374Q398.57812 23.190624 398.57812 25.315624ZM405.09375 29.55L405.09375 28.346874L406.29688 28.346874L406.29688 29.55L405.09375 29.55ZM407.65625 27.565624L408.67188 27.471874Q408.79688 28.190624 409.15625 28.51875Q409.53125 28.83125 410.09375 28.83125Q410.57812 28.83125 410.9375 28.6125Q411.3125 28.378124 411.54688 28.01875Q411.78125 27.64375 411.9375 27.01875Q412.09375 26.378124 412.09375 25.721874Q412.09375 25.64375 412.09375 25.503124Q411.78125 26.003124 411.23438 26.33125Q410.6875 26.64375 410.04688 26.64375Q408.96875 26.64375 408.23438 25.878124Q407.5 25.096874 407.5 23.83125Q407.5 22.51875 408.26562 21.721874Q409.04688 20.925 410.20312 20.925Q411.03125 20.925 411.71875 21.378124Q412.42188 21.83125 412.78125 22.675Q413.14062 23.503124 413.14062 25.08125Q413.14062 26.721874 412.78125 27.70625Q412.4375 28.675 411.71875 29.190624Q411.01562 29.690624 410.07812 29.690624Q409.0625 29.690624 408.42188 29.14375Q407.78125 28.58125 407.65625 27.565624ZM411.96875 23.76875Q411.96875 22.8625 411.48438 22.33125Q411.01562 21.8 410.32812 21.8Q409.625 21.8 409.09375 22.378124Q408.57812 22.940624 408.57812 23.8625Q408.57812 24.675 409.07812 25.190624Q409.57812 25.70625 410.29688 25.70625Q411.03125 25.70625 411.5 25.190624Q411.96875 24.675 411.96875 23.76875ZM414.65625 27.565624L415.67188 27.471874Q415.79688 28.190624 416.15625 28.51875Q416.53125 28.83125 417.09375 28.83125Q417.57812 28.83125 417.9375 28.6125Q418.3125 28.378124 418.54688 28.01875Q418.78125 27.64375 418.9375 27.01875Q419.09375 26.378124 419.09375 25.721874Q419.09375 25.64375 419.09375 25.503124Q418.78125 26.003124 418.23438 26.33125Q417.6875 26.64375 417.04688 26.64375Q415.96875 26.64375 415.23438 25.878124Q414.5 25.096874 414.5 23.83125Q414.5 22.51875 415.26562 21.721874Q416.04688 20.925 417.20312 20.925Q418.03125 20.925 418.71875 21.378124Q419.42188 21.83125 419.78125 22.675Q420.14062 23.503124 420.14062 25.08125Q420.14062 26.721874 419.78125 27.70625Q419.4375 28.675 418.71875 29.190624Q418.01562 29.690624 417.07812 29.690624Q416.0625 29.690624 415.42188 29.14375Q414.78125 28.58125 414.65625 27.565624ZM418.96875 23.76875Q418.96875 22.8625 418.48438 22.33125Q418.01562 21.8 417.32812 21.8Q416.625 21.8 416.09375 22.378124Q415.57812 22.940624 415.57812 23.8625Q415.57812 24.675 416.07812 25.190624Q416.57812 25.70625 417.29688 25.70625Q418.03125 25.70625 418.5 25.190624Q418.96875 24.675 418.96875 23.76875ZM426.96875 23.065624L425.92188 23.14375Q425.78125 22.51875 425.53125 22.2375Q425.09375 21.784374 424.46875 21.784374Q423.96875 21.784374 423.57812 22.065624Q423.09375 22.440624 422.79688 23.14375Q422.51562 23.83125 422.5 25.1125Q422.875 24.534374 423.42188 24.253124Q423.98438 23.971874 424.59375 23.971874Q425.64062 23.971874 426.375 24.753124Q427.125 25.534374 427.125 26.753124Q427.125 27.565624 426.76562 28.26875Q426.42188 28.95625 425.8125 29.33125Q425.20312 29.690624 424.4375 29.690624Q423.10938 29.690624 422.28125 28.721874Q421.45312 27.753124 421.45312 25.534374Q421.45312 23.034374 422.375 21.909374Q423.17188 20.925 424.53125 20.925Q425.54688 20.925 426.1875 21.503124Q426.84375 22.065624 426.96875 23.065624ZM422.67188 26.76875Q422.67188 27.315624 422.89062 27.815624Q423.125 28.3 423.53125 28.565624Q423.95312 28.83125 424.42188 28.83125Q425.07812 28.83125 425.5625 28.3Q426.04688 27.753124 426.04688 26.83125Q426.04688 25.940624 425.5625 25.425Q425.09375 24.909374 424.375 24.909374Q423.65625 24.909374 423.15625 25.425Q422.67188 25.940624 422.67188 26.76875Z" fill-rule="nonzero"/></svg>