<svg version="1.1" viewBox="0.0 0.0 600.0 371.0" fill="none" stroke="none" stroke-linecap="square" stroke-miterlimit="10" width="600" height="371" xmlns:xlink="http://www.w3.org/1999/xlink" xmlns="http://www.w3.org/2000/svg"><path fill="#ffffff" d="M0 0L600.0 0L600.0 371.0L0 371.0L0 0Z" fill-rule="nonzero"/><path stroke="#cccccc" stroke-width="1.0" stroke-linecap="butt" d="M198.5 51.5L198.5 289.5" fill-rule="nonzero"/><path stroke="#cccccc" stroke-width="1.0" stroke-linecap="butt" d="M312.5 51.5L312.5 289.5" fill-rule="nonzero"/><path stroke="#cccccc" stroke-width="1.0" stroke-linecap="butt" d="M427.5 51.5L427.5 289.5" fill-rule="nonzero"/><path stroke="#cccccc" stroke-width="1.0" stroke-linecap="butt" d="M541.5 51.5L541.5 289.5" fill-rule="nonzero"/><path stroke="#333333" stroke-width="1.0" stroke-linecap="butt" d="M88.5 289.5L581.5 289.5" fill-rule="nonzero"/><path stroke="#cccccc" stroke-width="1.0" stroke-linecap="butt" d="M88.5 230.5L581.5 230.5" fill-rule="nonzero"/><path stroke="#cccccc" stroke-width="1.0" stroke-linecap="butt" d="M88.5 170.5L581.5 170.5" fill-rule="nonzero"/><path stroke="#cccccc" stroke-width="1.0" stroke-linecap="butt" d="M88.5 111.5L581.5 111.5" fill-rule="nonzero"/><path stroke="#cccccc" stroke-width="1.0" stroke-linecap="butt" d="M88.5 51.5L581.5 51.5" fill-rule="nonzero"/><clipPath id="id_0"><path d="M88.55 51.916668L581.45 51.916668L581.45 289.45L88.55 289.45L88.55 51.916668Z" clip-rule="nonzero"/></clipPath><path stroke="#cc4125" stroke-width="2.0" stroke-linecap="butt" stroke-opacity="0.4" clip-path="url(#id_0)" d="M0 178.57413L581.45 89.62707" fill-rule="nonzero"/><path fill="#4a86e8" clip-path="url(#id_0)" d="M99.85667 175.35637C99.85667 177.84164 97.84195 179.85637 95.35667 179.85637C92.87138 179.85637 90.85667 177.84164 90.85667 175.35637C90.85667 172.87108 92.87138 170.85637 95.35667 170.85637C97.84195 170.85637 99.85667 172.87108 99.85667 175.35637Z" fill-rule="nonzero"/><path fill="#4a86e8" clip-path="url(#id_0)" d="M105.79309 171.51692C105.79309 174.0022 103.77837 176.01692 101.29309 176.01692C98.80781 176.01692 96.79309 174.0022 96.79309 171.51692C96.79309 169.03163 98.80781 167.01692 101.29309 167.01692C103.77837 167.01692 105.79309 169.03163 105.79309 171.51692Z" fill-rule="nonzero"/><path fill="#4a86e8" clip-path="url(#id_0)" d="M119.35698 166.144C119.35698 168.62929 117.34226 170.644 114.85698 170.644C112.371704 170.644 110.35698 168.62929 110.35698 166.144C110.35698 163.65872 112.371704 161.644 114.85698 161.644C117.34226 161.644 119.35698 163.65872 119.35698 166.144Z" fill-rule="nonzero"/><path fill="#4a86e8" clip-path="url(#id_0)" d="M125.32498 163.25435C125.32498 165.73962 123.310265 167.75435 120.82498 167.75435C118.33971 167.75435 116.32498 165.73962 116.32498 163.25435C116.32498 160.76906 118.33971 158.75435 120.82498 158.75435C123.310265 158.75435 125.32498 160.76906 125.32498 163.25435Z" fill-rule="nonzero"/><path fill="#4a86e8" clip-path="url(#id_0)" d="M136.12718 159.25198C136.12718 161.73726 134.11246 163.75198 131.62718 163.75198C129.14189 163.75198 127.127174 161.73726 127.127174 159.25198C127.127174 156.7667 129.14189 154.75198 131.62718 154.75198C134.11246 154.75198 136.12718 156.7667 136.12718 159.25198Z" fill-rule="nonzero"/><path fill="#4a86e8" clip-path="url(#id_0)" d="M142.8811 157.30669C142.8811 159.79196 140.86638 161.80669 138.3811 161.80669C135.89581 161.80669 133.8811 159.79196 133.8811 157.30669C133.8811 154.8214 135.89581 152.80669 138.3811 152.80669C140.86638 152.80669 142.8811 154.8214 142.8811 157.30669Z" fill-rule="nonzero"/><path fill="#4a86e8" clip-path="url(#id_0)" d="M172.91212 154.051C172.91212 156.53629 170.8974 158.551 168.41212 158.551C165.92683 158.551 163.91212 156.53629 163.91212 154.051C163.91212 151.56572 165.92683 149.551 168.41212 149.551C170.8974 149.551 172.91212 151.56572 172.91212 154.051Z" fill-rule="nonzero"/><path fill="#4a86e8" clip-path="url(#id_0)" d="M162.66917 152.75598C162.66917 155.24126 160.65446 157.25598 158.16917 157.25598C155.6839 157.25598 153.66917 155.24126 153.66917 152.75598C153.66917 150.27069 155.6839 148.25598 158.16917 148.25598C160.65446 148.25598 162.66917 150.27069 162.66917 152.75598Z" fill-rule="nonzero"/><path fill="#4a86e8" clip-path="url(#id_0)" d="M221.70999 150.46608C221.70999 152.95135 219.69527 154.96608 217.20999 154.96608C214.7247 154.96608 212.70999 152.95135 212.70999 150.46608C212.70999 147.9808 214.7247 145.96608 217.20999 145.96608C219.69527 145.96608 221.70999 147.9808 221.70999 150.46608Z" fill-rule="nonzero"/><path fill="#4a86e8" clip-path="url(#id_0)" d="M180.7153 147.21593C180.7153 149.7012 178.70058 151.71593 176.2153 151.71593C173.73001 151.71593 171.7153 149.7012 171.7153 147.21593C171.7153 144.73064 173.73001 142.71593 176.2153 142.71593C178.70058 142.71593 180.7153 144.73064 180.7153 147.21593Z" fill-rule="nonzero"/><path fill="#4a86e8" clip-path="url(#id_0)" d="M171.0963 147.74683C171.0963 150.2321 169.08159 152.24683 166.5963 152.24683C164.11102 152.24683 162.0963 150.2321 162.0963 147.74683C162.0963 145.26154 164.11102 143.24683 166.5963 143.24683C169.08159 143.24683 171.0963 145.26154 171.0963 147.74683Z" fill-rule="nonzero"/><path fill="#4a86e8" clip-path="url(#id_0)" d="M202.15111 143.18996C202.15111 145.67523 200.1364 147.68996 197.65111 147.68996C195.16583 147.68996 193.15111 145.67523 193.15111 143.18996C193.15111 140.70467 195.16583 138.68996 197.65111 138.68996C200.1364 138.68996 202.15111 140.70467 202.15111 143.18996Z" fill-rule="nonzero"/><path fill="#4a86e8" clip-path="url(#id_0)" d="M239.62245 140.33745C239.62245 142.82274 237.60773 144.83745 235.12245 144.83745C232.63716 144.83745 230.62245 142.82274 230.62245 140.33745C230.62245 137.85217 232.63716 135.83745 235.12245 135.83745C237.60773 135.83745 239.62245 137.85217 239.62245 140.33745Z" fill-rule="nonzero"/><path fill="#4a86e8" clip-path="url(#id_0)" d="M262.5646 142.48096C262.5646 144.96625 260.5499 146.98096 258.0646 146.98096C255.57933 146.98096 253.5646 144.96625 253.5646 142.48096C253.5646 139.99568 255.57933 137.98096 258.0646 137.98096C260.5499 137.98096 262.5646 139.99568 262.5646 142.48096Z" fill-rule="nonzero"/><path fill="#4a86e8" clip-path="url(#id_0)" d="M225.30597 138.60577C225.30597 141.09105 223.29124 143.10577 220.80597 143.10577C218.32068 143.10577 216.30597 141.09105 216.30597 138.60577C216.30597 136.12048 218.32068 134.10577 220.80597 134.10577C223.29124 134.10577 225.30597 136.12048 225.30597 138.60577Z" fill-rule="nonzero"/><path fill="#4a86e8" clip-path="url(#id_0)" d="M235.98949 136.00648C235.98949 138.49176 233.97478 140.50648 231.48949 140.50648C229.00421 140.50648 226.98949 138.49176 226.98949 136.00648C226.98949 133.5212 229.00421 131.50648 231.48949 131.50648C233.97478 131.50648 235.98949 133.5212 235.98949 136.00648Z" fill-rule="nonzero"/><path fill="#4a86e8" clip-path="url(#id_0)" d="M245.76639 134.84161C245.76639 137.3269 243.75166 139.34161 241.26639 139.34161C238.7811 139.34161 236.76639 137.3269 236.76639 134.84161C236.76639 132.35634 238.7811 130.34161 241.26639 130.34161C243.75166 130.34161 245.76639 132.35634 245.76639 134.84161Z" fill-rule="nonzero"/><path fill="#4a86e8" clip-path="url(#id_0)" d="M271.8296 134.0156C271.8296 136.50089 269.81488 138.5156 267.3296 138.5156C264.84433 138.5156 262.8296 136.50089 262.8296 134.0156C262.8296 131.53032 264.84433 129.5156 267.3296 129.5156C269.81488 129.5156 271.8296 131.53032 271.8296 134.0156Z" fill-rule="nonzero"/><path fill="#4a86e8" clip-path="url(#id_0)" d="M294.5133 132.27559C294.5133 134.76086 292.4986 136.77559 290.0133 136.77559C287.52805 136.77559 285.5133 134.76086 285.5133 132.27559C285.5133 129.7903 287.52805 127.77558 290.0133 127.77558C292.4986 127.77558 294.5133 129.7903 294.5133 132.27559Z" fill-rule="nonzero"/><path fill="#4a86e8" clip-path="url(#id_0)" d="M306.66122 131.82756C306.66122 134.31284 304.64648 136.32756 302.16122 136.32756C299.67593 136.32756 297.66122 134.31284 297.66122 131.82756C297.66122 129.34227 299.67593 127.32755 302.16122 127.32755C304.64648 127.32755 306.66122 129.34227 306.66122 131.82756Z" fill-rule="nonzero"/><path fill="#4a86e8" clip-path="url(#id_0)" d="M285.4979 128.85196C285.4979 131.33723 283.4832 133.35196 280.9979 133.35196C278.5126 133.35196 276.4979 131.33723 276.4979 128.85196C276.4979 126.36668 278.5126 124.35195 280.9979 124.35195C283.4832 124.35195 285.4979 126.36668 285.4979 128.85196Z" fill-rule="nonzero"/><path fill="#4a86e8" clip-path="url(#id_0)" d="M311.96603 130.74673C311.96603 133.23203 309.95132 135.24673 307.46603 135.24673C304.98077 135.24673 302.96603 133.23203 302.96603 130.74673C302.96603 128.26146 304.98077 126.246735 307.46603 126.246735C309.95132 126.246735 311.96603 128.26146 311.96603 130.74673Z" fill-rule="nonzero"/><path fill="#4a86e8" clip-path="url(#id_0)" d="M317.39822 126.00389C317.39822 128.48917 315.38348 130.50389 312.89822 130.50389C310.41293 130.50389 308.39822 128.48917 308.39822 126.00389C308.39822 123.51861 310.41293 121.50389 312.89822 121.50389C315.38348 121.50389 317.39822 123.51861 317.39822 126.00389Z" fill-rule="nonzero"/><path fill="#4a86e8" clip-path="url(#id_0)" d="M321.18265 126.50294C321.18265 128.98822 319.16794 131.00293 316.68265 131.00293C314.1974 131.00293 312.18265 128.98822 312.18265 126.50294C312.18265 124.017654 314.1974 122.00294 316.68265 122.00294C319.16794 122.00294 321.18265 124.017654 321.18265 126.50294Z" fill-rule="nonzero"/><path fill="#4a86e8" clip-path="url(#id_0)" d="M383.85 120.31406C383.85 122.79934 381.8353 124.81406 379.35 124.81406C376.86472 124.81406 374.85 122.79934 374.85 120.31406C374.85 117.82878 376.86472 115.81406 379.35 115.81406C381.8353 115.81406 383.85 117.82878 383.85 120.31406Z" fill-rule="nonzero"/><path fill="#4a86e8" clip-path="url(#id_0)" d="M417.23508 119.53013C417.23508 122.01541 415.22034 124.03013 412.73508 124.03013C410.2498 124.03013 408.23508 122.01541 408.23508 119.53013C408.23508 117.04485 410.2498 115.03013 412.73508 115.03013C415.22034 115.03013 417.23508 117.04485 417.23508 119.53013Z" fill-rule="nonzero"/><path fill="#4a86e8" clip-path="url(#id_0)" d="M403.01923 112.37783C403.01923 114.863106 401.00452 116.87783 398.51923 116.87783C396.03394 116.87783 394.01923 114.863106 394.01923 112.37783C394.01923 109.89255 396.03394 107.87783 398.51923 107.87783C401.00452 107.87783 403.01923 109.89255 403.01923 112.37783Z" fill-rule="nonzero"/><path fill="#4a86e8" clip-path="url(#id_0)" d="M410.26212 119.34121C410.26212 121.826485 408.2474 123.84121 405.76212 123.84121C403.27686 123.84121 401.26212 121.826485 401.26212 119.34121C401.26212 116.85593 403.27686 114.84121 405.76212 114.84121C408.2474 114.84121 410.26212 116.85593 410.26212 119.34121Z" fill-rule="nonzero"/><path fill="#4a86e8" clip-path="url(#id_0)" d="M419.87604 118.363235C419.87604 120.84852 417.8613 122.863235 415.37604 122.863235C412.89075 122.863235 410.87604 120.84852 410.87604 118.363235C410.87604 115.87795 412.89075 113.863235 415.37604 113.863235C417.8613 113.863235 419.87604 115.87795 419.87604 118.363235Z" fill-rule="nonzero"/><path fill="#4a86e8" clip-path="url(#id_0)" d="M464.09232 115.19155C464.09232 117.676834 462.0776 119.69155 459.59232 119.69155C457.10706 119.69155 455.09232 117.676834 455.09232 115.19155C455.09232 112.70627 457.10706 110.69155 459.59232 110.69155C462.0776 110.69155 464.09232 112.70627 464.09232 115.19155Z" fill-rule="nonzero"/><path fill="#4a86e8" clip-path="url(#id_0)" d="M455.86893 117.4828C455.86893 119.96809 453.85422 121.9828 451.36893 121.9828C448.88367 121.9828 446.86893 119.96809 446.86893 117.4828C446.86893 114.99752 448.88367 112.9828 451.36893 112.9828C453.85422 112.9828 455.86893 114.99752 455.86893 117.4828Z" fill-rule="nonzero"/><path fill="#4a86e8" clip-path="url(#id_0)" d="M445.95453 112.826355C445.95453 115.31164 443.93982 117.326355 441.45453 117.326355C438.96924 117.326355 436.95453 115.31164 436.95453 112.826355C436.95453 110.34107 438.96924 108.326355 441.45453 108.326355C443.93982 108.326355 445.95453 110.34107 445.95453 112.826355Z" fill-rule="nonzero"/><path fill="#4a86e8" clip-path="url(#id_0)" d="M503.48004 109.43974C503.48004 111.92502 501.4653 113.93974 498.98004 113.93974C496.49475 113.93974 494.48004 111.92502 494.48004 109.43974C494.48004 106.95446 496.49475 104.93974 498.98004 104.93974C501.4653 104.93974 503.48004 106.95446 503.48004 109.43974Z" fill-rule="nonzero"/><path fill="#4a86e8" clip-path="url(#id_0)" d="M459.34268 108.01066C459.34268 110.49594 457.32797 112.51066 454.84268 112.51066C452.3574 112.51066 450.34268 110.49594 450.34268 108.01066C450.34268 105.525375 452.3574 103.51066 454.84268 103.51066C457.32797 103.51066 459.34268 105.525375 459.34268 108.01066Z" fill-rule="nonzero"/><path fill="#4a86e8" clip-path="url(#id_0)" d="M496.204 107.102455C496.204 109.58774 494.1893 111.602455 491.704 111.602455C489.21875 111.602455 487.204 109.58774 487.204 107.102455C487.204 104.61717 489.21875 102.602455 491.704 102.602455C494.1893 102.602455 496.204 104.61717 496.204 107.102455Z" fill-rule="nonzero"/><path fill="#4a86e8" clip-path="url(#id_0)" d="M512.0217 105.979866C512.0217 108.46515 510.00705 110.479866 507.52176 110.479866C505.03647 110.479866 503.02176 108.46515 503.02176 105.979866C503.02176 103.49458 505.03647 101.479866 507.52176 101.479866C510.00705 101.479866 512.0217 103.49458 512.0217 105.979866Z" fill-rule="nonzero"/><path fill="#4a86e8" clip-path="url(#id_0)" d="M479.19696 99.18349C479.19696 101.66876 477.18225 103.68349 474.69696 103.68349C472.2117 103.68349 470.19696 101.66876 470.19696 99.18349C470.19696 96.698204 472.2117 94.68349 474.69696 94.68349C477.18225 94.68349 479.19696 96.698204 479.19696 99.18349Z" fill-rule="nonzero"/><path fill="#4a86e8" clip-path="url(#id_0)" d="M488.82104 105.91173C488.82104 108.397 486.80634 110.41173 484.32104 110.41173C481.8358 110.41173 479.82104 108.397 479.82104 105.91173C479.82104 103.426445 481.8358 101.41173 484.32104 101.41173C486.80634 101.41173 488.82104 103.426445 488.82104 105.91173Z" fill-rule="nonzero"/><path fill="#4a86e8" clip-path="url(#id_0)" d="M499.51224 102.91021C499.51224 105.39549 497.4975 107.41021 495.01224 107.41021C492.52695 107.41021 490.51224 105.39549 490.51224 102.91021C490.51224 100.42493 492.52695 98.41021 495.01224 98.41021C497.4975 98.41021 499.51224 100.42493 499.51224 102.91021Z" fill-rule="nonzero"/><path fill="#4a86e8" clip-path="url(#id_0)" d="M522.03296 102.53331C522.03296 105.01859 520.01825 107.03331 517.53296 107.03331C515.04767 107.03331 513.03296 105.01859 513.03296 102.53331C513.03296 100.04803 515.04767 98.03331 517.53296 98.03331C520.01825 98.03331 522.03296 100.04803 522.03296 102.53331Z" fill-rule="nonzero"/><path fill="#4a86e8" clip-path="url(#id_0)" d="M550.4723 99.23957C550.4723 101.72485 548.4575 103.73957 545.9723 103.73957C543.487 103.73957 541.4723 101.72485 541.4723 99.23957C541.4723 96.75429 543.487 94.73957 545.9723 94.73957C548.4575 94.73957 550.4723 96.75429 550.4723 99.23957Z" fill-rule="nonzero"/><path fill="#4a86e8" clip-path="url(#id_0)" d="M525.4583 101.4645C525.4583 103.94978 523.4436 105.9645 520.9583 105.9645C518.473 105.9645 516.4583 103.94978 516.4583 101.4645C516.4583 98.97922 518.473 96.9645 520.9583 96.9645C523.4436 96.9645 525.4583 98.97922 525.4583 101.4645Z" fill-rule="nonzero"/><path fill="#4a86e8" clip-path="url(#id_0)" d="M533.82684 98.186615C533.82684 100.6719 531.81213 102.686615 529.32684 102.686615C526.84155 102.686615 524.82684 100.6719 524.82684 98.186615C524.82684 95.70134 526.84155 93.686615 529.32684 93.686615C531.81213 93.686615 533.82684 95.70134 533.82684 98.186615Z" fill-rule="nonzero"/><path fill="#4a86e8" clip-path="url(#id_0)" d="M542.6232 94.25892C542.6232 96.744194 540.6085 98.75892 538.1232 98.75892C535.63794 98.75892 533.6232 96.744194 533.6232 94.25892C533.6232 91.773636 535.63794 89.75892 538.1232 89.75892C540.6085 89.75892 542.6232 91.773636 542.6232 94.25892Z" fill-rule="nonzero"/><path fill="#4a86e8" clip-path="url(#id_0)" d="M536.8778 99.10148C536.8778 101.58676 534.8631 103.60148 532.3778 103.60148C529.8925 103.60148 527.8778 101.58676 527.8778 99.10148C527.8778 96.616196 529.8925 94.60148 532.3778 94.60148C534.8631 94.60148 536.8778 96.616196 536.8778 99.10148Z" fill-rule="nonzero"/><path fill="#4a86e8" clip-path="url(#id_0)" d="M545.2082 94.74378C545.2082 97.22906 543.1935 99.24378 540.7082 99.24378C538.2229 99.24378 536.2082 97.22906 536.2082 94.74378C536.2082 92.2585 538.2229 90.24378 540.7082 90.24378C543.1935 90.24378 545.2082 92.2585 545.2082 94.74378Z" fill-rule="nonzero"/><path fill="#4a86e8" clip-path="url(#id_0)" d="M545.5163 94.4434C545.5163 96.92868 543.5016 98.9434 541.0163 98.9434C538.53107 98.9434 536.5163 96.92868 536.5163 94.4434C536.5163 91.95812 538.53107 89.9434 541.0163 89.9434C543.5016 89.9434 545.5163 91.95812 545.5163 94.4434Z" fill-rule="nonzero"/><path fill="#4a86e8" clip-path="url(#id_0)" d="M578.392 88.502304C578.392 90.98759 576.3773 93.002304 573.892 93.002304C571.40674 93.002304 569.392 90.98759 569.392 88.502304C569.392 86.01702 571.40674 84.002304 573.892 84.002304C576.3773 84.002304 578.392 86.01702 578.392 88.502304Z" fill-rule="nonzero"/><path fill="#4a86e8" clip-path="url(#id_0)" d="M554.31525 88.60397C554.31525 91.08925 552.30054 93.10397 549.81525 93.10397C547.33 93.10397 545.31525 91.08925 545.31525 88.60397C545.31525 86.11869 547.33 84.10397 549.81525 84.10397C552.30054 84.10397 554.31525 86.11869 554.31525 88.60397Z" fill-rule="nonzero"/><path fill="#4a86e8" clip-path="url(#id_0)" d="M566.7611 89.073204C566.7611 91.55849 564.7464 93.573204 562.2611 93.573204C559.7759 93.573204 557.7611 91.55849 557.7611 89.073204C557.7611 86.58792 559.7759 84.573204 562.2611 84.573204C564.7464 84.573204 566.7611 86.58792 566.7611 89.073204Z" fill-rule="nonzero"/><path fill="#4a86e8" clip-path="url(#id_0)" d="M579.1433 85.51864C579.1433 88.00392 577.1286 90.01864 574.6433 90.01864C572.1581 90.01864 570.1433 88.00392 570.1433 85.51864C570.1433 83.033356 572.1581 81.01864 574.6433 81.01864C577.1286 81.01864 579.1433 83.033356 579.1433 85.51864Z" fill-rule="nonzero"/><path fill="#000000" d="M328.39062 346.9969Q329.23438 347.60626 330.23438 347.96564L329.39062 349.60626Q328.85938 349.45 328.35938 349.16876Q328.25 349.1219 326.82812 348.15314Q325.70312 348.65314 324.32812 348.65314Q321.6875 348.65314 320.1875 347.09064Q318.70312 345.52814 318.70312 342.71564Q318.70312 339.91876 320.20312 338.35626Q321.70312 336.79376 324.26562 336.79376Q326.8125 336.79376 328.29688 338.35626Q329.79688 339.91876 329.79688 342.71564Q329.79688 344.2 329.39062 345.325Q329.07812 346.1844 328.39062 346.9969ZM326.53125 345.6844Q326.96875 345.16876 327.1875 344.4344Q327.42188 343.6844 327.42188 342.71564Q327.42188 340.73126 326.54688 339.7625Q325.67188 338.77814 324.25 338.77814Q322.84375 338.77814 321.95312 339.7625Q321.07812 340.7469 321.07812 342.71564Q321.07812 344.73126 321.95312 345.73126Q322.84375 346.71564 324.1875 346.71564Q324.6875 346.71564 325.125 346.5594Q324.42188 346.09064 323.70312 345.84064L324.34375 344.5125Q325.48438 344.90314 326.53125 345.6844ZM331.17188 348.45L331.17188 336.9969L334.875 336.9969Q336.98438 336.9969 337.625 337.16876Q338.60938 337.41876 339.26562 338.29376Q339.9375 339.15314 339.9375 340.5125Q339.9375 341.575 339.54688 342.29376Q339.17188 343.0125 338.57812 343.41876Q338.0 343.825 337.39062 343.96564Q336.5625 344.1219 334.98438 344.1219L333.48438 344.1219L333.48438 348.45L331.17188 348.45ZM333.48438 338.9344L333.48438 342.1844L334.75 342.1844Q336.10938 342.1844 336.5625 342.0125Q337.03125 341.825 337.29688 341.45Q337.5625 341.0594 337.5625 340.54376Q337.5625 339.91876 337.1875 339.5125Q336.82812 339.10626 336.26562 339.0125Q335.84375 338.9344 334.59375 338.9344L333.48438 338.9344ZM341.57812 344.71564L343.82812 344.4969Q344.03125 345.6375 344.65625 346.16876Q345.28125 346.7 346.32812 346.7Q347.45312 346.7 348.01562 346.23126Q348.57812 345.7469 348.57812 345.1219Q348.57812 344.71564 348.34375 344.4344Q348.10938 344.1375 347.51562 343.9344Q347.10938 343.79376 345.65625 343.4344Q343.79688 342.96564 343.04688 342.29376Q342.0 341.35626 342.0 339.9969Q342.0 339.1219 342.48438 338.35626Q342.98438 337.59064 343.92188 337.2Q344.85938 336.79376 346.17188 336.79376Q348.32812 336.79376 349.42188 337.7469Q350.51562 338.6844 350.5625 340.2625L348.25 340.3719Q348.10938 339.48126 347.60938 339.10626Q347.125 338.71564 346.15625 338.71564Q345.14062 338.71564 344.57812 339.1219Q344.20312 339.3875 344.20312 339.84064Q344.20312 340.2469 344.54688 340.52814Q344.98438 340.90314 346.67188 341.3094Q348.35938 341.7 349.17188 342.1219Q349.98438 342.54376 350.4375 343.29376Q350.89062 344.02814 350.89062 345.10626Q350.89062 346.09064 350.34375 346.95Q349.79688 347.8094 348.79688 348.23126Q347.79688 348.65314 346.3125 348.65314Q344.14062 348.65314 342.96875 347.65314Q341.8125 346.6375 341.57812 344.71564Z" fill-rule="nonzero"/><path fill="#000000" d="M29.331263 184.68333L27.409388 184.68333L27.409388 179.69896L31.971888 179.69896Q32.67501 180.43333 33.221886 181.80833Q33.753136 183.18333 33.753136 184.60521Q33.753136 186.40208 33.003136 187.74583Q32.23751 189.07396 30.831263 189.74583Q29.425013 190.41771 27.784388 190.41771Q25.987513 190.41771 24.596888 189.66771Q23.206263 188.91771 22.471888 187.46458Q21.893763 186.37083 21.893763 184.73021Q21.893763 182.58958 22.800013 181.40208Q23.690638 180.19896 25.268763 179.85521L25.690638 182.15208Q24.846888 182.38646 24.362513 183.05833Q23.878138 183.73021 23.878138 184.73021Q23.878138 186.24583 24.846888 187.13646Q25.800013 188.02708 27.690638 188.02708Q29.721888 188.02708 30.753138 187.12083Q31.768763 186.21458 31.768763 184.74583Q31.768763 184.02708 31.487513 183.29271Q31.190638 182.55833 30.784388 182.04271L29.331263 182.04271L29.331263 184.68333ZM24.128138 178.02708L22.096888 178.02708L22.096888 175.83958L24.128138 175.83958L24.128138 178.02708ZM33.55001 178.02708L25.253138 178.02708L25.253138 175.83958L33.55001 175.83958L33.55001 178.02708ZM22.096888 174.01146L22.096888 169.43333Q22.096888 168.07396 22.206263 167.40208Q22.315638 166.73021 22.675013 166.21458Q23.034388 165.68333 23.643763 165.33958Q24.237513 164.98021 24.971888 164.98021Q25.784388 164.98021 26.456263 165.41771Q27.128138 165.83958 27.456263 166.58958Q27.768763 165.54271 28.503138 164.98021Q29.237513 164.41771 30.221888 164.41771Q31.003138 164.41771 31.753138 164.77708Q32.48751 165.13646 32.92501 165.77708Q33.36251 166.40208 33.471886 167.32396Q33.534386 167.90208 33.55001 170.10521L33.55001 174.01146L22.096888 174.01146ZM24.003138 171.69896L26.643763 171.69896L26.643763 170.18333Q26.643763 168.82396 26.612513 168.49583Q26.534388 167.90208 26.206263 167.57396Q25.862513 167.23021 25.300013 167.23021Q24.768763 167.23021 24.440638 167.52708Q24.112513 167.80833 24.034388 168.38646Q24.003138 168.73021 24.003138 170.37083L24.003138 171.69896ZM28.550013 171.69896L31.612513 171.69896L31.612513 169.55833Q31.612513 168.30833 31.550013 167.96458Q31.456263 167.44896 31.096888 167.13646Q30.721888 166.80833 30.112513 166.80833Q29.596888 166.80833 29.237513 167.05833Q28.878138 167.30833 28.721888 167.77708Q28.550013 168.24583 28.550013 169.82396L28.550013 171.69896Z" fill-rule="nonzero"/><path fill="#000000" d="M76.05 289.21564Q76.05 287.6844 76.3625 286.7625Q76.675 285.825 77.28438 285.325Q77.90938 284.825 78.84688 284.825Q79.53438 284.825 80.05 285.10626Q80.58125 285.3875 80.925 285.91876Q81.26875 286.4344 81.45625 287.1844Q81.64375 287.9344 81.64375 289.21564Q81.64375 290.73126 81.33125 291.65314Q81.03438 292.575 80.40938 293.09064Q79.8 293.59064 78.84688 293.59064Q77.6125 293.59064 76.89375 292.7Q76.05 291.6375 76.05 289.21564ZM77.12813 289.21564Q77.12813 291.325 77.62813 292.02814Q78.12813 292.73126 78.84688 292.73126Q79.58125 292.73126 80.06563 292.02814Q80.56563 291.325 80.56563 289.21564Q80.56563 287.09064 80.06563 286.40314Q79.58125 285.7 78.83125 285.7Q78.1125 285.7 77.675 286.3094Q77.12813 287.09064 77.12813 289.21564Z" fill-rule="nonzero"/><path fill="#000000" d="M76.05 231.81667L77.15938 231.72292Q77.28438 232.53542 77.72188 232.94167Q78.175 233.34792 78.81563 233.34792Q79.56563 233.34792 80.09688 232.76979Q80.62813 232.19167 80.62813 231.25417Q80.62813 230.34792 80.1125 229.83229Q79.6125 229.30104 78.78438 229.30104Q78.28438 229.30104 77.8625 229.53542Q77.45625 229.76979 77.22188 230.12917L76.2375 230.00417L77.06563 225.59792L81.34688 225.59792L81.34688 226.59792L77.90938 226.59792L77.45625 228.91042Q78.22188 228.36354 79.06563 228.36354Q80.19063 228.36354 80.95625 229.14479Q81.7375 229.92604 81.7375 231.16042Q81.7375 232.31667 81.06563 233.17604Q80.2375 234.20729 78.81563 234.20729Q77.64375 234.20729 76.89375 233.55104Q76.15938 232.89479 76.05 231.81667Z" fill-rule="nonzero"/><path fill="#000000" d="M73.01875 174.68333L71.97188 174.68333L71.97188 167.96458Q71.58125 168.32396 70.95625 168.69896Q70.34688 169.05833 69.8625 169.23021L69.8625 168.21458Q70.7375 167.79271 71.39375 167.21458Q72.06563 166.62083 72.34688 166.05833L73.01875 166.05833L73.01875 174.68333ZM76.05 170.44896Q76.05 168.91771 76.3625 167.99583Q76.675 167.05833 77.28438 166.55833Q77.90938 166.05833 78.84688 166.05833Q79.53438 166.05833 80.05 166.33958Q80.58125 166.62083 80.925 167.15208Q81.26875 167.66771 81.45625 168.41771Q81.64375 169.16771 81.64375 170.44896Q81.64375 171.96458 81.33125 172.88646Q81.03438 173.80833 80.40938 174.32396Q79.8 174.82396 78.84688 174.82396Q77.6125 174.82396 76.89375 173.93333Q76.05 172.87083 76.05 170.44896ZM77.12813 170.44896Q77.12813 172.55833 77.62813 173.26146Q78.12813 173.96458 78.84688 173.96458Q79.58125 173.96458 80.06563 173.26146Q80.56563 172.55833 80.56563 170.44896Q80.56563 168.32396 80.06563 167.63646Q79.58125 166.93333 78.83125 166.93333Q78.1125 166.93333 77.675 167.54271Q77.12813 168.32396 77.12813 170.44896Z" fill-rule="nonzero"/><path fill="#000000" d="M73.01875 115.3L71.97188 115.3L71.97188 108.58125Q71.58125 108.94063 70.95625 109.31563Q70.34688 109.675 69.8625 109.84688L69.8625 108.83125Q70.7375 108.40938 71.39375 107.83125Q72.06563 107.2375 72.34688 106.675L73.01875 106.675L73.01875 115.3ZM76.05 113.05L77.15938 112.95625Q77.28438 113.76875 77.72188 114.175Q78.175 114.58125 78.81563 114.58125Q79.56563 114.58125 80.09688 114.00313Q80.62813 113.425 80.62813 112.4875Q80.62813 111.58125 80.1125 111.06563Q79.6125 110.53438 78.78438 110.53438Q78.28438 110.53438 77.8625 110.76875Q77.45625 111.00313 77.22188 111.3625L76.2375 111.2375L77.06563 106.83125L81.34688 106.83125L81.34688 107.83125L77.90938 107.83125L77.45625 110.14375Q78.22188 109.59688 79.06563 109.59688Q80.19063 109.59688 80.95625 110.37813Q81.7375 111.15938 81.7375 112.39375Q81.7375 113.55 81.06563 114.40938Q80.2375 115.44063 78.81563 115.44063Q77.64375 115.44063 76.89375 114.78438Q76.15938 114.12813 76.05 113.05Z" fill-rule="nonzero"/><path fill="#000000" d="M74.59688 54.901043L74.59688 55.916668L68.90938 55.916668Q68.90938 55.541668 69.03438 55.182293Q69.25313 54.604168 69.72188 54.041668Q70.20625 53.479168 71.1125 52.744793Q72.51875 51.588543 73.00313 50.916668Q73.50313 50.244793 73.50313 49.651043Q73.50313 49.026043 73.05 48.604168Q72.59688 48.166668 71.87813 48.166668Q71.1125 48.166668 70.65938 48.619793Q70.20625 49.072918 70.19063 49.885418L69.1125 49.776043Q69.22188 48.557293 69.94063 47.932293Q70.675 47.291668 71.90938 47.291668Q73.14375 47.291668 73.8625 47.979168Q74.58125 48.666668 74.58125 49.682293Q74.58125 50.197918 74.3625 50.697918Q74.15938 51.182293 73.65938 51.744793Q73.175 52.291668 72.05 53.244793Q71.09688 54.041668 70.81563 54.338543Q70.55 54.619793 70.37813 54.901043L74.59688 54.901043ZM76.05 51.682293Q76.05 50.151043 76.3625 49.229168Q76.675 48.291668 77.28438 47.791668Q77.90938 47.291668 78.84688 47.291668Q79.53438 47.291668 80.05 47.572918Q80.58125 47.854168 80.925 48.385418Q81.26875 48.901043 81.45625 49.651043Q81.64375 50.401043 81.64375 51.682293Q81.64375 53.197918 81.33125 54.119793Q81.03438 55.041668 80.40938 55.557293Q79.8 56.057293 78.84688 56.057293Q77.6125 56.057293 76.89375 55.166668Q76.05 54.104168 76.05 51.682293ZM77.12813 51.682293Q77.12813 53.791668 77.62813 54.494793Q78.12813 55.197918 78.84688 55.197918Q79.58125 55.197918 80.06563 54.494793Q80.56563 53.791668 80.56563 51.682293Q80.56563 49.557293 80.06563 48.869793Q79.58125 48.166668 78.83125 48.166668Q78.1125 48.166668 77.675 48.776043Q77.12813 49.557293 77.12813 51.682293Z" fill-rule="nonzero"/><path fill="#000000" d="M188.07132 304.2L189.1807 304.10626Q189.3057 304.91876 189.7432 305.325Q190.19632 305.73126 190.83694 305.73126Q191.58694 305.73126 192.1182 305.15314Q192.64944 304.575 192.64944 303.6375Q192.64944 302.73126 192.13382 302.21564Q191.63382 301.6844 190.8057 301.6844Q190.3057 301.6844 189.88382 301.91876Q189.47757 302.15314 189.2432 302.5125L188.25882 302.3875L189.08694 297.98126L193.3682 297.98126L193.3682 298.98126L189.9307 298.98126L189.47757 301.29376Q190.2432 300.7469 191.08694 300.7469Q192.21194 300.7469 192.97757 301.52814Q193.75882 302.3094 193.75882 303.54376Q193.75882 304.7 193.08694 305.5594Q192.25882 306.59064 190.83694 306.59064Q189.66507 306.59064 188.91507 305.9344Q188.1807 305.27814 188.07132 304.2ZM195.07132 302.21564Q195.07132 300.6844 195.38382 299.7625Q195.69632 298.825 196.3057 298.325Q196.9307 297.825 197.8682 297.825Q198.5557 297.825 199.07132 298.10626Q199.60257 298.3875 199.94632 298.91876Q200.29007 299.4344 200.47757 300.1844Q200.66507 300.9344 200.66507 302.21564Q200.66507 303.73126 200.35257 304.65314Q200.0557 305.575 199.4307 306.09064Q198.82132 306.59064 197.8682 306.59064Q196.63382 306.59064 195.91507 305.7Q195.07132 304.6375 195.07132 302.21564ZM196.14944 302.21564Q196.14944 304.325 196.64944 305.02814Q197.14944 305.73126 197.8682 305.73126Q198.60257 305.73126 199.08694 305.02814Q199.58694 304.325 199.58694 302.21564Q199.58694 300.09064 199.08694 299.40314Q198.60257 298.7 197.85257 298.7Q197.13382 298.7 196.69632 299.3094Q196.14944 300.09064 196.14944 302.21564ZM202.07132 302.21564Q202.07132 300.6844 202.38382 299.7625Q202.69632 298.825 203.3057 298.325Q203.9307 297.825 204.8682 297.825Q205.5557 297.825 206.07132 298.10626Q206.60257 298.3875 206.94632 298.91876Q207.29007 299.4344 207.47757 300.1844Q207.66507 300.9344 207.66507 302.21564Q207.66507 303.73126 207.35257 304.65314Q207.0557 305.575 206.4307 306.09064Q205.82132 306.59064 204.8682 306.59064Q203.63382 306.59064 202.91507 305.7Q202.07132 304.6375 202.07132 302.21564ZM203.14944 302.21564Q203.14944 304.325 203.64944 305.02814Q204.14944 305.73126 204.8682 305.73126Q205.60257 305.73126 206.08694 305.02814Q206.58694 304.325 206.58694 302.21564Q206.58694 300.09064 206.08694 299.40314Q205.60257 298.7 204.85257 298.7Q204.13382 298.7 203.69632 299.3094Q203.14944 300.09064 203.14944 302.21564Z" fill-rule="nonzero"/><path fill="#000000" d="M303.14285 306.45L302.09598 306.45L302.09598 299.73126Q301.70535 300.09064 301.08035 300.46564Q300.47098 300.825 299.9866 300.9969L299.9866 299.98126Q300.8616 299.5594 301.51785 298.98126Q302.18973 298.3875 302.47098 297.825L303.14285 297.825L303.14285 306.45ZM306.1741 302.21564Q306.1741 300.6844 306.4866 299.7625Q306.7991 298.825 307.40848 298.325Q308.03348 297.825 308.97098 297.825Q309.65848 297.825 310.1741 298.10626Q310.70535 298.3875 311.0491 298.91876Q311.39285 299.4344 311.58035 300.1844Q311.76785 300.9344 311.76785 302.21564Q311.76785 303.73126 311.45535 304.65314Q311.15848 305.575 310.53348 306.09064Q309.9241 306.59064 308.97098 306.59064Q307.7366 306.59064 307.01785 305.7Q306.1741 304.6375 306.1741 302.21564ZM307.25223 302.21564Q307.25223 304.325 307.75223 305.02814Q308.25223 305.73126 308.97098 305.73126Q309.70535 305.73126 310.18973 305.02814Q310.68973 304.325 310.68973 302.21564Q310.68973 300.09064 310.18973 299.40314Q309.70535 298.7 308.95535 298.7Q308.2366 298.7 307.7991 299.3094Q307.25223 300.09064 307.25223 302.21564ZM313.1741 302.21564Q313.1741 300.6844 313.4866 299.7625Q313.7991 298.825 314.40848 298.325Q315.03348 297.825 315.97098 297.825Q316.65848 297.825 317.1741 298.10626Q317.70535 298.3875 318.0491 298.91876Q318.39285 299.4344 318.58035 300.1844Q318.76785 300.9344 318.76785 302.21564Q318.76785 303.73126 318.45535 304.65314Q318.15848 305.575 317.53348 306.09064Q316.9241 306.59064 315.97098 306.59064Q314.7366 306.59064 314.01785 305.7Q313.1741 304.6375 313.1741 302.21564ZM314.25223 302.21564Q314.25223 304.325 314.75223 305.02814Q315.25223 305.73126 315.97098 305.73126Q316.70535 305.73126 317.18973 305.02814Q317.68973 304.325 317.68973 302.21564Q317.68973 300.09064 317.18973 299.40314Q316.70535 298.7 315.95535 298.7Q315.2366 298.7 314.7991 299.3094Q314.25223 300.09064 314.25223 302.21564ZM320.1741 302.21564Q320.1741 300.6844 320.4866 299.7625Q320.7991 298.825 321.40848 298.325Q322.03348 297.825 322.97098 297.825Q323.65848 297.825 324.1741 298.10626Q324.70535 298.3875 325.0491 298.91876Q325.39285 299.4344 325.58035 300.1844Q325.76785 300.9344 325.76785 302.21564Q325.76785 303.73126 325.45535 304.65314Q325.15848 305.575 324.53348 306.09064Q323.9241 306.59064 322.97098 306.59064Q321.7366 306.59064 321.01785 305.7Q320.1741 304.6375 320.1741 302.21564ZM321.25223 302.21564Q321.25223 304.325 321.75223 305.02814Q322.25223 305.73126 322.97098 305.73126Q323.70535 305.73126 324.18973 305.02814Q324.68973 304.325 324.68973 302.21564Q324.68973 300.09064 324.18973 299.40314Q323.70535 298.7 322.95535 298.7Q322.2366 298.7 321.7991 299.3094Q321.25223 300.09064 321.25223 302.21564Z" fill-rule="nonzero"/><path fill="#000000" d="M417.74564 306.45L416.69876 306.45L416.69876 299.73126Q416.30814 300.09064 415.68314 300.46564Q415.07376 300.825 414.5894 300.9969L414.5894 299.98126Q415.4644 299.5594 416.12064 298.98126Q416.7925 298.3875 417.07376 297.825L417.74564 297.825L417.74564 306.45ZM420.7769 304.2L421.88626 304.10626Q422.01126 304.91876 422.44876 305.325Q422.9019 305.73126 423.5425 305.73126Q424.2925 305.73126 424.82376 305.15314Q425.355 304.575 425.355 303.6375Q425.355 302.73126 424.8394 302.21564Q424.3394 301.6844 423.51126 301.6844Q423.01126 301.6844 422.5894 301.91876Q422.18314 302.15314 421.94876 302.5125L420.9644 302.3875L421.7925 297.98126L426.07376 297.98126L426.07376 298.98126L422.63626 298.98126L422.18314 301.29376Q422.94876 300.7469 423.7925 300.7469Q424.9175 300.7469 425.68314 301.52814Q426.4644 302.3094 426.4644 303.54376Q426.4644 304.7 425.7925 305.5594Q424.9644 306.59064 423.5425 306.59064Q422.37064 306.59064 421.62064 305.9344Q420.88626 305.27814 420.7769 304.2ZM427.7769 302.21564Q427.7769 300.6844 428.0894 299.7625Q428.4019 298.825 429.01126 298.325Q429.63626 297.825 430.57376 297.825Q431.26126 297.825 431.7769 298.10626Q432.30814 298.3875 432.6519 298.91876Q432.99564 299.4344 433.18314 300.1844Q433.37064 300.9344 433.37064 302.21564Q433.37064 303.73126 433.05814 304.65314Q432.76126 305.575 432.13626 306.09064Q431.5269 306.59064 430.57376 306.59064Q429.3394 306.59064 428.62064 305.7Q427.7769 304.6375 427.7769 302.21564ZM428.855 302.21564Q428.855 304.325 429.355 305.02814Q429.855 305.73126 430.57376 305.73126Q431.30814 305.73126 431.7925 305.02814Q432.2925 304.325 432.2925 302.21564Q432.2925 300.09064 431.7925 299.40314Q431.30814 298.7 430.55814 298.7Q429.8394 298.7 429.4019 299.3094Q428.855 300.09064 428.855 302.21564ZM434.7769 302.21564Q434.7769 300.6844 435.0894 299.7625Q435.4019 298.825 436.01126 298.325Q436.63626 297.825 437.57376 297.825Q438.26126 297.825 438.7769 298.10626Q439.30814 298.3875 439.6519 298.91876Q439.99564 299.4344 440.18314 300.1844Q440.37064 300.9344 440.37064 302.21564Q440.37064 303.73126 440.05814 304.65314Q439.76126 305.575 439.13626 306.09064Q438.5269 306.59064 437.57376 306.59064Q436.3394 306.59064 435.62064 305.7Q434.7769 304.6375 434.7769 302.21564ZM435.855 302.21564Q435.855 304.325 436.355 305.02814Q436.855 305.73126 437.57376 305.73126Q438.30814 305.73126 438.7925 305.02814Q439.2925 304.325 439.2925 302.21564Q439.2925 300.09064 438.7925 299.40314Q438.30814 298.7 437.55814 298.7Q436.8394 298.7 436.4019 299.3094Q435.855 300.09064 435.855 302.21564Z" fill-rule="nonzero"/><path fill="#000000" d="M533.9266 305.4344L533.9266 306.45L528.2391 306.45Q528.2391 306.075 528.3641 305.71564Q528.5828 305.1375 529.0516 304.575Q529.53595 304.0125 530.4422 303.27814Q531.84845 302.1219 532.3328 301.45Q532.8328 300.77814 532.8328 300.1844Q532.8328 299.5594 532.3797 299.1375Q531.9266 298.7 531.2078 298.7Q530.4422 298.7 529.9891 299.15314Q529.53595 299.60626 529.5203 300.41876L528.4422 300.3094Q528.5516 299.09064 529.2703 298.46564Q530.0047 297.825 531.2391 297.825Q532.47345 297.825 533.1922 298.5125Q533.91095 299.2 533.91095 300.21564Q533.91095 300.73126 533.6922 301.23126Q533.4891 301.71564 532.9891 302.27814Q532.5047 302.825 531.3797 303.77814Q530.4266 304.575 530.1453 304.8719Q529.8797 305.15314 529.7078 305.4344L533.9266 305.4344ZM535.3797 302.21564Q535.3797 300.6844 535.6922 299.7625Q536.0047 298.825 536.6141 298.325Q537.2391 297.825 538.1766 297.825Q538.8641 297.825 539.3797 298.10626Q539.91095 298.3875 540.2547 298.91876Q540.59845 299.4344 540.78595 300.1844Q540.97345 300.9344 540.97345 302.21564Q540.97345 303.73126 540.66095 304.65314Q540.3641 305.575 539.7391 306.09064Q539.1297 306.59064 538.1766 306.59064Q536.9422 306.59064 536.22345 305.7Q535.3797 304.6375 535.3797 302.21564ZM536.4578 302.21564Q536.4578 304.325 536.9578 305.02814Q537.4578 305.73126 538.1766 305.73126Q538.91095 305.73126 539.3953 305.02814Q539.8953 304.325 539.8953 302.21564Q539.8953 300.09064 539.3953 299.40314Q538.91095 298.7 538.16095 298.7Q537.4422 298.7 537.0047 299.3094Q536.4578 300.09064 536.4578 302.21564ZM542.3797 302.21564Q542.3797 300.6844 542.6922 299.7625Q543.0047 298.825 543.6141 298.325Q544.2391 297.825 545.1766 297.825Q545.8641 297.825 546.3797 298.10626Q546.91095 298.3875 547.2547 298.91876Q547.59845 299.4344 547.78595 300.1844Q547.97345 300.9344 547.97345 302.21564Q547.97345 303.73126 547.66095 304.65314Q547.3641 305.575 546.7391 306.09064Q546.1297 306.59064 545.1766 306.59064Q543.9422 306.59064 543.22345 305.7Q542.3797 304.6375 542.3797 302.21564ZM543.4578 302.21564Q543.4578 304.325 543.9578 305.02814Q544.4578 305.73126 545.1766 305.73126Q545.91095 305.73126 546.3953 305.02814Q546.8953 304.325 546.8953 302.21564Q546.8953 300.09064 546.3953 299.40314Q545.91095 298.7 545.16095 298.7Q544.4422 298.7 544.0047 299.3094Q543.4578 300.09064 543.4578 302.21564ZM549.3797 302.21564Q549.3797 300.6844 549.6922 299.7625Q550.0047 298.825 550.6141 298.325Q551.2391 297.825 552.1766 297.825Q552.8641 297.825 553.3797 298.10626Q553.91095 298.3875 554.2547 298.91876Q554.59845 299.4344 554.78595 300.1844Q554.97345 300.9344 554.97345 302.21564Q554.97345 303.73126 554.66095 304.65314Q554.3641 305.575 553.7391 306.09064Q553.1297 306.59064 552.1766 306.59064Q550.9422 306.59064 550.22345 305.7Q549.3797 304.6375 549.3797 302.21564ZM550.4578 302.21564Q550.4578 304.325 550.9578 305.02814Q551.4578 305.73126 552.1766 305.73126Q552.91095 305.73126 553.3953 305.02814Q553.8953 304.325 553.8953 302.21564Q553.8953 300.09064 553.3953 299.40314Q552.91095 298.7 552.16095 298.7Q551.4422 298.7 551.0047 299.3094Q550.4578 300.09064 550.4578 302.21564Z" fill-rule="nonzero"/><path fill="#4a86e8" d="M177.5 25.55C177.5 28.863708 174.8137 31.55 171.5 31.55C168.1863 31.55 165.5 28.863708 165.5 25.55C165.5 22.236292 168.1863 19.55 171.5 19.55C174.8137 19.55 177.5 22.236292 177.5 25.55Z" fill-rule="nonzero"/><path fill="#1a1a1a" d="M186.29688 29.55L186.29688 23.33125L187.23438 23.33125L187.23438 24.20625Q187.53125 23.7375 188.01562 23.471874Q188.5 23.190624 189.125 23.190624Q189.8125 23.190624 190.25 23.471874Q190.70312 23.753124 190.875 24.26875Q191.625 23.190624 192.79688 23.190624Q193.73438 23.190624 194.21875 23.70625Q194.71875 24.20625 194.71875 25.284374L194.71875 29.55L193.67188 29.55L193.67188 25.628124Q193.67188 25.003124 193.5625 24.721874Q193.46875 24.440624 193.20312 24.26875Q192.9375 24.096874 192.5625 24.096874Q191.90625 24.096874 191.46875 24.534374Q191.04688 24.971874 191.04688 25.940624L191.04688 29.55L189.98438 29.55L189.98438 25.503124Q189.98438 24.8 189.71875 24.45625Q189.46875 24.096874 188.89062 24.096874Q188.4375 24.096874 188.0625 24.33125Q187.6875 24.565624 187.51562 25.01875Q187.34375 25.471874 187.34375 26.315624L187.34375 29.55L186.29688 29.55ZM201.35938 28.784374Q200.76562 29.284374 200.21875 29.4875Q199.6875 29.690624 199.0625 29.690624Q198.03125 29.690624 197.48438 29.190624Q196.9375 28.690624 196.9375 27.909374Q196.9375 27.45625 197.14062 27.08125Q197.34375 26.690624 197.6875 26.471874Q198.03125 26.2375 198.45312 26.128124Q198.75 26.034374 199.39062 25.95625Q200.65625 25.815624 201.26562 25.596874Q201.26562 25.378124 201.26562 25.33125Q201.26562 24.675 200.96875 24.409374Q200.5625 24.065624 199.76562 24.065624Q199.03125 24.065624 198.67188 24.33125Q198.3125 24.58125 198.14062 25.2375L197.10938 25.096874Q197.25 24.440624 197.57812 24.034374Q197.90625 23.628124 198.51562 23.409374Q199.125 23.190624 199.92188 23.190624Q200.71875 23.190624 201.21875 23.378124Q201.71875 23.565624 201.95312 23.846874Q202.1875 24.128124 202.28125 24.565624Q202.32812 24.83125 202.32812 25.534374L202.32812 26.940624Q202.32812 28.409374 202.39062 28.8Q202.46875 29.190624 202.67188 29.55L201.5625 29.55Q201.40625 29.221874 201.35938 28.784374ZM201.26562 26.425Q200.6875 26.659374 199.54688 26.83125Q198.89062 26.925 198.625 27.05Q198.35938 27.159374 198.20312 27.378124Q198.0625 27.596874 198.0625 27.878124Q198.0625 28.3 198.375 28.58125Q198.70312 28.8625 199.3125 28.8625Q199.92188 28.8625 200.39062 28.596874Q200.875 28.33125 201.09375 27.8625Q201.26562 27.503124 201.26562 26.815624L201.26562 26.425ZM203.59375 29.55L205.85938 26.315624L203.76562 23.33125L205.07812 23.33125L206.03125 24.784374Q206.29688 25.20625 206.46875 25.4875Q206.71875 25.096874 206.9375 24.8L207.98438 23.33125L209.25 23.33125L207.09375 26.253124L209.40625 29.55L208.125 29.55L206.84375 27.6125L206.5 27.096874L204.85938 29.55L203.59375 29.55ZM208.875 26.971874L208.875 25.909374L212.125 25.909374L212.125 26.971874L208.875 26.971874ZM213.29688 29.55L213.29688 23.33125L214.23438 23.33125L214.23438 24.20625Q214.53125 23.7375 215.01562 23.471874Q215.5 23.190624 216.125 23.190624Q216.8125 23.190624 217.25 23.471874Q217.70312 23.753124 217.875 24.26875Q218.625 23.190624 219.79688 23.190624Q220.73438 23.190624 221.21875 23.70625Q221.71875 24.20625 221.71875 25.284374L221.71875 29.55L220.67188 29.55L220.67188 25.628124Q220.67188 25.003124 220.5625 24.721874Q220.46875 24.440624 220.20312 24.26875Q219.9375 24.096874 219.5625 24.096874Q218.90625 24.096874 218.46875 24.534374Q218.04688 24.971874 218.04688 25.940624L218.04688 29.55L216.98438 29.55L216.98438 25.503124Q216.98438 24.8 216.71875 24.45625Q216.46875 24.096874 215.89062 24.096874Q215.4375 24.096874 215.0625 24.33125Q214.6875 24.565624 214.51562 25.01875Q214.34375 25.471874 214.34375 26.315624L214.34375 29.55L213.29688 29.55ZM228.54688 27.55L229.64062 27.675Q229.39062 28.628124 228.6875 29.159374Q227.98438 29.690624 226.90625 29.690624Q225.54688 29.690624 224.73438 28.846874Q223.9375 28.003124 223.9375 26.4875Q223.9375 24.925 224.75 24.065624Q225.5625 23.190624 226.84375 23.190624Q228.09375 23.190624 228.875 24.034374Q229.67188 24.878124 229.67188 26.425Q229.67188 26.51875 229.67188 26.70625L225.03125 26.70625Q225.09375 27.7375 225.60938 28.284374Q226.125 28.815624 226.90625 28.815624Q227.48438 28.815624 227.89062 28.51875Q228.3125 28.20625 228.54688 27.55ZM225.09375 25.846874L228.5625 25.846874Q228.5 25.05 228.17188 24.659374Q227.65625 24.05 226.85938 24.05Q226.125 24.05 225.625 24.534374Q225.14062 25.01875 225.09375 25.846874ZM231.29688 29.55L231.29688 23.33125L232.23438 23.33125L232.23438 24.20625Q232.53125 23.7375 233.01562 23.471874Q233.5 23.190624 234.125 23.190624Q234.8125 23.190624 235.25 23.471874Q235.70312 23.753124 235.875 24.26875Q236.625 23.190624 237.79688 23.190624Q238.73438 23.190624 239.21875 23.70625Q239.71875 24.20625 239.71875 25.284374L239.71875 29.55L238.67188 29.55L238.67188 25.628124Q238.67188 25.003124 238.5625 24.721874Q238.46875 24.440624 238.20312 24.26875Q237.9375 24.096874 237.5625 24.096874Q236.90625 24.096874 236.46875 24.534374Q236.04688 24.971874 236.04688 25.940624L236.04688 29.55L234.98438 29.55L234.98438 25.503124Q234.98438 24.8 234.71875 24.45625Q234.46875 24.096874 233.89062 24.096874Q233.4375 24.096874 233.0625 24.33125Q232.6875 24.565624 232.51562 25.01875Q232.34375 25.471874 232.34375 26.315624L232.34375 29.55L231.29688 29.55Z" fill-rule="nonzero"/><path stroke="#cc4125" stroke-width="4.0" stroke-linecap="butt" stroke-opacity="0.4" d="M257.5 25.55L269.5 25.55" fill-rule="nonzero"/><path fill="#1a1a1a" d="M283.54688 28.534374L283.54688 29.55L277.85938 29.55Q277.85938 29.175 277.98438 28.815624Q278.20312 28.2375 278.67188 27.675Q279.15625 27.1125 280.0625 26.378124Q281.46875 25.221874 281.95312 24.55Q282.45312 23.878124 282.45312 23.284374Q282.45312 22.659374 282.0 22.2375Q281.54688 21.8 280.82812 21.8Q280.0625 21.8 279.60938 22.253124Q279.15625 22.70625 279.14062 23.51875L278.0625 23.409374Q278.17188 22.190624 278.89062 21.565624Q279.625 20.925 280.85938 20.925Q282.09375 20.925 282.8125 21.6125Q283.53125 22.3 283.53125 23.315624Q283.53125 23.83125 283.3125 24.33125Q283.10938 24.815624 282.60938 25.378124Q282.125 25.925 281.0 26.878124Q280.04688 27.675 279.76562 27.971874Q279.5 28.253124 279.32812 28.534374L283.54688 28.534374ZM285.59375 29.55L285.59375 28.346874L286.79688 28.346874L286.79688 29.55L285.59375 29.55ZM288.15625 27.565624L289.17188 27.471874Q289.29688 28.190624 289.65625 28.51875Q290.03125 28.83125 290.59375 28.83125Q291.07812 28.83125 291.4375 28.6125Q291.8125 28.378124 292.04688 28.01875Q292.28125 27.64375 292.4375 27.01875Q292.59375 26.378124 292.59375 25.721874Q292.59375 25.64375 292.59375 25.503124Q292.28125 26.003124 291.73438 26.33125Q291.1875 26.64375 290.54688 26.64375Q289.46875 26.64375 288.73438 25.878124Q288.0 25.096874 288.0 23.83125Q288.0 22.51875 288.76562 21.721874Q289.54688 20.925 290.70312 20.925Q291.53125 20.925 292.21875 21.378124Q292.92188 21.83125 293.28125 22.675Q293.64062 23.503124 293.64062 25.08125Q293.64062 26.721874 293.28125 27.70625Q292.9375 28.675 292.21875 29.190624Q291.51562 29.690624 290.57812 29.690624Q289.5625 29.690624 288.92188 29.14375Q288.28125 28.58125 288.15625 27.565624ZM292.46875 23.76875Q292.46875 22.8625 291.98438 22.33125Q291.51562 21.8 290.82812 21.8Q290.125 21.8 289.59375 22.378124Q289.07812 22.940624 289.07812 23.8625Q289.07812 24.675 289.57812 25.190624Q290.07812 25.70625 290.79688 25.70625Q291.53125 25.70625 292.0 25.190624Q292.46875 24.675 292.46875 23.76875ZM295.0 27.3L296.10938 27.20625Q296.23438 28.01875 296.67188 28.425Q297.125 28.83125 297.76562 28.83125Q298.51562 28.83125 299.04688 28.253124Q299.57812 27.675 299.57812 26.7375Q299.57812 25.83125 299.0625 25.315624Q298.5625 24.784374 297.73438 24.784374Q297.23438 24.784374 296.8125 25.01875Q296.40625 25.253124 296.17188 25.6125L295.1875 25.4875L296.01562 21.08125L300.29688 21.08125L300.29688 22.08125L296.85938 22.08125L296.40625 24.39375Q297.17188 23.846874 298.01562 23.846874Q299.14062 23.846874 299.90625 24.628124Q300.6875 25.409374 300.6875 26.64375Q300.6875 27.8 300.01562 28.659374Q299.1875 29.690624 297.76562 29.690624Q296.59375 29.690624 295.84375 29.034374Q295.10938 28.378124 295.0 27.3ZM302.45312 29.55L302.45312 20.95625L308.65625 20.95625L308.65625 21.971874L303.59375 21.971874L303.59375 24.596874L308.34375 24.596874L308.34375 25.6125L303.59375 25.6125L303.59375 28.534374L308.85938 28.534374L308.85938 29.55L302.45312 29.55ZM309.875 26.971874L309.875 25.909374L313.125 25.909374L313.125 26.971874L309.875 26.971874ZM314.0 25.315624Q314.0 23.784374 314.3125 22.8625Q314.625 21.925 315.23438 21.425Q315.85938 20.925 316.79688 20.925Q317.48438 20.925 318.0 21.20625Q318.53125 21.4875 318.875 22.01875Q319.21875 22.534374 319.40625 23.284374Q319.59375 24.034374 319.59375 25.315624Q319.59375 26.83125 319.28125 27.753124Q318.98438 28.675 318.35938 29.190624Q317.75 29.690624 316.79688 29.690624Q315.5625 29.690624 314.84375 28.8Q314.0 27.7375 314.0 25.315624ZM315.07812 25.315624Q315.07812 27.425 315.57812 28.128124Q316.07812 28.83125 316.79688 28.83125Q317.53125 28.83125 318.01562 28.128124Q318.51562 27.425 318.51562 25.315624Q318.51562 23.190624 318.01562 22.503124Q317.53125 21.8 316.78125 21.8Q316.0625 21.8 315.625 22.409374Q315.07812 23.190624 315.07812 25.315624ZM321.0 27.284374L322.0625 27.14375Q322.23438 28.034374 322.67188 28.440624Q323.10938 28.83125 323.73438 28.83125Q324.48438 28.83125 325.0 28.315624Q325.51562 27.8 325.51562 27.034374Q325.51562 26.315624 325.03125 25.846874Q324.5625 25.3625 323.82812 25.3625Q323.53125 25.3625 323.07812 25.4875L323.20312 24.55Q323.3125 24.565624 323.375 24.565624Q324.04688 24.565624 324.57812 24.221874Q325.125 23.8625 325.125 23.128124Q325.125 22.55 324.73438 22.175Q324.34375 21.784374 323.71875 21.784374Q323.10938 21.784374 322.6875 22.175Q322.28125 22.565624 322.17188 23.33125L321.10938 23.14375Q321.29688 22.096874 321.98438 21.51875Q322.67188 20.925 323.6875 20.925Q324.39062 20.925 324.98438 21.2375Q325.57812 21.534374 325.89062 22.05Q326.20312 22.565624 326.20312 23.159374Q326.20312 23.70625 325.90625 24.175Q325.60938 24.628124 325.03125 24.89375Q325.78125 25.065624 326.20312 25.628124Q326.625 26.175 326.625 27.01875Q326.625 28.14375 325.79688 28.925Q324.98438 29.70625 323.73438 29.70625Q322.60938 29.70625 321.85938 29.034374Q321.10938 28.346874 321.0 27.284374ZM327.875 22.534374L328.14062 21.70625Q329.07812 22.034374 329.5 22.26875Q329.39062 21.20625 329.375 20.815624L330.23438 20.815624Q330.21875 21.39375 330.09375 22.26875Q330.70312 21.95625 331.48438 21.70625L331.75 22.534374Q331.0 22.784374 330.29688 22.8625Q330.64062 23.175 331.29688 23.971874L330.59375 24.471874Q330.25 24.003124 329.79688 23.20625Q329.35938 24.034374 329.03125 24.471874L328.34375 23.971874Q329.01562 23.128124 329.3125 22.8625Q328.5625 22.721874 327.875 22.534374ZM332.59375 29.55L334.85938 26.315624L332.76562 23.33125L334.07812 23.33125L335.03125 24.784374Q335.29688 25.20625 335.46875 25.4875Q335.71875 25.096874 335.9375 24.8L336.98438 23.33125L338.25 23.33125L336.09375 26.253124L338.40625 29.55L337.125 29.55L335.84375 27.6125L335.5 27.096874L333.85938 29.55L332.59375 29.55ZM343.5 28.159374L343.5 25.8L341.17188 25.8L341.17188 24.815624L343.5 24.815624L343.5 22.4875L344.5 22.4875L344.5 24.815624L346.84375 24.815624L346.84375 25.8L344.5 25.8L344.5 28.159374L343.5 28.159374ZM354.96875 29.55L353.92188 29.55L353.92188 22.83125Q353.53125 23.190624 352.90625 23.565624Q352.29688 23.925 351.8125 24.096874L351.8125 23.08125Q352.6875 22.659374 353.34375 22.08125Q354.01562 21.4875 354.29688 20.925L354.96875 20.925L354.96875 29.55ZM358.0 25.315624Q358.0 23.784374 358.3125 22.8625Q358.625 21.925 359.23438 21.425Q359.85938 20.925 360.79688 20.925Q361.48438 20.925 362.0 21.20625Q362.53125 21.4875 362.875 22.01875Q363.21875 22.534374 363.40625 23.284374Q363.59375 24.034374 363.59375 25.315624Q363.59375 26.83125 363.28125 27.753124Q362.98438 28.675 362.35938 29.190624Q361.75 29.690624 360.79688 29.690624Q359.5625 29.690624 358.84375 28.8Q358.0 27.7375 358.0 25.315624ZM359.07812 25.315624Q359.07812 27.425 359.57812 28.128124Q360.07812 28.83125 360.79688 28.83125Q361.53125 28.83125 362.01562 28.128124Q362.51562 27.425 362.51562 25.315624Q362.51562 23.190624 362.01562 22.503124Q361.53125 21.8 360.78125 21.8Q360.0625 21.8 359.625 22.409374Q359.07812 23.190624 359.07812 25.315624ZM365.59375 29.55L365.59375 28.346874L366.79688 28.346874L366.79688 29.55L365.59375 29.55ZM371.375 29.55L371.375 27.4875L367.65625 27.4875L367.65625 26.51875L371.57812 20.95625L372.4375 20.95625L372.4375 26.51875L373.59375 26.51875L373.59375 27.4875L372.4375 27.4875L372.4375 29.55L371.375 29.55ZM371.375 26.51875L371.375 22.659374L368.6875 26.51875L371.375 26.51875ZM378.4375 29.55L378.4375 20.95625L382.25 20.95625Q383.40625 20.95625 384.0 21.190624Q384.59375 21.425 384.95312 22.01875Q385.3125 22.596874 385.3125 23.3Q385.3125 24.221874 384.71875 24.846874Q384.125 25.471874 382.89062 25.64375Q383.34375 25.8625 383.57812 26.065624Q384.07812 26.51875 384.51562 27.20625L386.01562 29.55L384.57812 29.55L383.45312 27.76875Q382.95312 26.9875 382.625 26.58125Q382.3125 26.175 382.04688 26.01875Q381.79688 25.846874 381.53125 25.76875Q381.34375 25.7375 380.90625 25.7375L379.57812 25.7375L379.57812 29.55L378.4375 29.55ZM379.57812 24.753124L382.03125 24.753124Q382.79688 24.753124 383.23438 24.596874Q383.6875 24.425 383.90625 24.08125Q384.14062 23.721874 384.14062 23.3Q384.14062 22.690624 383.6875 22.3Q383.25 21.909374 382.29688 21.909374L379.57812 21.909374L379.57812 24.753124ZM386.64062 25.253124Q386.6875 24.925 386.92188 24.58125Q387.29688 24.08125 388.14062 23.471874Q388.98438 22.8625 389.14062 22.675Q389.35938 22.440624 389.35938 22.190624Q389.35938 21.909374 389.14062 21.7375Q388.9375 21.55 388.54688 21.55Q388.15625 21.55 387.96875 21.690624Q387.78125 21.815624 387.65625 22.20625L386.76562 22.1125Q386.9375 21.471874 387.35938 21.159374Q387.78125 20.846874 388.5625 20.846874Q389.45312 20.846874 389.85938 21.20625Q390.28125 21.55 390.28125 22.05Q390.28125 22.534374 389.92188 22.971874Q389.67188 23.3 388.73438 23.971874Q388.23438 24.33125 388.03125 24.55L390.29688 24.55L390.29688 25.253124L386.64062 25.253124ZM399.84375 24.503124L394.17188 24.503124L394.17188 23.51875L399.84375 23.51875L399.84375 24.503124ZM399.84375 27.1125L394.17188 27.1125L394.17188 26.128124L399.84375 26.128124L399.84375 27.1125ZM404.0 25.315624Q404.0 23.784374 404.3125 22.8625Q404.625 21.925 405.23438 21.425Q405.85938 20.925 406.79688 20.925Q407.48438 20.925 408.0 21.20625Q408.53125 21.4875 408.875 22.01875Q409.21875 22.534374 409.40625 23.284374Q409.59375 24.034374 409.59375 25.315624Q409.59375 26.83125 409.28125 27.753124Q408.98438 28.675 408.35938 29.190624Q407.75 29.690624 406.79688 29.690624Q405.5625 29.690624 404.84375 28.8Q404.0 27.7375 404.0 25.315624ZM405.07812 25.315624Q405.07812 27.425 405.57812 28.128124Q406.07812 28.83125 406.79688 28.83125Q407.53125 28.83125 408.01562 28.128124Q408.51562 27.425 408.51562 25.315624Q408.51562 23.190624 408.01562 22.503124Q407.53125 21.8 406.78125 21.8Q406.0625 21.8 405.625 22.409374Q405.07812 23.190624 405.07812 25.315624ZM411.59375 29.55L411.59375 28.346874L412.79688 28.346874L412.79688 29.55L411.59375 29.55ZM414.15625 27.565624L415.17188 27.471874Q415.29688 28.190624 415.65625 28.51875Q416.03125 28.83125 416.59375 28.83125Q417.07812 28.83125 417.4375 28.6125Q417.8125 28.378124 418.04688 28.01875Q418.28125 27.64375 418.4375 27.01875Q418.59375 26.378124 418.59375 25.721874Q418.59375 25.64375 418.59375 25.503124Q418.28125 26.003124 417.73438 26.33125Q417.1875 26.64375 416.54688 26.64375Q415.46875 26.64375 414.73438 25.878124Q414.0 25.096874 414.0 23.83125Q414.0 22.51875 414.76562 21.721874Q415.54688 20.925 416.70312 20.925Q417.53125 20.925 418.21875 21.378124Q418.92188 21.83125 419.28125 22.675Q419.64062 23.503124 419.64062 25.08125Q419.64062 26.721874 419.28125 27.70625Q418.9375 28.675 418.21875 29.190624Q417.51562 29.690624 416.57812 29.690624Q415.5625 29.690624 414.92188 29.14375Q414.28125 28.58125 414.15625 27.565624ZM418.46875 23.76875Q418.46875 22.8625 417.98438 22.33125Q417.51562 21.8 416.82812 21.8Q416.125 21.8 415.59375 22.378124Q415.07812 22.940624 415.07812 23.8625Q415.07812 24.675 415.57812 25.190624Q416.07812 25.70625 416.79688 25.70625Q417.53125 25.70625 418.0 25.190624Q418.46875 24.675 418.46875 23.76875ZM426.46875 23.065624L425.42188 23.14375Q425.28125 22.51875 425.03125 22.2375Q424.59375 21.784374 423.96875 21.784374Q423.46875 21.784374 423.07812 22.065624Q422.59375 22.440624 422.29688 23.14375Q422.01562 23.83125 422.0 25.1125Q422.375 24.534374 422.92188 24.253124Q423.48438 23.971874 424.09375 23.971874Q425.14062 23.971874 425.875 24.753124Q426.625 25.534374 426.625 26.753124Q426.625 27.565624 426.26562 28.26875Q425.92188 28.95625 425.3125 29.33125Q424.70312 29.690624 423.9375 29.690624Q422.60938 29.690624 421.78125 28.721874Q420.95312 27.753124 420.95312 25.534374Q420.95312 23.034374 421.875 21.909374Q422.67188 20.925 424.03125 20.925Q425.04688 20.925 425.6875 21.503124Q426.34375 22.065624 426.46875 23.065624ZM422.17188 26.76875Q422.17188 27.315624 422.39062 27.815624Q422.625 28.3 423.03125 28.565624Q423.45312 28.83125 423.92188 28.83125Q424.57812 28.83125 425.0625 28.3Q425.54688 27.753124 425.54688 26.83125Q425.54688 25.940624 425.0625 25.425Q424.59375 24.909374 423.875 24.909374Q423.15625 24.909374 422.65625 25.425Q422.17188 25.940624 422.17188 26.76875ZM428.0 27.3L429.10938 27.20625Q429.23438 28.01875 429.67188 28.425Q430.125 28.83125 430.76562 28.83125Q431.51562 28.83125 432.04688 28.253124Q432.57812 27.675 432.57812 26.7375Q432.57812 25.83125 432.0625 25.315624Q431.5625 24.784374 430.73438 24.784374Q430.23438 24.784374 429.8125 25.01875Q429.40625 25.253124 429.17188 25.6125L428.1875 25.4875L429.01562 21.08125L433.29688 21.08125L433.29688 22.08125L429.85938 22.08125L429.40625 24.39375Q430.17188 23.846874 431.01562 23.846874Q432.14062 23.846874 432.90625 24.628124Q433.6875 25.409374 433.6875 26.64375Q433.6875 27.8 433.01562 28.659374Q432.1875 29.690624 430.76562 29.690624Q429.59375 29.690624 428.84375 29.034374Q428.10938 28.378124 428.0 27.3Z" fill-rule="nonzero"/></svg>